<svg width="97" height="46" viewBox="0 0 97 46" fill="none" xmlns="http://www.w3.org/2000/svg">
<path d="M26.6173 15.1472C24.3739 15.2184 21.436 16.7853 17.8037 19.8478C24.4985 20.8805 27.8281 23.4978 27.7925 27.6999C27.7925 31.3322 25.6024 34.9644 21.2223 38.5967C16.8779 42.229 12.7292 43.8849 8.77646 43.5644C4.21831 43.1727 1.77899 39.8253 1.45849 33.5222L11.3404 32.1334C11.198 32.5607 11.1268 32.9346 11.1268 33.2551C11.1268 33.8605 11.4294 34.1632 12.0348 34.1632C12.2841 34.1632 12.569 34.1098 12.8895 34.003C14.4207 33.5756 15.5959 32.8278 16.4149 31.7595C16.7354 31.3678 16.8957 30.9761 16.8957 30.5843C16.8957 28.9819 15.1685 28.1806 11.7143 28.1806C9.82697 28.1806 7.31642 28.3943 4.1827 28.8216L5.99883 19.8478C9.23939 17.7111 12.3375 15.6279 15.2932 13.5981C12.2663 13.8474 9.275 14.1679 6.31933 14.5596L6.96032 4.41061L28.4869 3.18204C28.0239 5.81722 27.4008 9.8056 26.6173 15.1472ZM47.129 1.20566C50.9037 1.20566 53.5745 3.30668 55.1414 7.50872C55.9604 9.68096 56.3699 12.0669 56.3699 14.6664C56.3699 17.1592 55.996 19.8656 55.2482 22.7856C53.9306 27.7711 51.6515 32.3649 48.411 36.5669C44.4582 41.6948 40.274 44.2588 35.8583 44.2588C32.0479 44.2588 29.3415 42.1578 27.7391 37.9557C26.9556 35.8903 26.5639 33.5756 26.5639 31.0117C26.5639 28.4833 26.9556 25.7413 27.7391 22.7856C29.0567 17.7646 31.3179 13.153 34.5229 8.95095C38.4756 3.78742 42.6777 1.20566 47.129 1.20566ZM45.206 14.4528C43.2474 14.4528 41.2533 16.0552 39.2235 19.2602C37.5854 21.7885 36.4458 24.2635 35.8048 26.685C35.4844 27.967 35.3241 29.1243 35.3241 30.157C35.3241 31.617 35.6802 32.81 36.3924 33.7359C37.2115 34.7686 38.351 35.2849 39.811 35.2849C41.8052 35.2849 43.6036 34.2344 45.206 32.1334C46.488 30.4597 47.4139 28.4833 47.9836 26.2042C48.6602 23.5335 48.8027 20.8983 48.411 18.2987C47.9836 15.7348 46.9153 14.4528 45.206 14.4528ZM86.6033 3.07521L94.7225 5.69259C90.1287 11.1766 85.9267 16.3223 82.1163 21.1297C83.3271 20.8093 84.4666 20.6134 85.535 20.5422C88.8823 20.3285 91.5531 21.1119 93.5473 22.8925C95.0786 24.2813 95.8442 25.9728 95.8442 27.967C95.8442 28.5367 95.773 29.1421 95.6305 29.7831C94.9895 32.7744 93.1734 35.3383 90.1821 37.475C87.4045 39.4692 84.4132 40.5731 81.2083 40.7868C78.9648 40.9292 76.9706 40.6087 75.2257 39.8253C73.1959 38.8638 71.8783 37.4038 71.2729 35.4452C69.3144 38.0804 67.1777 41.0894 64.863 44.4724L56.8507 42.9768L70.2046 25.0291C68.6021 25.6701 66.9997 26.044 65.3972 26.1508C61.943 26.3645 59.2544 25.5811 57.3314 23.8005C55.8002 22.4117 55.0345 20.738 55.0345 18.7795C55.0345 18.1741 55.1058 17.5509 55.2482 16.9099C55.8892 13.9186 57.7053 11.3547 60.6966 9.21803C63.4742 7.22384 66.4655 6.11991 69.6705 5.90625C72.0564 5.7282 74.1752 6.13772 76.0269 7.13481C78.1636 8.23874 79.4456 9.89463 79.8729 12.1025L86.6033 3.07521ZM83.1847 30.3173C82.152 30.4241 81.1727 30.8336 80.2468 31.5458C79.3209 32.258 78.858 33.1127 78.858 34.1098C78.858 34.8932 79.1963 35.4808 79.8729 35.8725C80.4426 36.193 81.1192 36.3176 81.9027 36.2464C82.971 36.1396 83.9503 35.7479 84.8405 35.0713C85.7308 34.3591 86.1759 33.5044 86.1759 32.5073C86.1759 31.7595 85.8554 31.1897 85.2145 30.798C84.6091 30.4063 83.9325 30.246 83.1847 30.3173ZM67.3202 15.6813C66.2875 15.7526 65.3082 16.1621 64.3823 16.9099C63.4564 17.6221 62.9935 18.4768 62.9935 19.4739C62.9935 21.0407 64.0262 21.7529 66.0916 21.6105C67.1243 21.5393 68.0858 21.1476 68.9761 20.4353C69.8663 19.7231 70.3115 18.8685 70.3115 17.8714C70.3115 17.1592 69.991 16.6072 69.35 16.2155C68.7446 15.7882 68.068 15.6101 67.3202 15.6813Z" fill="#FFE400"/>
<path d="M26.6173 15.1472L26.6491 16.1467L27.4853 16.1201L27.6067 15.2923L26.6173 15.1472ZM17.8037 19.8478L17.1591 19.0832L15.4778 20.5008L17.6513 20.8361L17.8037 19.8478ZM27.7925 27.6999L26.7925 27.6914V27.6999H27.7925ZM21.2223 38.5967L20.584 37.8269L20.5809 37.8295L21.2223 38.5967ZM8.77646 43.5644L8.69083 44.5607L8.69564 44.5611L8.77646 43.5644ZM1.45849 33.5222L1.31932 32.5319L0.413323 32.6593L0.459783 33.573L1.45849 33.5222ZM11.3404 32.1334L12.2891 32.4496L12.7995 30.9185L11.2012 31.1431L11.3404 32.1334ZM12.8895 34.003L12.6207 33.0398L12.5968 33.0464L12.5732 33.0543L12.8895 34.003ZM16.4149 31.7595L15.641 31.1263L15.6309 31.1385L15.6213 31.1511L16.4149 31.7595ZM4.1827 28.8216L3.20257 28.6233L2.92342 30.0026L4.31781 29.8125L4.1827 28.8216ZM5.99883 19.8478L5.44838 19.0129L5.10119 19.2418L5.01871 19.6494L5.99883 19.8478ZM15.2932 13.5981L15.8593 14.4225L18.9605 12.2927L15.2111 12.6015L15.2932 13.5981ZM6.31933 14.5596L5.32132 14.4966L5.24463 15.7108L6.45071 15.5509L6.31933 14.5596ZM6.96032 4.41061L6.90334 3.41223L6.01819 3.46275L5.96231 4.34757L6.96032 4.41061ZM28.4869 3.18204L29.4718 3.35507L29.6902 2.11174L28.4299 2.18367L28.4869 3.18204ZM26.5856 14.1477C23.9741 14.2306 20.8063 16.0081 17.1591 19.0832L18.4483 20.6123C22.0657 17.5624 24.7737 16.2062 26.6491 16.1467L26.5856 14.1477ZM17.6513 20.8361C20.9204 21.3404 23.2323 22.2146 24.704 23.3715C26.1275 24.4905 26.8077 25.903 26.7925 27.6914L28.7924 27.7084C28.8129 25.2948 27.8461 23.2975 25.94 21.7992C24.0821 20.3387 21.3818 19.3879 17.9562 18.8595L17.6513 20.8361ZM26.7925 27.6999C26.7925 30.8993 24.8649 34.277 20.584 37.827L21.8607 39.3665C26.34 35.6519 28.7925 31.765 28.7925 27.6999H26.7925ZM20.5809 37.8295C16.3512 41.3659 12.4542 42.8593 8.85727 42.5677L8.69564 44.5611C13.0042 44.9105 17.4045 43.0921 21.8638 39.3639L20.5809 37.8295ZM8.86208 42.5681C6.83761 42.3941 5.36662 41.5847 4.33653 40.1711C3.27663 38.7167 2.61239 36.5235 2.4572 33.4714L0.459783 33.573C0.625089 36.824 1.34076 39.4561 2.72018 41.349C4.12941 43.2828 6.15716 44.343 8.69083 44.5607L8.86208 42.5681ZM1.59767 34.5125L11.4796 33.1237L11.2012 31.1431L1.31932 32.5319L1.59767 34.5125ZM10.3917 31.8172C10.228 32.3085 10.1268 32.7933 10.1268 33.2551H12.1268C12.1268 33.0759 12.168 32.813 12.2891 32.4496L10.3917 31.8172ZM10.1268 33.2551C10.1268 33.712 10.2416 34.2383 10.6467 34.6433C11.0517 35.0483 11.578 35.1632 12.0348 35.1632V33.1632C11.9638 33.1632 11.9424 33.154 11.9538 33.1578C11.97 33.1632 12.0144 33.1826 12.0609 33.2291C12.1074 33.2756 12.1268 33.32 12.1322 33.3362C12.136 33.3475 12.1268 33.3261 12.1268 33.2551H10.1268ZM12.0348 35.1632C12.4221 35.1632 12.817 35.0812 13.2057 34.9516L12.5732 33.0543C12.321 33.1384 12.146 33.1632 12.0348 33.1632V35.1632ZM13.1583 34.9662C14.8592 34.4915 16.2349 33.6379 17.2085 32.3679L15.6213 31.1511C14.9568 32.0178 13.9822 32.6598 12.6207 33.0398L13.1583 34.9662ZM17.1889 32.3927C17.6122 31.8753 17.8957 31.2671 17.8957 30.5843H15.8957C15.8957 30.685 15.8586 30.8602 15.641 31.1263L17.1889 32.3927ZM17.8957 30.5843C17.8957 29.9926 17.7322 29.434 17.3839 28.9492C17.0428 28.4745 16.5654 28.1269 16.0212 27.8744C14.9582 27.3813 13.4872 27.1806 11.7143 27.1806V29.1806C13.3956 29.1806 14.5153 29.3806 15.1795 29.6887C15.4988 29.8369 15.669 29.99 15.7597 30.1162C15.8432 30.2324 15.8957 30.3748 15.8957 30.5843H17.8957ZM11.7143 27.1806C9.76176 27.1806 7.20053 27.4008 4.04758 27.8308L4.31781 29.8125C7.43232 29.3877 9.89217 29.1806 11.7143 29.1806V27.1806ZM5.16283 29.02L6.97896 20.0461L5.01871 19.6494L3.20257 28.6233L5.16283 29.02ZM6.54929 20.6826C9.79468 18.5428 12.898 16.4561 15.8593 14.4225L14.7271 12.7738C11.777 14.7998 8.68411 16.8795 5.44838 19.0129L6.54929 20.6826ZM15.2111 12.6015C12.168 12.8521 9.16031 13.1743 6.18795 13.5683L6.45071 15.5509C9.38969 15.1614 12.3645 14.8427 15.3753 14.5947L15.2111 12.6015ZM7.31734 14.6226L7.95833 4.47364L5.96231 4.34757L5.32132 14.4966L7.31734 14.6226ZM7.0173 5.40898L28.5439 4.18042L28.4299 2.18367L6.90334 3.41223L7.0173 5.40898ZM27.502 3.00902C27.0365 5.65868 26.4116 9.65851 25.6279 15.0021L27.6067 15.2923C28.3899 9.95269 29.0114 5.97576 29.4718 3.35507L27.502 3.00902ZM55.1414 7.50872L54.2044 7.85811L54.2057 7.86153L55.1414 7.50872ZM55.2482 22.7856L56.215 23.0412L56.2169 23.0337L55.2482 22.7856ZM48.411 36.5669L47.6191 35.9562L47.619 35.9564L48.411 36.5669ZM27.7391 37.9557L26.8041 38.3104L26.8047 38.312L27.7391 37.9557ZM27.7391 22.7856L28.7057 23.0419L28.7063 23.0395L27.7391 22.7856ZM34.5229 8.95095L33.7288 8.34309L33.7277 8.3445L34.5229 8.95095ZM39.2235 19.2602L40.0628 19.804L40.0683 19.7952L39.2235 19.2602ZM35.8048 26.685L34.8381 26.4291L34.8347 26.4425L35.8048 26.685ZM36.3924 33.7359L35.5998 34.3456L35.6043 34.3515L35.6089 34.3573L36.3924 33.7359ZM45.206 32.1334L44.4121 31.5253L44.4109 31.527L45.206 32.1334ZM47.9836 26.2042L47.0143 25.9587L47.0135 25.9617L47.9836 26.2042ZM48.411 18.2987L49.3998 18.1497L49.3986 18.142L49.3974 18.1343L48.411 18.2987ZM47.129 2.20566C48.8184 2.20566 50.2053 2.67097 51.3448 3.56738C52.4968 4.47356 53.4651 5.87548 54.2044 7.8581L56.0783 7.15934C55.2508 4.93992 54.1003 3.19031 52.5814 1.99547C51.0501 0.790863 49.2143 0.205659 47.129 0.205659V2.20566ZM54.2057 7.86153C54.9774 9.90831 55.3699 12.173 55.3699 14.6664H57.3699C57.3699 11.9607 56.9434 9.45362 56.0771 7.15592L54.2057 7.86153ZM55.3699 14.6664C55.3699 17.0602 55.0107 19.6823 54.2795 22.5375L56.2169 23.0337C56.9813 20.0489 57.3699 17.2581 57.3699 14.6664H55.3699ZM54.2814 22.5301C52.9989 27.383 50.7807 31.8566 47.6191 35.9562L49.2028 37.1776C52.5224 32.8731 54.8624 28.1593 56.215 23.0412L54.2814 22.5301ZM47.619 35.9564C43.7636 40.9579 39.8393 43.2588 35.8583 43.2588V45.2588C40.7087 45.2588 45.1528 42.4317 49.203 37.1774L47.619 35.9564ZM35.8583 43.2588C34.1489 43.2588 32.742 42.7921 31.5839 41.8931C30.4141 40.9849 29.4293 39.5815 28.6734 37.5994L26.8047 38.312C27.6513 40.532 28.8209 42.2801 30.3575 43.4729C31.9058 44.6749 33.7573 45.2588 35.8583 45.2588V43.2588ZM28.6741 37.6011C27.9399 35.6656 27.5639 33.4736 27.5639 31.0117H25.5639C25.5639 33.6776 25.9713 36.115 26.8041 38.3104L28.6741 37.6011ZM27.5639 31.0117C27.5639 28.5856 27.94 25.9307 28.7057 23.0419L26.7724 22.5294C25.9713 25.5519 25.5639 28.381 25.5639 31.0117H27.5639ZM28.7063 23.0395C29.9898 18.1485 32.1917 13.6564 35.318 9.5574L33.7277 8.3445C30.4442 12.6496 28.1235 17.3806 26.7718 22.5318L28.7063 23.0395ZM35.3169 9.5588C39.1715 4.52355 43.1131 2.20566 47.129 2.20566V0.205659C42.2422 0.205659 37.7798 3.05129 33.7288 8.34309L35.3169 9.5588ZM45.206 13.4528C42.6833 13.4528 40.4287 15.4882 38.3786 18.7251L40.0683 19.7952C42.0778 16.6223 43.8116 15.4528 45.206 15.4528V13.4528ZM38.3842 18.7165C36.7 21.316 35.511 23.8872 34.8381 26.4291L36.7716 26.9409C37.3807 24.6397 38.4708 22.261 40.0627 19.8039L38.3842 18.7165ZM34.8347 26.4425C34.4996 27.7829 34.3241 29.0235 34.3241 30.157H36.3241C36.3241 29.2251 36.4691 28.1511 36.775 26.9275L34.8347 26.4425ZM34.3241 30.157C34.3241 31.7815 34.7225 33.2051 35.5998 34.3456L37.185 33.1262C36.6379 32.4149 36.3241 31.4526 36.3241 30.157H34.3241ZM35.6089 34.3573C36.6398 35.6571 38.0832 36.2849 39.811 36.2849V34.2849C38.6188 34.2849 37.7831 33.8801 37.1759 33.1145L35.6089 34.3573ZM39.811 36.2849C42.2127 36.2849 44.2761 35.0015 46.0011 32.7399L44.4109 31.527C42.931 33.4673 41.3978 34.2849 39.811 34.2849V36.2849ZM45.9999 32.7415C47.374 30.9475 48.3547 28.8433 48.9538 26.4468L47.0135 25.9617C46.4731 28.1234 45.602 29.9719 44.4121 31.5253L45.9999 32.7415ZM48.953 26.4498C49.6607 23.6564 49.8123 20.8871 49.3998 18.1497L47.4221 18.4477C47.7931 20.9095 47.6598 23.4105 47.0143 25.9587L48.953 26.4498ZM49.3974 18.1343C49.1694 16.7664 48.7518 15.6073 48.0575 14.7741C47.328 13.8988 46.3491 13.4528 45.206 13.4528V15.4528C45.7722 15.4528 46.1821 15.6478 46.521 16.0544C46.895 16.5032 47.2252 17.2671 47.4246 18.4631L49.3974 18.1343ZM86.6033 3.07521L86.9101 2.12344L86.2292 1.90394L85.8016 2.47749L86.6033 3.07521ZM94.7225 5.69259L95.4891 6.33473L96.4426 5.19642L95.0293 4.74082L94.7225 5.69259ZM82.1163 21.1297L81.3326 20.5086L79.464 22.8663L82.3722 22.0965L82.1163 21.1297ZM85.535 20.5422L85.4713 19.5442L85.4684 19.5444L85.535 20.5422ZM93.5473 22.8925L94.2192 22.1517L94.2133 22.1465L93.5473 22.8925ZM95.6305 29.7831L94.6543 29.5662L94.6527 29.5736L95.6305 29.7831ZM90.1821 37.475L89.6009 36.6612L89.5989 36.6627L90.1821 37.475ZM81.2083 40.7868L81.2716 41.7848L81.2748 41.7845L81.2083 40.7868ZM75.2257 39.8253L74.7976 40.729L74.8068 40.7334L74.8161 40.7375L75.2257 39.8253ZM71.2729 35.4452L72.2283 35.1499L71.6462 33.2666L70.4703 34.8487L71.2729 35.4452ZM64.863 44.4724L64.6795 45.4555L65.3203 45.5751L65.6883 45.0371L64.863 44.4724ZM56.8507 42.9768L56.0484 42.3799L55.0916 43.6657L56.6672 43.9598L56.8507 42.9768ZM70.2046 25.0291L71.0069 25.626L73.1201 22.7859L69.8332 24.1006L70.2046 25.0291ZM65.3972 26.1508L65.4589 27.1489L65.4637 27.1486L65.3972 26.1508ZM57.3314 23.8005L58.0109 23.0667L58.0032 23.0598L57.3314 23.8005ZM55.2482 16.9099L56.2244 17.1268L56.226 17.1194L55.2482 16.9099ZM60.6966 9.21803L61.2778 10.0318L61.2798 10.0304L60.6966 9.21803ZM69.6705 5.90625L69.737 6.90406L69.7449 6.90348L69.6705 5.90625ZM76.0269 7.13481L75.5528 8.01528L75.5603 8.01932L75.5679 8.02324L76.0269 7.13481ZM79.8729 12.1025L78.8911 12.2925L79.3213 14.5153L80.6746 12.7002L79.8729 12.1025ZM83.1847 30.3173L83.0898 29.3217L83.0818 29.3226L83.1847 30.3173ZM79.8729 35.8725L79.3718 36.738L79.3826 36.7441L79.8729 35.8725ZM81.9027 36.2464L81.9932 37.2424L82.0022 37.2415L81.9027 36.2464ZM84.8405 35.0713L85.4456 35.8674L85.4555 35.8599L85.4652 35.8521L84.8405 35.0713ZM85.2145 30.798L84.6712 31.6376L84.682 31.6446L84.693 31.6513L85.2145 30.798ZM67.3202 15.6813L67.389 16.679L67.402 16.6781L67.415 16.6768L67.3202 15.6813ZM64.3823 16.9099L64.992 17.7025L65.0014 17.6953L65.0106 17.6878L64.3823 16.9099ZM68.9761 20.4353L68.3514 19.6545L68.9761 20.4353ZM69.35 16.2155L68.7733 17.0325L68.8003 17.0515L68.8285 17.0688L69.35 16.2155ZM86.2964 4.02698L94.4156 6.64435L95.0293 4.74082L86.9101 2.12344L86.2964 4.02698ZM93.9559 5.05044C89.3572 10.5403 85.1494 15.6931 81.3326 20.5086L82.9 21.7509C86.7039 16.9516 90.9002 11.8129 95.4891 6.33473L93.9559 5.05044ZM82.3722 22.0965C83.5312 21.7897 84.6068 21.6063 85.6015 21.54L85.4684 19.5444C84.3265 19.6205 83.123 19.8288 81.8604 20.163L82.3722 22.0965ZM85.5987 21.5401C88.7508 21.3389 91.1348 22.0791 92.8813 23.6384L94.2133 22.1465C91.9714 20.1448 89.0139 19.3181 85.4713 19.5442L85.5987 21.5401ZM92.8755 23.6332C94.2065 24.8403 94.8442 26.2664 94.8442 27.967H96.8442C96.8442 25.6791 95.9507 23.7222 94.2191 22.1518L92.8755 23.6332ZM94.8442 27.967C94.8442 28.4537 94.7833 28.9859 94.6543 29.5662L96.6067 30C96.7626 29.2984 96.8442 28.6198 96.8442 27.967H94.8442ZM94.6527 29.5736C94.0741 32.2737 92.4324 34.6387 89.6009 36.6612L90.7634 38.2887C93.9144 36.038 95.905 33.275 96.6083 29.9926L94.6527 29.5736ZM89.5989 36.6627C86.9626 38.5554 84.1484 39.5885 81.1418 39.789L81.2748 41.7845C84.678 41.5577 87.8464 40.383 90.7653 38.2873L89.5989 36.6627ZM81.1449 39.7888C79.0353 39.9227 77.2079 39.6191 75.6353 38.913L74.8161 40.7375C76.7334 41.5983 78.8943 41.9357 81.2716 41.7847L81.1449 39.7888ZM75.6538 38.9215C73.8502 38.0672 72.7425 36.8134 72.2283 35.1499L70.3175 35.7405C71.0141 37.9941 72.5416 39.6604 74.7976 40.729L75.6538 38.9215ZM70.4703 34.8487C68.5024 37.4965 66.3581 40.5165 64.0377 43.9078L65.6883 45.0371C67.9974 41.6624 70.1264 38.6642 72.0755 36.0417L70.4703 34.8487ZM65.0465 43.4894L57.0342 41.9938L56.6672 43.9598L64.6795 45.4555L65.0465 43.4894ZM57.653 43.5737L71.0069 25.626L69.4023 24.4322L56.0484 42.3799L57.653 43.5737ZM69.8332 24.1006C68.3209 24.7056 66.821 25.0537 65.3307 25.153L65.4637 27.1486C67.1784 27.0343 68.8834 26.6346 70.576 25.9576L69.8332 24.1006ZM65.3355 25.1527C62.0627 25.3552 59.6748 24.6075 58.0108 23.0668L56.652 24.5343C58.834 26.5547 61.8232 27.3738 65.4589 27.1489L65.3355 25.1527ZM58.0032 23.0598C56.6679 21.8487 56.0345 20.4387 56.0345 18.7795H54.0345C54.0345 21.0374 54.9324 22.9748 56.6596 24.5413L58.0032 23.0598ZM56.0345 18.7795C56.0345 18.2529 56.0964 17.7026 56.2244 17.1268L54.272 16.693C54.1151 17.3992 54.0345 18.0953 54.0345 18.7795H56.0345ZM56.226 17.1194C56.8046 14.4193 58.4463 12.0543 61.2778 10.0318L60.1154 8.40429C56.9644 10.655 54.9738 13.418 54.2704 16.7004L56.226 17.1194ZM61.2798 10.0304C63.9161 8.13764 66.7303 7.10448 69.737 6.90403L69.6039 4.90846C66.2007 5.13535 63.0324 6.31003 60.1134 8.4057L61.2798 10.0304ZM69.7449 6.90348C71.9674 6.73761 73.8913 7.12061 75.5528 8.01528L76.501 6.25434C74.4591 5.15482 72.1453 4.71878 69.596 4.90902L69.7449 6.90348ZM75.5679 8.02324C77.4544 8.99789 78.5264 10.4085 78.8911 12.2925L80.8547 11.9125C80.3647 9.3808 78.8728 7.47958 76.486 6.24639L75.5679 8.02324ZM80.6746 12.7002L87.405 3.67293L85.8016 2.47749L79.0712 11.5048L80.6746 12.7002ZM83.0818 29.3226C81.8423 29.4508 80.691 29.9425 79.6371 30.7532L80.8565 32.3385C81.6543 31.7248 82.4616 31.3974 83.2876 31.312L83.0818 29.3226ZM79.6371 30.7532C78.5127 31.6181 77.858 32.7467 77.858 34.1098H79.858C79.858 33.4786 80.1291 32.898 80.8565 32.3385L79.6371 30.7532ZM77.858 34.1098C77.858 35.2491 78.3856 36.167 79.3718 36.7379L80.3739 35.0071C80.0069 34.7946 79.858 34.5373 79.858 34.1098H77.858ZM79.3826 36.7441C80.1622 37.1826 81.0498 37.3281 81.9932 37.2423L81.8121 35.2505C81.1887 35.3072 80.7231 35.2034 80.3631 35.0009L79.3826 36.7441ZM82.0022 37.2415C83.262 37.1155 84.4148 36.6509 85.4456 35.8674L84.2355 34.2751C83.4858 34.8449 82.68 35.1637 81.8032 35.2514L82.0022 37.2415ZM85.4652 35.8521C86.5543 34.9809 87.1759 33.8541 87.1759 32.5073H85.1759C85.1759 33.1547 84.9073 33.7373 84.2159 34.2904L85.4652 35.8521ZM87.1759 32.5073C87.1759 31.4092 86.6725 30.5171 85.7359 29.9447L84.693 31.6513C85.0384 31.8624 85.1759 32.1098 85.1759 32.5073H87.1759ZM85.7577 29.9584C84.9549 29.439 84.0517 29.2302 83.0898 29.3218L83.2795 31.3128C83.8132 31.2619 84.2632 31.3736 84.6712 31.6376L85.7577 29.9584ZM67.2514 14.6837C65.9845 14.7711 64.8147 15.2752 63.754 16.132L65.0106 17.6878C65.8016 17.049 66.5904 16.734 67.389 16.679L67.2514 14.6837ZM63.7726 16.1173C62.6482 16.9822 61.9935 18.1108 61.9935 19.4739H63.9935C63.9935 18.8427 64.2646 18.262 64.992 17.7025L63.7726 16.1173ZM61.9935 19.4739C61.9935 20.4938 62.3453 21.4167 63.2003 22.0064C63.9902 22.5511 65.0371 22.6856 66.1604 22.6081L66.0228 20.6129C65.0807 20.6778 64.5786 20.5274 64.3357 20.36C64.158 20.2374 63.9935 20.0208 63.9935 19.4739H61.9935ZM66.1604 22.6081C67.4167 22.5215 68.5684 22.0421 69.6008 21.2162L68.3514 19.6545C67.6032 20.253 66.832 20.5571 66.0228 20.6129L66.1604 22.6081ZM69.6008 21.2162C70.6899 20.3449 71.3115 19.2182 71.3115 17.8714H69.3115C69.3115 18.5187 69.0428 19.1013 68.3514 19.6545L69.6008 21.2162ZM71.3115 17.8714C71.3115 16.7883 70.7899 15.9235 69.8714 15.3622L68.8285 17.0688C69.192 17.2909 69.3115 17.5301 69.3115 17.8714H71.3115ZM69.9266 15.3985C69.123 14.8313 68.2076 14.5923 67.2254 14.6858L67.415 16.6768C67.9284 16.6279 68.3661 16.7451 68.7733 17.0325L69.9266 15.3985Z" fill="black"/>
</svg>
