<svg width="206" height="46" viewBox="0 0 206 46" fill="none" xmlns="http://www.w3.org/2000/svg">
<path d="M26.1919 12.9801C22.3103 13.1225 18.2685 13.3006 14.0665 13.5143C13.9241 14.084 13.746 14.9031 13.5323 15.9714C21.8296 16.1138 26.1385 18.6066 26.459 23.4496C26.637 25.6574 25.9782 28.0612 24.4826 30.6607C23.3074 32.7974 21.7584 34.8094 19.8354 36.6967C15.7046 40.7919 11.8586 42.8395 8.2976 42.8395C5.91169 42.8395 4.13117 41.5932 2.95602 39.1004C2.31503 37.7472 1.99453 35.8599 1.99453 33.4383C1.99453 32.0495 2.08356 30.5183 2.26161 28.8446L11.7696 29.4856C11.5203 30.269 11.3957 30.91 11.3957 31.4085C11.3957 32.0851 11.6628 32.4234 12.1969 32.4234C12.375 32.4234 12.5709 32.3878 12.7845 32.3166C14.1733 31.8893 15.3129 30.999 16.2031 29.6458C16.6305 28.9692 16.8441 28.3104 16.8441 27.6694C16.8441 26.9928 16.6127 26.3162 16.1497 25.6396C15.5087 24.7494 13.7994 24.3042 11.0218 24.3042C9.77543 24.3042 8.33321 24.3933 6.69512 24.5713L3.38334 25.2657C4.27361 19.9954 5.64461 13.0157 7.49636 4.32674L27.2602 2.99135L26.1919 12.9801ZM45.6886 1.1218C49.4634 1.1218 52.1342 3.22282 53.701 7.42486C54.5201 9.5971 54.9296 11.983 54.9296 14.5826C54.9296 17.0753 54.5557 19.7817 53.8078 22.7018C52.4903 27.6872 50.2112 32.281 46.9706 36.483C43.0179 41.611 38.8336 44.1749 34.4179 44.1749C30.6076 44.1749 27.9012 42.0739 26.2987 37.8719C25.5153 35.8064 25.1236 33.4918 25.1236 30.9278C25.1236 28.3995 25.5153 25.6574 26.2987 22.7018C27.6163 17.6807 29.8776 13.0691 33.0825 8.86709C37.0353 3.70356 41.2373 1.1218 45.6886 1.1218ZM43.7657 14.3689C41.8071 14.3689 39.8129 15.9714 37.7831 19.1763C36.145 21.7047 35.0055 24.1796 34.3645 26.6011C34.044 27.8831 33.8838 29.0404 33.8838 30.0732C33.8838 31.5332 34.2399 32.7261 34.9521 33.652C35.7711 34.6847 36.9107 35.2011 38.3707 35.2011C40.3649 35.2011 42.1632 34.1506 43.7657 32.0495C45.0477 30.3758 45.9735 28.3995 46.5433 26.1204C47.2199 23.4496 47.3623 20.8144 46.9706 18.2148C46.5433 15.6509 45.475 14.3689 43.7657 14.3689ZM82.7058 1.1218C86.4805 1.1218 89.1513 3.22282 90.7182 7.42486C91.5372 9.5971 91.9467 11.983 91.9467 14.5826C91.9467 17.0753 91.5728 19.7817 90.825 22.7018C89.5074 27.6872 87.2283 32.281 83.9878 36.483C80.035 41.611 75.8508 44.1749 71.4351 44.1749C67.6247 44.1749 64.9183 42.0739 63.3159 37.8719C62.5324 35.8064 62.1407 33.4918 62.1407 30.9278C62.1407 28.3995 62.5324 25.6574 63.3159 22.7018C64.6335 17.6807 66.8947 13.0691 70.0997 8.86709C74.0524 3.70356 78.2545 1.1218 82.7058 1.1218ZM80.7828 14.3689C78.8242 14.3689 76.8301 15.9714 74.8003 19.1763C73.1622 21.7047 72.0226 24.1796 71.3816 26.6011C71.0612 27.8831 70.9009 29.0404 70.9009 30.0732C70.9009 31.5332 71.257 32.7261 71.9692 33.652C72.7883 34.6847 73.9278 35.2011 75.3878 35.2011C77.382 35.2011 79.1804 34.1506 80.7828 32.0495C82.0648 30.3758 82.9907 28.3995 83.5604 26.1204C84.237 23.4496 84.3795 20.8144 83.9878 18.2148C83.5604 15.6509 82.4921 14.3689 80.7828 14.3689ZM109.147 1.1218C112.921 1.1218 115.592 3.22282 117.159 7.42486C117.978 9.5971 118.388 11.983 118.388 14.5826C118.388 17.0753 118.014 19.7817 117.266 22.7018C115.948 27.6872 113.669 32.281 110.429 36.483C106.476 41.611 102.292 44.1749 97.8759 44.1749C94.0656 44.1749 91.3592 42.0739 89.7567 37.8719C88.9732 35.8064 88.5815 33.4918 88.5815 30.9278C88.5815 28.3995 88.9732 25.6574 89.7567 22.7018C91.0743 17.6807 93.3355 13.0691 96.5405 8.86709C100.493 3.70356 104.695 1.1218 109.147 1.1218ZM107.224 14.3689C105.265 14.3689 103.271 15.9714 101.241 19.1763C99.603 21.7047 98.4635 24.1796 97.8225 26.6011C97.502 27.8831 97.3417 29.0404 97.3417 30.0732C97.3417 31.5332 97.6978 32.7261 98.41 33.652C99.2291 34.6847 100.369 35.2011 101.829 35.2011C103.823 35.2011 105.621 34.1506 107.224 32.0495C108.506 30.3758 109.431 28.3995 110.001 26.1204C110.678 23.4496 110.82 20.8144 110.429 18.2148C110.001 15.6509 108.933 14.3689 107.224 14.3689ZM135.587 1.1218C139.362 1.1218 142.033 3.22282 143.6 7.42486C144.419 9.5971 144.828 11.983 144.828 14.5826C144.828 17.0753 144.454 19.7817 143.707 22.7018C142.389 27.6872 140.11 32.281 136.869 36.483C132.917 41.611 128.732 44.1749 124.317 44.1749C120.506 44.1749 117.8 42.0739 116.197 37.8719C115.414 35.8064 115.022 33.4918 115.022 30.9278C115.022 28.3995 115.414 25.6574 116.197 22.7018C117.515 17.6807 119.776 13.0691 122.981 8.86709C126.934 3.70356 131.136 1.1218 135.587 1.1218ZM133.664 14.3689C131.706 14.3689 129.712 15.9714 127.682 19.1763C126.044 21.7047 124.904 24.1796 124.263 26.6011C123.943 27.8831 123.783 29.0404 123.783 30.0732C123.783 31.5332 124.139 32.7261 124.851 33.652C125.67 34.6847 126.809 35.2011 128.269 35.2011C130.264 35.2011 132.062 34.1506 133.664 32.0495C134.946 30.3758 135.872 28.3995 136.442 26.1204C137.119 23.4496 137.261 20.8144 136.869 18.2148C136.442 15.6509 135.374 14.3689 133.664 14.3689ZM158.343 5.1814L167.477 3.47209C165.02 12.802 163.203 21.1705 162.028 28.5775L167.103 26.4409L170.842 5.1814L179.976 3.47209C176.272 18.0724 173.869 30.4471 172.765 40.5961L164.218 42.9464L165.287 37.0172C162.295 38.3348 157.773 40.3112 151.719 42.9464L158.343 5.1814ZM181.258 5.1814L191.14 3.47209C189.359 10.2737 187.917 16.4699 186.813 22.0608L191.247 21.1527L193.971 5.1814L203.853 3.47209C200.078 18.0368 197.692 30.4115 196.695 40.5961L187.508 42.9464L189.965 28.4173C188.968 28.6309 187.454 28.9514 185.424 29.3787C184.748 33.7588 184.267 37.4979 183.982 40.5961L174.795 42.9464L181.258 5.1814Z" fill="#FFE400"/>
<path d="M26.1919 12.9801L26.2286 13.9794L27.0941 13.9477L27.1862 13.0864L26.1919 12.9801ZM14.0665 13.5143L14.0157 12.5155L13.276 12.5532L13.0964 13.2717L14.0665 13.5143ZM13.5323 15.9714L12.5518 15.7753L12.3167 16.9507L13.5152 16.9712L13.5323 15.9714ZM26.459 23.4496L25.4611 23.5156L25.4616 23.5228L25.4622 23.53L26.459 23.4496ZM24.4826 30.6607L23.6158 30.162L23.611 30.1704L23.6064 30.1788L24.4826 30.6607ZM19.8354 36.6967L19.1349 35.983L19.1314 35.9866L19.8354 36.6967ZM2.95602 39.1004L3.86055 38.674L3.85976 38.6723L2.95602 39.1004ZM2.26161 28.8446L2.32888 27.8469L1.369 27.7821L1.26722 28.7388L2.26161 28.8446ZM11.7696 29.4856L12.7225 29.7888L13.1092 28.5736L11.8369 28.4878L11.7696 29.4856ZM12.7845 32.3166L12.4904 31.3608L12.4793 31.3643L12.4683 31.3679L12.7845 32.3166ZM16.2031 29.6458L17.0386 30.1954L17.0437 30.1877L17.0486 30.1798L16.2031 29.6458ZM16.1497 25.6396L16.975 25.075L16.9683 25.0651L16.9613 25.0553L16.1497 25.6396ZM6.69512 24.5713L6.58706 23.5772L6.53811 23.5825L6.48991 23.5926L6.69512 24.5713ZM3.38334 25.2657L2.39731 25.0992L2.15301 26.5455L3.58856 26.2445L3.38334 25.2657ZM7.49636 4.32674L7.42895 3.32902L6.67569 3.37991L6.51832 4.11831L7.49636 4.32674ZM27.2602 2.99135L28.2545 3.09769L28.3812 1.91333L27.1928 1.99362L27.2602 2.99135ZM26.1552 11.9808C22.2686 12.1234 18.2221 12.3017 14.0157 12.5155L14.1173 14.513C18.315 14.2995 22.3521 14.1217 26.2286 13.9794L26.1552 11.9808ZM13.0964 13.2717C12.9481 13.8647 12.7664 14.7021 12.5518 15.7753L14.5129 16.1675C14.7256 15.104 14.9 14.3033 15.0366 13.7568L13.0964 13.2717ZM13.5152 16.9712C17.5941 17.0413 20.5464 17.6912 22.4862 18.8134C24.3609 19.8979 25.3236 21.4369 25.4611 23.5156L27.4568 23.3836C27.2738 20.6192 25.9219 18.4904 23.4877 17.0822C21.1186 15.7116 17.7679 15.044 13.5495 14.9715L13.5152 16.9712ZM25.4622 23.53C25.6191 25.476 25.0455 27.6772 23.6158 30.162L25.3494 31.1594C26.911 28.4452 27.6549 25.8389 27.4557 23.3692L25.4622 23.53ZM23.6064 30.1788C22.4828 32.2216 20.9956 34.1569 19.1349 35.983L20.5359 37.4104C22.5212 35.4619 24.132 33.3731 25.3588 31.1426L23.6064 30.1788ZM19.1314 35.9866C15.0748 40.0081 11.4699 41.8395 8.2976 41.8395V43.8395C12.2474 43.8395 16.3344 41.5757 20.5394 37.4069L19.1314 35.9866ZM8.2976 41.8395C7.2888 41.8395 6.45198 41.5795 5.74624 41.0855C5.03203 40.5856 4.39341 39.8043 3.86054 38.674L2.05149 39.5268C2.69378 40.8893 3.53299 41.9776 4.59931 42.724C5.67409 43.4763 6.92049 43.8395 8.2976 43.8395V41.8395ZM3.85976 38.6723C3.30948 37.5106 2.99453 35.7927 2.99453 33.4383H0.994534C0.994534 35.927 1.32058 37.9838 2.05228 39.5285L3.85976 38.6723ZM2.99453 33.4383C2.99453 32.0913 3.08093 30.596 3.256 28.9504L1.26722 28.7388C1.08619 30.4406 0.994534 32.0077 0.994534 33.4383H2.99453ZM2.19435 29.8423L11.7024 30.4833L11.8369 28.4878L2.32888 27.8469L2.19435 29.8423ZM10.8167 29.1824C10.5537 30.009 10.3957 30.7621 10.3957 31.4085H12.3957C12.3957 31.0579 12.487 30.529 12.7225 29.7888L10.8167 29.1824ZM10.3957 31.4085C10.3957 31.8514 10.4786 32.3681 10.8111 32.7894C11.1793 33.2557 11.7045 33.4234 12.1969 33.4234V31.4234C12.1674 31.4234 12.1878 31.4187 12.2354 31.4388C12.2594 31.4489 12.2866 31.4639 12.3138 31.4846C12.341 31.5053 12.3635 31.528 12.3809 31.5501C12.4157 31.5942 12.4187 31.6202 12.4129 31.5981C12.4066 31.5742 12.3957 31.5152 12.3957 31.4085H10.3957ZM12.1969 33.4234C12.5066 33.4234 12.8109 33.3619 13.1008 33.2653L12.4683 31.3679C12.3309 31.4137 12.2434 31.4234 12.1969 31.4234V33.4234ZM13.0786 33.2724C14.7153 32.7688 16.0361 31.7191 17.0386 30.1954L15.3677 29.0962C14.5896 30.2789 13.6314 31.0098 12.4904 31.3608L13.0786 33.2724ZM17.0486 30.1798C17.5519 29.383 17.8441 28.5414 17.8441 27.6694H15.8441C15.8441 28.0795 15.709 28.5555 15.3576 29.1118L17.0486 30.1798ZM17.8441 27.6694C17.8441 26.752 17.5273 25.8822 16.975 25.075L15.3244 26.2043C15.698 26.7503 15.8441 27.2337 15.8441 27.6694H17.8441ZM16.9613 25.0553C16.4432 24.3358 15.5905 23.9182 14.639 23.6704C13.6691 23.4178 12.4531 23.3042 11.0218 23.3042V25.3042C12.3681 25.3042 13.3956 25.4133 14.135 25.6058C14.8928 25.8032 15.2153 26.0532 15.3382 26.2239L16.9613 25.0553ZM11.0218 23.3042C9.73 23.3042 8.25037 23.3964 6.58706 23.5772L6.80318 25.5655C8.41605 25.3902 9.82087 25.3042 11.0218 25.3042V23.3042ZM6.48991 23.5926L3.17813 24.287L3.58856 26.2445L6.90034 25.55L6.48991 23.5926ZM4.36938 25.4323C5.25624 20.1821 6.62395 13.218 8.4744 4.53518L6.51832 4.11831C4.66527 12.8134 3.29097 19.8087 2.39731 25.0992L4.36938 25.4323ZM7.56377 5.32447L27.3276 3.98907L27.1928 1.99362L7.42895 3.32902L7.56377 5.32447ZM26.2659 2.885L25.1976 12.8738L27.1862 13.0864L28.2545 3.09769L26.2659 2.885ZM53.701 7.42486L52.764 7.77424L52.7653 7.77766L53.701 7.42486ZM53.8078 22.7018L54.7747 22.9573L54.7766 22.9499L53.8078 22.7018ZM46.9706 36.483L46.1788 35.8724L46.1786 35.8725L46.9706 36.483ZM26.2987 37.8719L25.3637 38.2265L25.3644 38.2282L26.2987 37.8719ZM26.2987 22.7018L27.2653 22.958L27.266 22.9556L26.2987 22.7018ZM33.0825 8.86709L32.2885 8.25923L32.2874 8.26064L33.0825 8.86709ZM37.7831 19.1763L38.6224 19.7201L38.6279 19.7114L37.7831 19.1763ZM34.3645 26.6011L33.3977 26.3452L33.3944 26.3586L34.3645 26.6011ZM34.9521 33.652L34.1595 34.2617L34.164 34.2676L34.1686 34.2734L34.9521 33.652ZM43.7657 32.0495L42.9718 31.4415L42.9706 31.4431L43.7657 32.0495ZM46.5433 26.1204L45.5739 25.8748L45.5732 25.8779L46.5433 26.1204ZM46.9706 18.2148L47.9595 18.0658L47.9583 18.0581L47.957 18.0505L46.9706 18.2148ZM45.6886 2.1218C47.3781 2.1218 48.765 2.5871 49.9045 3.48352C51.0564 4.38969 52.0248 5.79162 52.764 7.77424L54.638 7.07548C53.8104 4.85606 52.6599 3.10645 51.1411 1.91161C49.6098 0.707001 47.774 0.121796 45.6886 0.121796V2.1218ZM52.7653 7.77766C53.5371 9.82445 53.9296 12.0892 53.9296 14.5826H55.9296C55.9296 11.8768 55.5031 9.36975 54.6367 7.07206L52.7653 7.77766ZM53.9296 14.5826C53.9296 16.9764 53.5703 19.5984 52.8391 22.4537L54.7766 22.9499C55.541 19.965 55.9296 17.1743 55.9296 14.5826H53.9296ZM52.841 22.4463C51.5585 27.2991 49.3403 31.7727 46.1788 35.8724L47.7625 37.0937C51.082 32.7893 53.422 28.0754 54.7747 22.9573L52.841 22.4463ZM46.1786 35.8725C42.3233 40.8741 38.3989 43.1749 34.4179 43.1749V45.1749C39.2683 45.1749 43.7124 42.3479 47.7626 37.0936L46.1786 35.8725ZM34.4179 43.1749C32.7085 43.1749 31.3017 42.7083 30.1436 41.8092C28.9737 40.9011 27.989 39.4976 27.2331 37.5155L25.3644 38.2282C26.211 40.4482 27.3806 42.1962 28.9172 43.3891C30.4655 44.5911 32.317 45.1749 34.4179 45.1749V43.1749ZM27.2337 37.5172C26.4996 35.5817 26.1236 33.3897 26.1236 30.9278H24.1236C24.1236 33.5938 24.531 36.0312 25.3637 38.2265L27.2337 37.5172ZM26.1236 30.9278C26.1236 28.5018 26.4996 25.8469 27.2653 22.958L25.3321 22.4456C24.531 25.468 24.1236 28.2972 24.1236 30.9278H26.1236ZM27.266 22.9556C28.5494 18.0646 30.7513 13.5725 33.8776 9.47354L32.2874 8.26064C29.0038 12.5658 26.6832 17.2968 25.3315 22.448L27.266 22.9556ZM33.8766 9.47494C37.7311 4.43969 41.6728 2.1218 45.6886 2.1218V0.121796C40.8019 0.121796 36.3394 2.96743 32.2885 8.25923L33.8766 9.47494ZM43.7657 13.3689C41.2429 13.3689 38.9883 15.4044 36.9383 18.6413L38.6279 19.7114C40.6375 16.5384 42.3713 15.3689 43.7657 15.3689V13.3689ZM36.9439 18.6326C35.2596 21.2322 34.0706 23.8034 33.3978 26.3452L35.3312 26.857C35.9403 24.5558 37.0304 22.1772 38.6224 19.7201L36.9439 18.6326ZM33.3944 26.3586C33.0593 27.699 32.8838 28.9397 32.8838 30.0732H34.8838C34.8838 29.1412 35.0288 28.0672 35.3346 26.8437L33.3944 26.3586ZM32.8838 30.0732C32.8838 31.6976 33.2822 33.1212 34.1595 34.2617L35.7447 33.0423C35.1976 32.331 34.8838 31.3688 34.8838 30.0732H32.8838ZM34.1686 34.2734C35.1994 35.5732 36.6429 36.2011 38.3707 36.2011V34.2011C37.1784 34.2011 36.3428 33.7962 35.7356 33.0306L34.1686 34.2734ZM38.3707 36.2011C40.7723 36.2011 42.8358 34.9177 44.5608 32.656L42.9706 31.4431C41.4906 33.3835 39.9574 34.2011 38.3707 34.2011V36.2011ZM44.5596 32.6576C45.9337 30.8636 46.9143 28.7594 47.5134 26.3629L45.5732 25.8779C45.0327 28.0395 44.1616 29.8881 42.9718 31.4415L44.5596 32.6576ZM47.5127 26.366C48.2203 23.5726 48.3719 20.8032 47.9595 18.0658L45.9818 18.3639C46.3527 20.8256 46.2195 23.3266 45.5739 25.8748L47.5127 26.366ZM47.957 18.0505C47.729 16.6825 47.3115 15.5234 46.6171 14.6902C45.8877 13.8149 44.9088 13.3689 43.7657 13.3689V15.3689C44.3319 15.3689 44.7418 15.5639 45.0807 15.9706C45.4546 16.4193 45.7849 17.1832 45.9842 18.3792L47.957 18.0505ZM90.7182 7.42486L89.7812 7.77424L89.7825 7.77766L90.7182 7.42486ZM90.825 22.7018L91.7918 22.9573L91.7937 22.9499L90.825 22.7018ZM83.9878 36.483L83.1959 35.8724L83.1958 35.8725L83.9878 36.483ZM63.3159 37.8719L62.3809 38.2265L62.3815 38.2282L63.3159 37.8719ZM63.3159 22.7018L64.2825 22.958L64.2831 22.9556L63.3159 22.7018ZM70.0997 8.86709L69.3056 8.25923L69.3045 8.26064L70.0997 8.86709ZM74.8003 19.1763L75.6396 19.7201L75.6451 19.7114L74.8003 19.1763ZM71.3816 26.6011L70.4148 26.3452L70.4115 26.3586L71.3816 26.6011ZM71.9692 33.652L71.1766 34.2617L71.1811 34.2676L71.1857 34.2734L71.9692 33.652ZM80.7828 32.0495L79.9889 31.4415L79.9877 31.4431L80.7828 32.0495ZM83.5604 26.1204L82.5911 25.8748L82.5903 25.8779L83.5604 26.1204ZM83.9878 18.2148L84.9766 18.0658L84.9754 18.0581L84.9742 18.0505L83.9878 18.2148ZM82.7058 2.1218C84.3952 2.1218 85.7821 2.5871 86.9216 3.48352C88.0736 4.38969 89.0419 5.79162 89.7812 7.77424L91.6551 7.07548C90.8276 4.85606 89.6771 3.10645 88.1582 1.91161C86.6269 0.707001 84.7911 0.121796 82.7058 0.121796V2.1218ZM89.7825 7.77766C90.5542 9.82445 90.9467 12.0892 90.9467 14.5826H92.9467C92.9467 11.8768 92.5202 9.36975 91.6539 7.07206L89.7825 7.77766ZM90.9467 14.5826C90.9467 16.9764 90.5875 19.5984 89.8563 22.4537L91.7937 22.9499C92.5581 19.965 92.9467 17.1743 92.9467 14.5826H90.9467ZM89.8582 22.4463C88.5757 27.2991 86.3575 31.7727 83.1959 35.8724L84.7796 37.0937C88.0992 32.7893 90.4392 28.0754 91.7918 22.9573L89.8582 22.4463ZM83.1958 35.8725C79.3404 40.8741 75.4161 43.1749 71.4351 43.1749V45.1749C76.2855 45.1749 80.7296 42.3479 84.7798 37.0936L83.1958 35.8725ZM71.4351 43.1749C69.7257 43.1749 68.3188 42.7083 67.1607 41.8092C65.9909 40.9011 65.0061 39.4976 64.2502 37.5155L62.3815 38.2282C63.2281 40.4482 64.3977 42.1962 65.9343 43.3891C67.4826 44.5911 69.3341 45.1749 71.4351 45.1749V43.1749ZM64.2509 37.5172C63.5167 35.5817 63.1407 33.3897 63.1407 30.9278H61.1407C61.1407 33.5938 61.5481 36.0312 62.3809 38.2265L64.2509 37.5172ZM63.1407 30.9278C63.1407 28.5018 63.5168 25.8469 64.2825 22.958L62.3492 22.4456C61.5481 25.468 61.1407 28.2972 61.1407 30.9278H63.1407ZM64.2831 22.9556C65.5666 18.0646 67.7685 13.5725 70.8948 9.47354L69.3045 8.26064C66.021 12.5658 63.7003 17.2968 62.3486 22.448L64.2831 22.9556ZM70.8937 9.47494C74.7483 4.43969 78.6899 2.1218 82.7058 2.1218V0.121796C77.819 0.121796 73.3566 2.96743 69.3056 8.25923L70.8937 9.47494ZM80.7828 13.3689C78.2601 13.3689 76.0055 15.4044 73.9554 18.6413L75.6451 19.7114C77.6546 16.5384 79.3884 15.3689 80.7828 15.3689V13.3689ZM73.961 18.6326C72.2768 21.2322 71.0878 23.8034 70.4149 26.3452L72.3484 26.857C72.9575 24.5558 74.0476 22.1772 75.6395 19.7201L73.961 18.6326ZM70.4115 26.3586C70.0764 27.699 69.9009 28.9397 69.9009 30.0732H71.9009C71.9009 29.1412 72.0459 28.0672 72.3518 26.8437L70.4115 26.3586ZM69.9009 30.0732C69.9009 31.6976 70.2993 33.1212 71.1766 34.2617L72.7618 33.0423C72.2147 32.331 71.9009 31.3688 71.9009 30.0732H69.9009ZM71.1857 34.2734C72.2166 35.5732 73.66 36.2011 75.3878 36.2011V34.2011C74.1956 34.2011 73.3599 33.7962 72.7527 33.0306L71.1857 34.2734ZM75.3878 36.2011C77.7895 36.2011 79.8529 34.9177 81.5779 32.656L79.9877 31.4431C78.5078 33.3835 76.9746 34.2011 75.3878 34.2011V36.2011ZM81.5767 32.6576C82.9508 30.8636 83.9315 28.7594 84.5306 26.3629L82.5903 25.8779C82.0499 28.0395 81.1788 29.8881 79.9889 31.4415L81.5767 32.6576ZM84.5298 26.366C85.2375 23.5726 85.3891 20.8032 84.9766 18.0658L82.9989 18.3639C83.3699 20.8256 83.2366 23.3266 82.5911 25.8748L84.5298 26.366ZM84.9742 18.0505C84.7462 16.6825 84.3286 15.5234 83.6343 14.6902C82.9048 13.8149 81.9259 13.3689 80.7828 13.3689V15.3689C81.349 15.3689 81.7589 15.5639 82.0978 15.9706C82.4718 16.4193 82.802 17.1832 83.0014 18.3792L84.9742 18.0505ZM117.159 7.42486L116.222 7.77424L116.223 7.77766L117.159 7.42486ZM117.266 22.7018L118.233 22.9573L118.235 22.9499L117.266 22.7018ZM110.429 36.483L109.637 35.8724L109.637 35.8725L110.429 36.483ZM89.7567 37.8719L88.8217 38.2265L88.8223 38.2282L89.7567 37.8719ZM89.7567 22.7018L90.7233 22.958L90.7239 22.9556L89.7567 22.7018ZM96.5405 8.86709L95.7464 8.25923L95.7454 8.26064L96.5405 8.86709ZM101.241 19.1763L102.08 19.7201L102.086 19.7114L101.241 19.1763ZM97.8225 26.6011L96.8557 26.3452L96.8523 26.3586L97.8225 26.6011ZM98.41 33.652L97.6174 34.2617L97.6219 34.2676L97.6265 34.2734L98.41 33.652ZM107.224 32.0495L106.43 31.4415L106.429 31.4431L107.224 32.0495ZM110.001 26.1204L109.032 25.8748L109.031 25.8779L110.001 26.1204ZM110.429 18.2148L111.417 18.0658L111.416 18.0581L111.415 18.0505L110.429 18.2148ZM109.147 2.1218C110.836 2.1218 112.223 2.5871 113.362 3.48352C114.514 4.38969 115.483 5.79162 116.222 7.77424L118.096 7.07548C117.268 4.85606 116.118 3.10645 114.599 1.91161C113.068 0.707001 111.232 0.121796 109.147 0.121796V2.1218ZM116.223 7.77766C116.995 9.82445 117.388 12.0892 117.388 14.5826H119.388C119.388 11.8768 118.961 9.36975 118.095 7.07206L116.223 7.77766ZM117.388 14.5826C117.388 16.9764 117.028 19.5984 116.297 22.4537L118.235 22.9499C118.999 19.965 119.388 17.1743 119.388 14.5826H117.388ZM116.299 22.4463C115.016 27.2991 112.798 31.7727 109.637 35.8724L111.22 37.0937C114.54 32.7893 116.88 28.0754 118.233 22.9573L116.299 22.4463ZM109.637 35.8725C105.781 40.8741 101.857 43.1749 97.8759 43.1749V45.1749C102.726 45.1749 107.17 42.3479 111.221 37.0936L109.637 35.8725ZM97.8759 43.1749C96.1665 43.1749 94.7596 42.7083 93.6016 41.8092C92.4317 40.9011 91.4469 39.4976 90.691 37.5155L88.8223 38.2282C89.6689 40.4482 90.8386 42.1962 92.3751 43.3891C93.9234 44.5911 95.775 45.1749 97.8759 45.1749V43.1749ZM90.6917 37.5172C89.9575 35.5817 89.5815 33.3897 89.5815 30.9278H87.5815C87.5815 33.5938 87.989 36.0312 88.8217 38.2265L90.6917 37.5172ZM89.5815 30.9278C89.5815 28.5018 89.9576 25.8469 90.7233 22.958L88.7901 22.4456C87.9889 25.468 87.5815 28.2972 87.5815 30.9278H89.5815ZM90.7239 22.9556C92.0074 18.0646 94.2093 13.5725 97.3356 9.47354L95.7454 8.26064C92.4618 12.5658 90.1412 17.2968 88.7894 22.448L90.7239 22.9556ZM97.3345 9.47494C101.189 4.43969 105.131 2.1218 109.147 2.1218V0.121796C104.26 0.121796 99.7974 2.96743 95.7464 8.25923L97.3345 9.47494ZM107.224 13.3689C104.701 13.3689 102.446 15.4044 100.396 18.6413L102.086 19.7114C104.095 16.5384 105.829 15.3689 107.224 15.3689V13.3689ZM100.402 18.6326C98.7176 21.2322 97.5286 23.8034 96.8558 26.3452L98.7892 26.857C99.3983 24.5558 100.488 22.1772 102.08 19.7201L100.402 18.6326ZM96.8523 26.3586C96.5172 27.699 96.3417 28.9397 96.3417 30.0732H98.3417C98.3417 29.1412 98.4867 28.0672 98.7926 26.8437L96.8523 26.3586ZM96.3417 30.0732C96.3417 31.6976 96.7401 33.1212 97.6174 34.2617L99.2027 33.0423C98.6555 32.331 98.3417 31.3688 98.3417 30.0732H96.3417ZM97.6265 34.2734C98.6574 35.5732 100.101 36.2011 101.829 36.2011V34.2011C100.636 34.2011 99.8008 33.7962 99.1935 33.0306L97.6265 34.2734ZM101.829 36.2011C104.23 36.2011 106.294 34.9177 108.019 32.656L106.429 31.4431C104.949 33.3835 103.415 34.2011 101.829 34.2011V36.2011ZM108.018 32.6576C109.392 30.8636 110.372 28.7594 110.971 26.3629L109.031 25.8779C108.491 28.0395 107.62 29.8881 106.43 31.4415L108.018 32.6576ZM110.971 26.366C111.678 23.5726 111.83 20.8032 111.417 18.0658L109.44 18.3639C109.811 20.8256 109.677 23.3266 109.032 25.8748L110.971 26.366ZM111.415 18.0505C111.187 16.6825 110.769 15.5234 110.075 14.6902C109.346 13.8149 108.367 13.3689 107.224 13.3689V15.3689C107.79 15.3689 108.2 15.5639 108.539 15.9706C108.913 16.4193 109.243 17.1832 109.442 18.3792L111.415 18.0505ZM143.6 7.42486L142.663 7.77424L142.664 7.77766L143.6 7.42486ZM143.707 22.7018L144.673 22.9573L144.675 22.9499L143.707 22.7018ZM136.869 36.483L136.078 35.8724L136.077 35.8725L136.869 36.483ZM116.197 37.8719L115.262 38.2265L115.263 38.2282L116.197 37.8719ZM116.197 22.7018L117.164 22.958L117.165 22.9556L116.197 22.7018ZM122.981 8.86709L122.187 8.25923L122.186 8.26064L122.981 8.86709ZM127.682 19.1763L128.521 19.7201L128.527 19.7114L127.682 19.1763ZM124.263 26.6011L123.296 26.3452L123.293 26.3586L124.263 26.6011ZM124.851 33.652L124.058 34.2617L124.063 34.2676L124.067 34.2734L124.851 33.652ZM133.664 32.0495L132.871 31.4415L132.869 31.4431L133.664 32.0495ZM136.442 26.1204L135.473 25.8748L135.472 25.8779L136.442 26.1204ZM136.869 18.2148L137.858 18.0658L137.857 18.0581L137.856 18.0505L136.869 18.2148ZM135.587 2.1218C137.277 2.1218 138.664 2.5871 139.803 3.48352C140.955 4.38969 141.924 5.79162 142.663 7.77424L144.537 7.07548C143.709 4.85606 142.559 3.10645 141.04 1.91161C139.509 0.707001 137.673 0.121796 135.587 0.121796V2.1218ZM142.664 7.77766C143.436 9.82445 143.828 12.0892 143.828 14.5826H145.828C145.828 11.8768 145.402 9.36975 144.535 7.07206L142.664 7.77766ZM143.828 14.5826C143.828 16.9764 143.469 19.5984 142.738 22.4537L144.675 22.9499C145.44 19.965 145.828 17.1743 145.828 14.5826H143.828ZM142.74 22.4463C141.457 27.2991 139.239 31.7727 136.078 35.8724L137.661 37.0937C140.981 32.7893 143.321 28.0754 144.673 22.9573L142.74 22.4463ZM136.077 35.8725C132.222 40.8741 128.298 43.1749 124.317 43.1749V45.1749C129.167 45.1749 133.611 42.3479 137.661 37.0936L136.077 35.8725ZM124.317 43.1749C122.607 43.1749 121.2 42.7083 120.042 41.8092C118.873 40.9011 117.888 39.4976 117.132 37.5155L115.263 38.2282C116.11 40.4482 117.279 42.1962 118.816 43.3891C120.364 44.5911 122.216 45.1749 124.317 45.1749V43.1749ZM117.132 37.5172C116.398 35.5817 116.022 33.3897 116.022 30.9278H114.022C114.022 33.5938 114.43 36.0312 115.263 38.2265L117.132 37.5172ZM116.022 30.9278C116.022 28.5018 116.398 25.8469 117.164 22.958L115.231 22.4456C114.43 25.468 114.022 28.2972 114.022 30.9278H116.022ZM117.165 22.9556C118.448 18.0646 120.65 13.5725 123.776 9.47354L122.186 8.26064C118.903 12.5658 116.582 17.2968 115.23 22.448L117.165 22.9556ZM123.775 9.47494C127.63 4.43969 131.572 2.1218 135.587 2.1218V0.121796C130.701 0.121796 126.238 2.96743 122.187 8.25923L123.775 9.47494ZM133.664 13.3689C131.142 13.3689 128.887 15.4044 126.837 18.6413L128.527 19.7114C130.536 16.5384 132.27 15.3689 133.664 15.3689V13.3689ZM126.843 18.6326C125.158 21.2322 123.969 23.8034 123.297 26.3452L125.23 26.857C125.839 24.5558 126.929 22.1772 128.521 19.7201L126.843 18.6326ZM123.293 26.3586C122.958 27.699 122.783 28.9397 122.783 30.0732H124.783C124.783 29.1412 124.928 28.0672 125.233 26.8437L123.293 26.3586ZM122.783 30.0732C122.783 31.6976 123.181 33.1212 124.058 34.2617L125.643 33.0423C125.096 32.331 124.783 31.3688 124.783 30.0732H122.783ZM124.067 34.2734C125.098 35.5732 126.542 36.2011 128.269 36.2011V34.2011C127.077 34.2011 126.242 33.7962 125.634 33.0306L124.067 34.2734ZM128.269 36.2011C130.671 36.2011 132.735 34.9177 134.46 32.656L132.869 31.4431C131.389 33.3835 129.856 34.2011 128.269 34.2011V36.2011ZM134.458 32.6576C135.832 30.8636 136.813 28.7594 137.412 26.3629L135.472 25.8779C134.932 28.0395 134.06 29.8881 132.871 31.4415L134.458 32.6576ZM137.411 26.366C138.119 23.5726 138.271 20.8032 137.858 18.0658L135.881 18.3639C136.252 20.8256 136.118 23.3266 135.473 25.8748L137.411 26.366ZM137.856 18.0505C137.628 16.6825 137.21 15.5234 136.516 14.6902C135.786 13.8149 134.808 13.3689 133.664 13.3689V15.3689C134.231 15.3689 134.641 15.5639 134.979 15.9706C135.353 16.4193 135.684 17.1832 135.883 18.3792L137.856 18.0505ZM158.343 5.1814L158.159 4.19846L157.477 4.32595L157.358 5.00864L158.343 5.1814ZM167.477 3.47209L168.444 3.72677L168.846 2.19845L167.293 2.48915L167.477 3.47209ZM162.028 28.5775L161.041 28.4208L160.759 30.197L162.416 29.4991L162.028 28.5775ZM167.103 26.4409L167.491 27.3625L167.993 27.151L168.088 26.6141L167.103 26.4409ZM170.842 5.1814L170.658 4.19846L169.977 4.32589L169.857 5.00818L170.842 5.1814ZM179.976 3.47209L180.945 3.71796L181.33 2.20135L179.792 2.48915L179.976 3.47209ZM172.765 40.5961L173.03 41.5603L173.685 41.38L173.759 40.7042L172.765 40.5961ZM164.218 42.9464L163.234 42.769L162.953 44.3315L164.483 43.9106L164.218 42.9464ZM165.287 37.0172L166.271 37.1945L166.604 35.3441L164.883 36.1021L165.287 37.0172ZM151.719 42.9464L150.734 42.7736L150.413 44.6056L152.118 43.8633L151.719 42.9464ZM158.526 6.16433L167.661 4.45503L167.293 2.48915L158.159 4.19846L158.526 6.16433ZM166.51 3.21742C164.046 12.5711 162.222 20.9731 161.041 28.4208L163.016 28.7342C164.185 21.368 165.993 13.033 168.444 3.72677L166.51 3.21742ZM162.416 29.4991L167.491 27.3625L166.715 25.5192L161.64 27.6559L162.416 29.4991ZM168.088 26.6141L171.827 5.35462L169.857 5.00818L166.118 26.2677L168.088 26.6141ZM171.026 6.16433L180.16 4.45503L179.792 2.48915L170.658 4.19846L171.026 6.16433ZM179.007 3.22622C175.297 17.8527 172.881 30.2763 171.771 40.4879L173.759 40.7042C174.856 30.6178 177.248 18.2921 180.945 3.71796L179.007 3.22622ZM172.5 39.6319L163.953 41.9822L164.483 43.9106L173.03 41.5603L172.5 39.6319ZM165.202 43.1237L166.271 37.1945L164.302 36.8399L163.234 42.769L165.202 43.1237ZM164.883 36.1021C161.894 37.4187 157.373 39.3944 151.32 42.0295L152.118 43.8633C158.172 41.228 162.696 39.2509 165.69 37.9324L164.883 36.1021ZM152.704 43.1191L159.328 5.35415L157.358 5.00864L150.734 42.7736L152.704 43.1191ZM181.258 5.1814L181.087 4.19603L180.391 4.31643L180.272 5.0127L181.258 5.1814ZM191.14 3.47209L192.107 3.72534L192.501 2.22183L190.969 2.48672L191.14 3.47209ZM186.813 22.0608L185.832 21.8671L185.541 23.3421L187.014 23.0404L186.813 22.0608ZM191.247 21.1527L191.447 22.1324L192.117 21.9951L192.232 21.3209L191.247 21.1527ZM193.971 5.1814L193.8 4.19603L193.104 4.3165L192.985 5.01326L193.971 5.1814ZM203.853 3.47209L204.821 3.72297L205.21 2.22254L203.682 2.48672L203.853 3.47209ZM196.695 40.5961L196.943 41.5649L197.622 41.3911L197.69 40.6935L196.695 40.5961ZM187.508 42.9464L186.522 42.7796L186.265 44.2964L187.755 43.9152L187.508 42.9464ZM189.965 28.4173L190.951 28.584L191.196 27.1306L189.755 27.4395L189.965 28.4173ZM185.424 29.3787L185.218 28.4002L184.542 28.5427L184.436 29.2261L185.424 29.3787ZM183.982 40.5961L184.23 41.5649L184.913 41.3901L184.978 40.6876L183.982 40.5961ZM174.795 42.9464L173.809 42.7777L173.549 44.2972L175.042 43.9152L174.795 42.9464ZM181.428 6.16676L191.31 4.45746L190.969 2.48672L181.087 4.19603L181.428 6.16676ZM190.172 3.21884C188.388 10.0358 186.941 16.2523 185.832 21.8671L187.794 22.2545C188.893 16.6876 190.331 10.5116 192.107 3.72534L190.172 3.21884ZM187.014 23.0404L191.447 22.1324L191.046 20.1731L186.613 21.0811L187.014 23.0404ZM192.232 21.3209L194.957 5.34954L192.985 5.01326L190.261 20.9846L192.232 21.3209ZM194.141 6.16676L204.023 4.45746L203.682 2.48672L193.8 4.19603L194.141 6.16676ZM202.885 3.22121C199.102 17.8152 196.704 30.2443 195.7 40.4986L197.69 40.6935C198.681 30.5786 201.054 18.2584 204.821 3.72297L202.885 3.22121ZM196.447 39.6273L187.26 41.9776L187.755 43.9152L196.943 41.5649L196.447 39.6273ZM188.494 43.1131L190.951 28.584L188.979 28.2505L186.522 42.7796L188.494 43.1131ZM189.755 27.4395C188.76 27.6527 187.248 27.9729 185.218 28.4002L185.63 30.3573C187.66 29.9299 189.175 29.6091 190.174 29.3951L189.755 27.4395ZM184.436 29.2261C183.758 33.6187 183.274 37.3794 182.986 40.5045L184.978 40.6876C185.26 37.6165 185.738 33.899 186.413 29.5314L184.436 29.2261ZM183.734 39.6273L174.547 41.9776L175.042 43.9152L184.23 41.5649L183.734 39.6273ZM175.78 43.1151L182.244 5.35009L180.272 5.0127L173.809 42.7777L175.78 43.1151Z" fill="black"/>
</svg>
