<svg width="115" height="119" viewBox="0 0 115 119" fill="none" xmlns="http://www.w3.org/2000/svg">
<path fill-rule="evenodd" clip-rule="evenodd" d="M33.8937 10.0075L37.0813 35.6231L10.9585 26.3399L29.1493 52.9207L0.744186 64.439L30.1815 71.4607L20.5066 100.116L42.6042 86.5685L45.4787 118.563L58.0769 85.6656L74.7997 109.569L73.9917 80.3452L102 92.1884L84.3563 62.2028L114.326 40.3486L77.9736 43.8442L88.188 16.8689L65.9539 33.5125L64.2618 0.813965L50.2771 30.4304L33.8937 10.0075Z" fill="#E60012"/>
<path d="M64.0692 16.042C65.021 16.042 73.7378 16.9428 74.5395 14.3997C75.3411 11.8566 72.934 5.03317 72.934 5.03317C72.934 5.03317 77.4035 10.9031 80.4314 10.7438C83.4593 10.5845 87.952 2.92358 87.952 2.92358C87.952 2.92358 85.2128 13.6582 88.4004 14.771C91.5881 15.8838 97.3245 16.466 97.3245 16.466C97.3245 16.466 88.4004 18.2149 88.5591 20.2812C88.7177 22.3476 92.8625 28.016 92.8625 28.016C92.8625 28.016 85.7966 23.2473 84.0431 24.5194C82.2896 25.7915 80.9718 32.4577 80.9718 32.4577C80.9718 32.4577 81.0691 23.1418 78.9973 23.4604C76.9254 23.7789 73.1001 27.1152 73.1001 27.1152C73.1001 27.1152 75.1719 20.5987 74.3756 19.8045C73.5792 19.0102 64.0692 16.042 64.0692 16.042Z" fill="#F39800"/>
<path d="M76.9531 11.3618C76.9531 11.3618 79.6352 14.9872 81.1497 15.0251C82.9402 15.0715 85.4139 9.88513 85.4139 9.88513C85.4139 9.88513 83.6224 15.503 84.3172 17.0862C84.9592 18.5502 88.7983 18.1125 88.7983 18.1125C88.7983 18.1125 85.2204 18.1484 84.8851 19.8002C84.6948 20.7495 86.6069 22.7536 86.6069 22.7536C86.6069 22.7536 83.671 20.3803 82.57 21.4794C81.4691 22.5785 81.5378 24.8547 81.5378 24.8547C81.5378 24.8547 81.376 21.3908 80.183 21.2083C78.9901 21.0258 71.921 26.0604 72.38 25.7851C72.839 25.5098 78.2582 20.7495 77.8901 19.3783C77.5221 18.007 73.7158 17.5134 74.0828 17.5134C74.4498 17.5134 78.2582 17.2729 78.4412 16.5409C78.6241 15.8088 76.9531 11.3618 76.9531 11.3618Z" fill="#E60012"/>
<path fill-rule="evenodd" clip-rule="evenodd" d="M38.0333 20.0112L42.0522 41.107L18.1503 31.8248L35.2835 53.9754L10.1125 63.8905L36.9757 68.5316L25.9766 92.5808L46.0711 79.7124L47.556 107.017L57.4953 76.9699L70.158 95.9836L69.3384 74.2274L93.603 85.7226L79.4914 61.148L101.002 44.5794L70.7587 49.0886L81.9492 24.9381L61.859 43.4929L62.5697 11.9948L52.2951 40.1461L38.0333 20.0112Z" fill="#F39800"/>
<path fill-rule="evenodd" clip-rule="evenodd" d="M41.8407 29.0824L45.8596 47.0138L26.1881 37.9426L39.3024 57.3508L23.0153 62.8357L43.7443 65.2965L32.9568 84.3534L49.2439 73.1727L49.0514 97.4276L57.1706 72.1347L66.3136 85.8629L64.6183 68.3122L85.414 78.0247L73.5688 59.4604L90.0674 48.9125L66.7483 52.004L74.8273 34.5673L60.3223 47.9653L61.0891 20.644L53.4172 45.5477L41.8407 29.0824Z" fill="#FFF100"/>
<path d="M74.4919 40.8959L76.4792 37.4636C76.547 37.3735 76.6095 37.2795 76.6664 37.182C78.147 34.6284 74.9118 31.2425 71.0515 29.0201C69.2155 27.9653 67.3161 27.2142 65.7054 26.9105C62.8868 26.3831 61.6759 27.3482 61.1577 28.2458C61.1037 28.3412 61.055 28.4395 61.0117 28.5401L59.0276 31.9703C54.8866 31.4467 50.6806 32.053 46.8577 33.7247C43.0348 35.3963 39.738 38.0708 37.3185 41.4632C34.8989 44.8556 33.4472 48.839 33.1178 52.9891C32.7885 57.1392 33.5939 61.3008 35.4482 65.0305C37.3026 68.7603 40.1365 71.9187 43.6482 74.1693C47.1598 76.4199 51.2178 77.6786 55.3899 77.8112C59.562 77.9438 63.692 76.9454 67.3402 74.9223C70.9884 72.8992 74.0182 69.9272 76.1069 66.3228C80.8788 58.069 79.9301 48.058 74.4919 40.8959Z" fill="white"/>
<path d="M74.603 65.46C68.7089 75.6419 55.656 79.1301 45.4469 73.2518C35.2379 67.3734 31.7414 54.3552 37.6355 44.1733C43.5295 33.9914 56.5825 30.5042 66.7915 36.3826C77.0006 42.2609 80.497 55.2792 74.603 65.46Z" fill="#231815"/>
<path d="M71.6734 42.3168L75.0757 36.4396L62.596 29.2554L59.1926 35.1327C59.1507 35.1788 59.1136 35.229 59.0816 35.2825C58.3772 36.4986 60.6077 39.0987 64.0639 41.0838C67.5202 43.0689 70.8908 43.7007 71.5951 42.4846C71.627 42.4315 71.6532 42.3753 71.6734 42.3168Z" fill="#231815"/>
<path d="M75.1689 36.3213C74.4645 37.5385 71.0929 36.9109 67.6366 34.9205C64.1804 32.9301 61.9499 30.3322 62.6543 29.1192C63.3586 27.9062 66.7313 28.5296 70.1865 30.5189C73.6417 32.5082 75.8722 35.1051 75.1689 36.3213Z" fill="#231815"/>
<path d="M67.6366 34.9207C70.4149 36.6916 73.445 37.1157 74.474 36.8636C73.9167 37.8277 71.0992 42.8864 71.0992 42.8864C71.0992 42.8864 70.8443 44.0245 69.3161 43.8052C68.2225 43.648 66.9608 43.5499 63.6748 41.6587C60.832 40.0206 59.3037 36.9385 59.3037 36.9385C59.3037 36.9385 60.6109 39.1229 63.9815 41.0638C67.3521 43.0046 69.8555 43.1248 69.8555 43.1248L73.0685 37.45C73.0685 37.45 70.4477 37.3351 67.6366 34.9207Z" fill="white"/>
<path d="M59.0319 34.7549C59.0319 34.7549 46.8113 32.7424 39.223 43.5677C47.1286 34.8372 59.0319 34.7549 59.0319 34.7549Z" fill="white"/>
<path d="M54.0199 43.3389C51.891 43.9591 49.7831 43.1585 49.3125 41.5458C48.8419 39.933 50.1861 38.1325 52.3151 37.5112C54.444 36.8899 56.5529 37.6926 57.0235 39.3043C57.4942 40.9161 56.1489 42.7187 54.0199 43.3389Z" fill="white"/>
<path d="M46.0709 45.1974C45.357 45.6679 44.4951 45.6193 44.1461 45.0919C43.7971 44.5646 44.0921 43.7555 44.8071 43.2851C45.522 42.8147 46.3829 42.8632 46.7319 43.3906C47.0809 43.918 46.7837 44.728 46.0709 45.1974Z" fill="white"/>
<path d="M80.5246 18.7782C80.3924 18.7444 77.2682 17.966 75.3497 19.6631C73.3086 21.4679 73.0558 22.3581 72.7195 24.0416C72.5902 24.7356 72.4236 25.4222 72.2203 26.0984C71.3657 28.9115 69.5022 30.5022 69.4272 30.5665C69.2233 30.7343 69.0944 30.9758 69.0688 31.2382C69.0432 31.5006 69.123 31.7624 69.2907 31.9662C69.3841 32.0797 69.5017 32.1712 69.6348 32.2339C69.768 32.2967 69.9134 32.3292 70.0607 32.3291C70.2919 32.3288 70.516 32.2491 70.6952 32.1033C70.7925 32.0242 73.0854 30.115 74.1303 26.6764C74.352 25.938 74.5345 25.1884 74.6771 24.4308C74.9436 23.0944 75.043 22.5944 76.6728 21.1535C77.7759 20.1768 80.0085 20.7021 80.0275 20.7074C80.1545 20.7398 80.2867 20.7471 80.4165 20.7286C80.5463 20.7101 80.6712 20.6664 80.7841 20.5998C80.8969 20.5331 80.9955 20.445 81.0742 20.3404C81.1529 20.2358 81.2101 20.1168 81.2427 19.9901C81.2753 19.8634 81.2825 19.7316 81.264 19.6021C81.2455 19.4727 81.2016 19.3481 81.1348 19.2356C81.068 19.1231 80.9797 19.0247 80.8748 18.9462C80.7699 18.8678 80.6506 18.8106 80.5235 18.7782H80.5246Z" fill="#C8C9CA"/>
<path d="M70.0606 33.4777C69.6179 33.4778 69.186 33.3416 68.8238 33.0876C68.4617 32.8337 68.1871 32.4744 68.0374 32.0589C67.8878 31.6433 67.8705 31.1919 67.9878 30.7662C68.1052 30.3404 68.3515 29.9613 68.6931 29.6804C69.8275 28.607 70.6631 27.2582 71.1182 25.7661C71.3085 25.1281 71.4656 24.4806 71.5888 23.8264C71.9886 21.8222 72.3926 20.7421 74.5861 18.8024C75.6066 17.8995 77.0312 17.4216 78.7033 17.4216C79.4156 17.4203 80.1255 17.5025 80.8185 17.6664C81.3237 17.798 81.7636 18.1084 82.0561 18.5397C82.3486 18.971 82.4738 19.4937 82.4083 20.0103C82.3428 20.5269 82.091 21.002 81.7 21.3471C81.309 21.6922 80.8055 21.8835 80.2834 21.8855C80.1032 21.8852 79.9238 21.8625 79.7493 21.818C79.3975 21.7483 79.0398 21.713 78.6811 21.7125C78.1111 21.7125 77.6616 21.818 77.4437 22.0132C76.1048 23.1987 76.054 23.4498 75.8139 24.6501C75.6637 25.445 75.472 26.2316 75.2397 27.0065C74.1122 30.7152 71.703 32.7668 71.4323 32.9883C71.0459 33.3053 70.5609 33.4783 70.0606 33.4777Z" fill="#231815"/>
<path d="M80.5246 18.7782C80.3924 18.7444 77.2682 17.966 75.3497 19.6631C73.3086 21.4679 73.0558 22.3581 72.7195 24.0416C72.5902 24.7356 72.4236 25.4222 72.2203 26.0984C71.3657 28.9115 69.5022 30.5022 69.4272 30.5665C69.2233 30.7343 69.0944 30.9758 69.0688 31.2382C69.0432 31.5006 69.123 31.7624 69.2907 31.9662C69.3841 32.0797 69.5017 32.1712 69.6348 32.2339C69.768 32.2967 69.9134 32.3292 70.0607 32.3291C70.2919 32.3288 70.516 32.2491 70.6952 32.1033C70.7925 32.0242 73.0854 30.115 74.1303 26.6764C74.352 25.938 74.5345 25.1884 74.6771 24.4308C74.9436 23.0944 75.043 22.5944 76.6728 21.1535C77.7759 20.1768 80.0085 20.7021 80.0275 20.7074C80.1545 20.7398 80.2867 20.7471 80.4165 20.7286C80.5463 20.7101 80.6712 20.6664 80.7841 20.5998C80.8969 20.5331 80.9955 20.445 81.0742 20.3404C81.1529 20.2358 81.2101 20.1168 81.2427 19.9901C81.2753 19.8634 81.2825 19.7316 81.264 19.6021C81.2455 19.4727 81.2016 19.3481 81.1348 19.2356C81.068 19.1231 80.9797 19.0247 80.8748 18.9462C80.7699 18.8678 80.6506 18.8106 80.5235 18.7782H80.5246Z" fill="#C8C9CA"/>
</svg>
