<svg width="35" height="34" viewBox="0 0 35 34" fill="none" xmlns="http://www.w3.org/2000/svg">
<path d="M27.1323 7.04025H24.3239V4.23187H10.282V7.04025H7.47366C5.92905 7.04025 4.66528 8.30402 4.66528 9.84862V11.2528C4.66528 14.8335 7.36132 17.7542 10.8297 18.1895C11.7143 20.2958 13.61 21.8825 15.8988 22.3459V26.6989H10.282V29.5072H24.3239V26.6989H18.7072V22.3459C20.996 21.8825 22.8916 20.2958 23.7763 18.1895C27.2446 17.7542 29.9407 14.8335 29.9407 11.2528V9.84862C29.9407 8.30402 28.6769 7.04025 27.1323 7.04025ZM7.47366 11.2528V9.84862H10.282V15.2126C8.65317 14.6229 7.47366 13.0783 7.47366 11.2528ZM27.1323 11.2528C27.1323 13.0783 25.9528 14.6229 24.3239 15.2126V9.84862H27.1323V11.2528Z" fill="#0746A1"/>
</svg>
