<svg width="35" height="34" viewBox="0 0 35 34" fill="none" xmlns="http://www.w3.org/2000/svg">
<path d="M17.2955 30.9114C24.2743 30.9114 29.9331 25.2525 29.9331 18.2737C22.9543 18.2737 17.2955 23.9326 17.2955 30.9114ZM8.30866 14.4122C8.30866 16.35 9.88135 17.9227 11.8191 17.9227C12.5634 17.9227 13.2374 17.698 13.8131 17.3048L13.785 17.5716C13.785 19.5094 15.3577 21.0821 17.2955 21.0821C19.2332 21.0821 20.8059 19.5094 20.8059 17.5716L20.7778 17.3048C21.3395 17.698 22.0276 17.9227 22.7718 17.9227C24.7096 17.9227 26.2823 16.35 26.2823 14.4122C26.2823 13.008 25.4538 11.8144 24.2743 11.2528C25.4538 10.6911 26.2823 9.49754 26.2823 8.09335C26.2823 6.15557 24.7096 4.58288 22.7718 4.58288C22.0276 4.58288 21.3536 4.80755 20.7778 5.20073L20.8059 4.93393C20.8059 2.99615 19.2332 1.42346 17.2955 1.42346C15.3577 1.42346 13.785 2.99615 13.785 4.93393L13.8131 5.20073C13.2514 4.80755 12.5634 4.58288 11.8191 4.58288C9.88135 4.58288 8.30866 6.15557 8.30866 8.09335C8.30866 9.49754 9.13713 10.6911 10.3167 11.2528C9.13713 11.8144 8.30866 13.008 8.30866 14.4122ZM17.2955 7.7423C19.2332 7.7423 20.8059 9.31499 20.8059 11.2528C20.8059 13.1906 19.2332 14.7632 17.2955 14.7632C15.3577 14.7632 13.785 13.1906 13.785 11.2528C13.785 9.31499 15.3577 7.7423 17.2955 7.7423ZM4.65778 18.2737C4.65778 25.2525 10.3167 30.9114 17.2955 30.9114C17.2955 23.9326 11.6366 18.2737 4.65778 18.2737Z" fill="#0746A1"/>
</svg>
