<svg width="110" height="113" viewBox="0 0 110 113" fill="none" xmlns="http://www.w3.org/2000/svg">
<path d="M42.1203 102.244C42.1268 102.048 42.1322 101.854 42.1364 101.661C42.2675 95.4204 41.0535 90.906 38.6147 88.5846C37.0333 87.0798 34.861 86.4369 32.158 86.6742C29.4141 86.9158 26.1534 88.042 22.4609 90.0247C22.346 90.0862 14.8331 94.5488 14.7192 94.6125L20.2306 88.0161C20.3323 87.8802 20.4329 87.7446 20.5325 87.6094C24.8417 81.7358 26.2727 76.7144 24.6698 73.0769C23.0894 69.4859 18.5546 67.2163 11.5456 66.4968C11.4177 66.4827 3.24519 65.2649 3.11627 65.253L10.9182 63.5475L11.2405 63.4602C18.1077 61.5767 22.2256 58.5283 23.1603 54.633C24.1047 50.6979 21.696 45.8598 16.3726 40.984C16.292 40.9106 7.53289 34.2754 7.45554 34.201L17.6618 38.2786L17.9841 38.4048C21.6949 39.833 24.9856 40.4328 27.7725 40.189C30.6195 39.9387 32.7778 38.8104 34.1895 36.8352C35.2091 35.4092 35.829 33.5527 36.032 31.3187C36.2469 28.98 35.9955 26.2724 35.2929 23.265C35.2692 23.1636 33.4611 14.2285 33.4364 14.1261L37.91 21.8238C37.9938 21.959 38.0776 22.0924 38.1614 22.224C41.9151 28.1095 46.1803 31.1504 50.2059 30.7966C54.2766 30.4395 58.0926 26.6155 60.9697 20.0213C61.0073 19.9339 64.5301 11.5544 64.5677 11.4659L63.9156 20.4193C63.907 20.5843 63.8994 20.7429 63.893 20.9101C63.6609 26.6198 64.8599 30.9163 67.3707 33.3542C69.197 35.1244 71.668 35.886 74.7202 35.6195C77.4158 35.3822 80.4196 34.3574 83.6523 32.5732C83.7372 32.5268 92.4426 26.9218 92.5275 26.8744L85.7774 34.6627C85.6979 34.7619 85.6184 34.8612 85.541 34.9604C81.2286 40.4479 79.7288 45.273 81.2007 48.9309C82.7048 52.6708 87.3245 55.1583 94.5505 56.1367C94.674 56.1529 106.576 56.8131 106.701 56.8293L95.1274 59.0881L94.8266 59.1712C87.7649 61.1528 83.5567 64.1754 82.65 67.9228C81.7196 71.7652 84.1648 76.5299 89.7245 81.7099C89.7879 81.7693 89.8513 81.8286 89.9158 81.8868L96.2458 87.452C96.0503 87.3732 87.9787 84.2018 87.7853 84.1284C83.8296 82.6042 80.4229 81.9548 77.6543 82.1986C75.1027 82.423 73.1614 83.4208 71.8851 85.1651C69.7826 88.0409 69.3915 92.9469 70.7505 99.3675C70.7742 99.4818 71.6508 105.724 71.6755 105.84L68.1302 100.828C68.0228 100.657 67.9153 100.486 67.8079 100.319C63.9489 94.4205 59.9007 91.4842 56.0782 91.8197C52.145 92.1649 48.3429 95.9113 45.063 102.66C45.0178 102.751 41.7712 110.909 41.7271 111.003L42.1203 102.244Z" fill="#231815" stroke="#231815" stroke-width="0.767442" stroke-miterlimit="10"/>
<path d="M43.5965 102.298C44.153 85.8069 36.046 80.9019 21.4091 88.9125C31.4123 75.5979 27.1031 66.4557 11.2952 64.9887C27.3663 60.7213 28.9242 50.3041 17.1182 39.6658C32.0183 45.5577 40.5077 38.5288 36.653 22.6155C45.15 36.3153 55.9783 35.4523 62.4372 20.3502C61.5659 36.4889 71.4521 41.1414 84.6246 33.736C74.8137 45.9871 78.3042 55.5801 94.7385 57.6588C78.3075 62.1484 76.8807 71.8892 88.9156 82.9817C73.2226 76.6841 65.7591 83.5275 69.3807 100.033C60.4766 85.9881 50.656 87.5199 43.5965 102.298Z" fill="#FFF100"/>
<path d="M44.9803 96.2759C48.0959 82.7455 36.493 75.7457 26.0525 84.8566C36.4908 75.7457 31.2018 63.2369 17.4233 64.4472C31.2018 63.2369 34.2465 49.9924 22.3911 42.8437C34.2465 49.9956 44.4614 41.0811 39.0574 28.2972C44.4614 41.0811 57.9433 39.8967 61.0546 26.3652C57.939 39.8967 69.5419 46.8954 79.9835 37.7845C69.5452 46.8954 74.8331 59.4042 88.6115 58.1939C74.8331 59.4042 71.7884 72.6487 83.6438 79.7974C71.7884 72.6455 61.5735 81.5611 66.9785 94.3439C61.5735 81.5611 48.0916 82.7455 44.9803 96.2759Z" fill="#D61619"/>
<path d="M58.53 85.2233C56.3673 85.2233 54.0338 84.8523 51.5972 84.1198L51.5134 84.0939L51.435 84.0594C47.1516 82.1479 45.0094 79.4306 44.3024 77.2786C39.224 76.8956 35.8065 75.1514 33.7943 73.7048C31.0676 71.7448 29.4109 69.2378 29.3615 66.9962C29.3143 64.7827 29.8299 63.9909 30.8162 62.992C29.6645 61.5724 28.1507 59.3071 28.1507 56.7096C28.1507 54.112 29.3325 52.6417 30.5068 51.5414C29.0328 50.3754 27.6845 48.4132 27.8499 45.4629C28.0057 42.697 29.4614 41.0175 30.972 40.0908C29.7709 38.8266 28.4859 36.8547 28.6847 34.3391C28.8996 31.6779 30.4756 27.2196 38.7137 27.2196C40.1761 27.2277 41.6356 27.3515 43.0787 27.5896L42.7189 23.8259C41.8239 22.3945 38.6578 16.5306 41.2781 8.85657C43.0315 3.72187 47.5094 1.42419 51.1718 1.42419C54.542 1.42419 57.0098 3.29253 57.3149 6.07347C57.7973 10.4833 57.895 14.7755 57.981 18.5629C58.0938 23.525 58.1958 27.8129 59.1348 29.9444C59.585 30.9595 60.264 32.1968 61.0504 33.6293C63.0111 37.1999 65.6754 42.0541 67.6458 48.5868C68.8823 48.8867 70.5024 49.9471 73.2882 53.7356C76.7648 58.4625 76.6928 68.8193 73.1346 75.8989C70.1103 81.9106 64.9234 85.2233 58.53 85.2233Z" fill="#231815"/>
<path d="M58.5299 85.7626C56.3157 85.7626 53.9307 85.384 51.4393 84.6364L51.2942 84.5879L51.2147 84.5523C46.2416 82.3334 44.4958 79.2925 43.9092 77.7877C38.8651 77.3411 35.4595 75.5687 33.4763 74.1427C30.6131 72.0856 28.8716 69.4179 28.819 67.008C28.7749 64.9434 29.196 63.9671 30.0996 62.9607C28.4462 60.8108 27.6082 58.7094 27.6082 56.7095C27.6082 54.222 28.6095 52.6999 29.7053 51.5683C28.0196 50.0117 27.172 47.8554 27.3084 45.4326C27.4352 43.1673 28.4397 41.259 30.1544 39.9904C29.0467 38.6787 27.952 36.7349 28.1432 34.2959C28.2506 32.9378 28.7115 30.9853 30.3037 29.3964C32.1129 27.5906 34.9406 26.6758 38.7083 26.6758C39.9664 26.6825 41.2226 26.7737 42.4685 26.9487L42.1859 23.9984C41.0987 22.2132 38.1453 16.3395 40.7603 8.68065C42.5996 3.29461 47.3138 0.883667 51.1621 0.883667C54.8149 0.883667 57.5007 2.9451 57.8391 6.01406C58.3248 10.4454 58.4225 14.7517 58.5085 18.5477C58.6159 23.4548 58.7158 27.6909 59.6161 29.7243C60.0566 30.7178 60.7313 31.9464 61.5112 33.3682C63.4451 36.8945 66.0869 41.7024 68.0647 48.1466C69.6902 48.6709 71.4017 50.2739 73.7115 53.414C75.4605 55.7937 76.4081 59.5303 76.3769 63.9369C76.3469 68.2518 75.3359 72.695 73.6041 76.1415C70.4938 82.342 65.1372 85.7626 58.5299 85.7626ZM51.7014 83.5869L51.7541 83.603C54.1391 84.3204 56.4199 84.6817 58.5299 84.6817C64.7106 84.6817 69.7268 81.4747 72.6543 75.6496C74.3142 72.3466 75.2833 68.0727 75.3123 63.924C75.3413 59.8097 74.4453 56.2101 72.8563 54.0494C69.9276 50.0678 68.4085 49.3203 67.52 49.1045L67.2214 49.0323L67.1322 48.7367C65.1791 42.2644 62.5211 37.4188 60.5787 33.8849C59.7859 32.4394 59.1015 31.1881 58.6449 30.1568C57.6576 27.9261 57.5598 23.5896 57.4448 18.5693C57.3589 14.7937 57.2622 10.5112 56.782 6.12624C56.5091 3.63224 54.2541 1.957 51.1728 1.957C47.7027 1.957 43.4547 4.14247 41.7874 9.02583C39.2702 16.3967 42.2171 21.9931 43.1744 23.5324L43.242 23.6403L43.6814 28.2259L42.9949 28.1181C41.5797 27.8863 40.1487 27.7651 38.7148 27.7556C35.2414 27.7556 32.6683 28.5647 31.0676 30.1622C29.7096 31.5182 29.3132 33.2053 29.2208 34.3822C29.036 36.737 30.2833 38.5838 31.3619 39.7197L31.8207 40.203L31.2534 40.5514C30.0308 41.3065 28.5407 42.7714 28.3881 45.4941C28.2238 48.4066 29.6312 50.1617 30.8409 51.1185L31.3318 51.5068L30.8752 51.9383C29.7397 53.0052 28.689 54.3223 28.689 56.7127C28.689 58.5735 29.5484 60.5735 31.233 62.6543L31.5328 63.0329L31.1933 63.3771C30.2769 64.3048 29.8503 64.9639 29.8944 66.9908C29.9395 69.0619 31.5123 71.4135 34.1026 73.2711C36.0192 74.6486 39.3507 76.3702 44.3389 76.7467L44.6967 76.7737L44.8041 77.1156C45.1984 78.3141 46.6541 81.3442 51.6445 83.5717L51.7014 83.5869Z" fill="#231815"/>
<path d="M44.6095 29.2799L44.0423 23.3534C44.0423 23.3534 39.7986 17.4 42.5661 9.29662C45.2907 1.3141 55.4056 1.14582 55.961 6.21903C57.0955 16.5898 56.0685 26.3911 57.8949 30.4902C59.5375 34.2021 63.7834 40.1544 66.51 49.5263C66.798 50.5134 67.5403 48.206 72.1965 54.5381C77.6456 61.9467 74.3538 89.5285 51.9924 82.8005C46.8839 80.5212 45.5367 77.3282 45.4088 75.9614C36.062 75.6249 30.7978 70.2928 30.7279 66.9584C30.6516 63.4623 33.3762 62.7795 33.3762 62.7795C33.3762 62.7795 29.6686 60.6522 29.6686 57.0051C29.6686 52.4497 33.2247 51.4572 33.2247 51.4572C33.2247 51.4572 28.9499 50.2426 29.2142 45.5308C29.4623 41.1231 33.6029 40.5158 33.6029 40.5158C33.6029 40.5158 29.7546 38.1513 30.0468 34.4383C30.7236 25.7848 44.6095 29.2799 44.6095 29.2799Z" fill="white"/>
<path d="M68.2087 65.6878C68.1335 65.6876 68.0586 65.6789 67.9853 65.6619C67.8617 65.6326 67.745 65.5791 67.642 65.5045C67.539 65.4299 67.4516 65.3357 67.3849 65.2272C67.3182 65.1188 67.2734 64.9981 67.2531 64.8723C67.2327 64.7464 67.2373 64.6177 67.2666 64.4936C69.6548 54.3602 62.8617 40.2106 62.7983 40.0682C62.6859 39.8368 62.6697 39.57 62.7532 39.3265C62.8367 39.083 63.0131 38.8828 63.2437 38.77C63.4742 38.6571 63.7399 38.6408 63.9824 38.7247C64.2249 38.8085 64.4242 38.9857 64.5366 39.2171C65.8443 42.034 66.9358 44.9471 67.8016 47.931C69.7709 54.6557 70.2231 60.3783 69.1488 64.9402C69.0987 65.1529 68.9787 65.3423 68.8081 65.478C68.6375 65.6136 68.4264 65.6875 68.2087 65.6878Z" fill="#231815"/>
<path d="M44.991 23.3361C44.991 23.3361 48.2828 25.1311 50.0404 23.5519C54.1229 19.8842 52.2965 4.78216 51.7593 3.81131C51.2222 2.84047 55.3047 3.81131 55.5196 7.58683C55.6367 9.63639 56.379 24.9542 56.7013 27.8667C56.9678 30.2766 56.1642 31.7501 56.1642 31.7501L45.4207 28.7297L44.991 23.3361Z" fill="#E6E6E6"/>
<path d="M51.9881 31.9767C51.9008 31.9771 51.8143 31.9603 51.7335 31.927C44.3335 28.9325 38.387 28.5604 38.3279 28.5561C38.2362 28.5544 38.1458 28.5342 38.0621 28.4966C37.9785 28.459 37.9032 28.4049 37.8409 28.3374C37.7785 28.2699 37.7304 28.1905 37.6993 28.1039C37.6683 28.0173 37.6549 27.9253 37.6602 27.8334C37.6654 27.7415 37.689 27.6516 37.7296 27.5691C37.7703 27.4866 37.8271 27.4132 37.8966 27.3532C37.9662 27.2933 38.0471 27.2481 38.1345 27.2203C38.2219 27.1925 38.314 27.1827 38.4052 27.1915C38.6555 27.2055 44.6203 27.5744 52.2428 30.6585C52.3894 30.7179 52.5109 30.8266 52.5865 30.9661C52.662 31.1056 52.6868 31.2671 52.6567 31.423C52.6266 31.5788 52.5434 31.7193 52.4215 31.8204C52.2995 31.9214 52.1463 31.9766 51.9881 31.9767Z" fill="#231815"/>
<path d="M42.9498 38.1147C48.1066 39.0856 45.7431 38.6541 51.9743 39.7328C58.2055 40.8115 54.3378 44.3173 51.0074 43.8859C47.6769 43.4544 38.2764 41.5666 35.5905 40.0564C32.9047 38.5462 30.4874 36.9281 30.9171 35.3101C31.3469 33.692 35.8999 36.7868 42.9498 38.1147Z" fill="#E6E6E6"/>
<path d="M51.9742 51.4906C58.2409 52.3407 52.78 55.8055 49.4495 55.374C46.119 54.9425 38.2226 53.4863 35.5368 51.9761C32.8509 50.4659 30.352 48.6439 30.9171 47.0679C31.884 44.3711 40.049 49.8726 51.9742 51.4906Z" fill="#E6E6E6"/>
<path d="M42.9497 60.3362C48.1066 61.307 45.743 60.8755 51.9742 61.9542C58.2054 63.033 51.9205 65.2983 48.4826 65.1365C45.1285 64.979 38.2226 64.5971 35.5367 63.0869C32.8509 61.5767 30.4873 59.1496 30.917 57.5315C31.3468 55.9134 35.8999 59.0083 42.9497 60.3362Z" fill="#E6E6E6"/>
<path d="M44.2926 70.4762C49.4494 71.447 47.0859 71.0155 53.3171 72.0943C59.5483 73.173 52.6188 75.708 48.9123 75.708C45.5539 75.708 39.5655 75.1686 36.8796 73.6584C34.1938 72.1482 31.8302 69.2896 32.2599 67.6715C32.6897 66.0534 37.2427 69.1483 44.2926 70.4762Z" fill="#E6E6E6"/>
<path d="M50.9784 46.3422C50.9302 46.3423 50.882 46.3387 50.8344 46.3314C36.3866 44.1621 31.1578 40.9734 30.9429 40.8385C30.7434 40.6949 30.6057 40.4804 30.5578 40.2386C30.51 39.9968 30.5556 39.7458 30.6853 39.5365C30.815 39.3272 31.0192 39.1753 31.2564 39.1116C31.4935 39.0479 31.746 39.0772 31.9625 39.1935C32.0387 39.2399 37.1902 42.3218 51.1202 44.4156C51.3613 44.452 51.5798 44.5785 51.7319 44.7697C51.8841 44.961 51.9587 45.2029 51.9407 45.447C51.9228 45.6912 51.8137 45.9195 51.6352 46.0863C51.4568 46.2531 51.2222 46.346 50.9784 46.3465V46.3422Z" fill="#231815"/>
<path d="M50.9299 58.1163C50.8945 58.1163 50.8601 58.1163 50.8225 58.1109C34.587 56.3461 29.8502 51.7184 29.6579 51.5221C29.4831 51.3387 29.3867 51.0938 29.3895 50.8399C29.3923 50.5861 29.4941 50.3434 29.673 50.164C29.8518 49.9845 30.0936 49.8826 30.3464 49.8799C30.5993 49.8773 30.8431 49.9742 31.0256 50.1499C31.0954 50.2179 35.67 54.5101 51.0309 56.18C51.2874 56.1936 51.5279 56.3089 51.6997 56.5006C51.8715 56.6922 51.9603 56.9446 51.9468 57.202C51.9333 57.4595 51.8184 57.7011 51.6275 57.8735C51.4366 58.046 51.1853 58.1352 50.9289 58.1217L50.9299 58.1163Z" fill="#231815"/>
<path d="M48.9864 67.6339C35.0404 67.6339 30.6678 63.1863 30.4841 62.9954C30.3963 62.9033 30.3274 62.7948 30.2813 62.6759C30.2353 62.5571 30.213 62.4304 30.2157 62.3029C30.2185 62.1754 30.2462 62.0498 30.2973 61.9331C30.3484 61.8163 30.4219 61.7109 30.5136 61.6227C30.6053 61.5345 30.7134 61.4653 30.8318 61.4191C30.9501 61.3729 31.0764 61.3505 31.2033 61.3533C31.3303 61.356 31.4554 61.3838 31.5717 61.4352C31.6879 61.4865 31.7929 61.5603 31.8807 61.6524C31.9108 61.6826 32.9766 62.7311 35.6914 63.7418C38.2387 64.6922 42.7929 65.8 50.0135 65.6835C50.1405 65.6816 50.2666 65.7047 50.3847 65.7517C50.5028 65.7986 50.6105 65.8685 50.7016 65.9572C50.7928 66.046 50.8657 66.1519 50.9161 66.2689C50.9665 66.3859 50.9935 66.5118 50.9955 66.6393C50.9974 66.7668 50.9744 66.8934 50.9276 67.012C50.8809 67.1305 50.8113 67.2387 50.7229 67.3302C50.6345 67.4218 50.529 67.4949 50.4125 67.5456C50.2959 67.5962 50.1706 67.6233 50.0436 67.6252C49.6848 67.631 49.3324 67.6339 48.9864 67.6339Z" fill="#231815"/>
<path d="M48.4805 78.037C41.2771 78.1858 37.0442 76.1632 36.8078 76.0467C36.5773 75.9339 36.4009 75.7337 36.3173 75.4902C36.2338 75.2467 36.2501 74.9799 36.3625 74.7485C36.4749 74.517 36.6743 74.3399 36.9167 74.256C37.1592 74.1722 37.4249 74.1885 37.6555 74.3014C37.6737 74.3111 39.5227 75.1967 42.8026 75.7166C45.8291 76.1967 50.7302 76.4556 56.8884 74.9615C57.013 74.9279 57.143 74.9197 57.2709 74.9373C57.3987 74.9549 57.5217 74.998 57.6327 75.0642C57.7437 75.1303 57.8403 75.218 57.917 75.3222C57.9937 75.4264 58.0488 75.545 58.0792 75.6709C58.1095 75.7968 58.1144 75.9276 58.0937 76.0554C58.0729 76.1833 58.0268 76.3057 57.9582 76.4154C57.8896 76.5251 57.7998 76.62 57.6941 76.6943C57.5884 76.7686 57.469 76.821 57.3428 76.8482C54.4403 77.5657 51.4688 77.9643 48.4805 78.037Z" fill="#231815"/>
<path d="M47.8197 78.3852C47.8197 78.3852 54.9942 78.1382 56.8442 77.5945C62.7176 75.8686 66.1555 73.4231 68.0174 69.1805C69.8792 64.9379 69.9512 64.1461 69.9512 64.1461C69.9512 64.1461 73.3182 66.9508 72.8165 69.9C72.3148 72.8492 70.31 78.6732 65.7258 81.0464C61.1416 83.4196 55.4841 83.3473 52.4039 81.9817C49.3238 80.616 47.8197 78.3852 47.8197 78.3852Z" fill="#E6E6E6"/>
</svg>
