<svg width="115" height="134" viewBox="0 0 115 134" fill="none" xmlns="http://www.w3.org/2000/svg">
<g clip-path="url(#clip0)">
<path d="M32.7468 37.3396C29.0995 42.2167 20.2107 35.6527 20.2107 35.6527C20.2107 35.6527 29.9405 43.15 28.2565 45.9612C26.5725 48.7724 3.74597 42.9621 3.74597 42.9621C3.74597 42.9621 25.6367 51.2089 24.702 54.5827C23.7673 57.9566 11.4177 59.2688 11.4177 59.2688C11.4177 59.2688 25.8243 60.581 25.8243 64.8912C25.8243 69.2015 0.189394 78.012 0.752111 78.1989C1.31483 78.3857 25.0761 70.14 26.0119 74.2634C26.9477 78.3868 15.7204 85.5135 15.7204 85.5135C15.7204 85.5135 27.1342 80.8274 28.6306 83.8265C30.127 86.8257 17.7785 105.381 17.7785 105.381C17.7785 105.381 33.1209 86.6377 36.4888 88.1368C39.8568 89.6358 35.9282 100.508 35.9282 100.508C35.9282 100.508 40.605 90.3822 43.0372 92.2612C45.4694 94.1403 41.1615 116.815 41.1615 116.815C41.1615 116.815 50.3317 95.2604 53.8841 97.1342C57.4365 99.0079 57.0655 133.308 57.0655 133.308C57.0655 133.308 60.9942 98.2584 66.0461 97.1342C71.0981 96.0099 74.0919 108.568 74.0919 108.568C74.0919 108.568 71.0981 94.3229 74.6536 91.5117C78.2091 88.7005 87.9379 94.135 87.9379 94.135C87.9379 94.135 76.5241 83.4518 79.7055 81.7648C82.887 80.0779 99.7258 84.2013 99.7258 84.2013C99.7258 84.2013 86.6291 76.3293 87.9389 72.7685C89.2488 69.2078 101.597 68.2693 101.597 68.2693C101.597 68.2693 90.7452 64.7086 91.1193 60.962C91.4934 57.2155 110.578 49.5282 110.578 49.5282C110.578 49.5282 90.5577 54.7769 89.4353 50.2787C88.313 45.7806 114.327 31.5293 114.327 31.5293C114.327 31.5293 87.0104 44.2742 85.513 40.9004C84.0155 37.5265 90.1908 29.4665 90.1908 29.4665C90.1908 29.4665 80.0828 34.5284 79.3387 31.904C78.5947 29.2797 95.4304 11.8486 95.4304 11.8486C95.4304 11.8486 73.723 27.9675 71.4774 25.9068C69.2317 23.8462 72.039 13.7235 72.039 13.7235C72.039 13.7235 65.3031 25.5321 62.6833 24.4078C60.0636 23.2835 59.1288 0.978516 59.1288 0.978516C59.1288 0.978516 57.0708 27.7817 52.3929 27.4059C47.7151 27.0301 43.0382 15.9731 43.0382 15.9731C43.0382 15.9731 46.4052 28.1564 43.9761 29.2807C41.547 30.405 18.5309 7.72628 18.5309 7.72628C18.5309 7.72628 34.9924 34.3405 32.7468 37.3396Z" fill="#F39800"/>
<path d="M58.6509 23.5866C59.247 25.3915 60.0755 26.6838 61.4562 27.2768C61.9649 27.4951 62.5128 27.6066 63.0662 27.6046C64.5616 27.6046 66.033 26.8561 67.7336 25.1493C68.0212 26.4677 68.5673 27.4668 69.3707 28.2079C69.8688 28.6652 70.7452 29.2111 72.0853 29.2111C73.1117 29.2111 74.6363 28.9449 78.1241 27.0763C76.5912 29.3332 75.8566 31.0745 76.338 32.7604C76.4948 33.3154 76.7695 33.83 77.1433 34.2689C77.517 34.7078 77.981 35.0607 78.5034 35.3033C79.2289 35.6358 80.0202 35.7993 80.8179 35.7814C81.5768 35.769 82.3324 35.6763 83.0718 35.5048C82.8968 35.9502 82.7471 36.3792 82.6227 36.7919C81.9975 38.8881 82.0079 40.6971 82.6613 42.168C83.0625 43.0731 84.1608 44.5919 87.0088 44.5919C87.4058 44.5919 88.0988 44.5919 89.4472 44.3351C86.4617 47.258 85.9615 49.2143 86.4148 51.0286C86.6607 52.0161 87.4715 53.8022 90.1319 54.6614C90.8721 54.8914 91.634 55.0439 92.4056 55.1165C89.1294 57.3776 88.1811 59.0384 88.0206 60.6492C87.7487 63.3706 89.6619 65.4637 91.6033 66.8907C90.8466 67.1177 90.1038 67.3886 89.3784 67.7018C87.0557 68.7206 85.627 70.0244 85.0174 71.6884C84.7162 72.5068 84.5026 73.8305 85.1977 75.4903C85.5457 76.3254 86.0855 77.1605 86.8493 78.0719C87.0036 78.2556 87.1682 78.4414 87.3422 78.6314C85.5228 78.3913 83.7909 78.2358 82.3632 78.2358C80.5469 78.2358 79.237 78.48 78.2512 79.0041C77.6623 79.3123 77.1566 79.7587 76.7772 80.3051C76.3978 80.8515 76.1559 81.4817 76.0723 82.142C75.8743 83.6317 76.4109 85.2842 77.7615 87.3417L77.9261 87.5891C77.7802 87.5891 77.6364 87.5808 77.4947 87.5808C75.5721 87.5808 73.9673 88.0787 72.7262 89.06C71.2579 90.2208 70.3555 92.1269 69.9887 94.9058C69.0002 94.2828 67.8582 93.9478 66.6905 93.9381C66.2481 93.9385 65.8071 93.9875 65.3754 94.0842C63.0985 94.5905 61.8876 96.7765 61.4895 97.4947C60.8174 98.7066 60.1807 100.286 59.5419 102.325C59.3856 102.824 59.2293 103.352 59.073 103.907C59.0417 103.653 59.0101 103.404 58.9782 103.162C58.257 97.7702 57.2723 95.387 55.3424 94.3692C54.7494 94.0551 54.0884 93.892 53.4177 93.8943C52.1453 93.8943 50.9292 94.4371 49.6985 95.553C48.9587 96.2242 48.1917 97.1189 47.3528 98.2912C47.1673 98.55 46.978 98.8236 46.7849 99.1117C46.838 98.3381 46.8724 97.622 46.8891 96.9675C46.9756 93.627 46.6807 91.1217 44.9394 89.7844C44.2059 89.2139 43.3035 88.9045 42.3749 88.9055C41.8172 88.9077 41.2649 89.0139 40.7461 89.2186C40.635 88.7046 40.4632 88.2056 40.2344 87.7321C39.7254 86.6473 38.8467 85.78 37.7564 85.2863C37.2188 85.0488 36.6371 84.9278 36.0495 84.9313C34.7292 84.9313 33.3089 85.494 31.5155 86.7602C32.0896 84.6975 31.9323 83.4542 31.4206 82.4333C31.0486 81.689 30.2858 80.6837 28.7613 80.1231C28.2564 79.9415 27.7316 79.821 27.1982 79.764C27.2336 79.7171 27.268 79.6711 27.3024 79.6252C28.8853 77.481 29.473 75.4496 29.0499 73.5789C28.7238 72.1446 27.6702 71.0047 26.1582 70.4472C25.8889 70.3495 25.6136 70.2697 25.3339 70.2082C26.9314 69.0651 28.9395 67.303 28.9395 64.8968C28.9395 63.3706 28.2652 61.1857 25.0505 59.4497C24.8493 59.3454 24.6399 59.241 24.4252 59.1366C26.2415 58.1261 27.2972 56.9141 27.7088 55.4297C27.9985 54.3858 27.9985 52.7688 26.3541 50.9983C25.9666 50.5889 25.5486 50.2095 25.1036 49.8636H25.187C27.2221 49.8636 29.7137 49.6037 30.9267 47.5785C31.5874 46.4751 32.0469 44.6556 30.687 42.1043C32.5116 41.752 34.1365 40.7236 35.2377 39.2242C36.384 37.698 36.1141 35.8023 35.814 34.5099C35.5472 33.3617 35.0658 31.9628 34.3416 30.2435C33.6173 28.5242 32.6482 26.4792 31.4446 24.1305C33.3537 25.8184 35.0335 27.2454 36.4642 28.3937C40.694 31.7906 42.3415 32.4545 43.7587 32.4545C44.2829 32.4571 44.8014 32.3452 45.2781 32.1267C46.045 31.7718 47.0715 31.0014 47.5988 29.3468C47.6751 29.1069 47.738 28.863 47.7874 28.6161C49.2202 29.78 50.6656 30.4126 52.1422 30.5306C52.2568 30.54 52.3735 30.5452 52.4871 30.5452C53.6136 30.5452 55.2517 30.113 56.6648 28.0566C57.3077 27.117 57.8819 25.8905 58.4227 24.2985C58.4978 24.0751 58.5738 23.8434 58.6478 23.6043L58.6509 23.5866ZM59.1261 0.994507C59.1261 0.994507 57.0962 27.4261 52.4871 27.4261C52.4548 27.4261 52.4225 27.4261 52.3902 27.4261C47.7123 27.0513 43.0355 15.9933 43.0355 15.9933C43.0355 15.9933 46.4025 28.1766 43.9734 29.3009C43.9076 29.3292 43.8366 29.3431 43.765 29.3416C40.4449 29.3416 18.5313 7.74645 18.5313 7.74645C18.5313 7.74645 34.996 34.3659 32.7503 37.3608C31.7614 38.6814 30.3879 39.1637 28.9124 39.1637C24.9379 39.1637 20.2142 35.6739 20.2142 35.6739C20.2142 35.6739 29.944 43.1712 28.26 45.9824C27.9318 46.5294 26.8011 46.7507 25.1943 46.7507C18.549 46.7507 3.74952 42.9833 3.74952 42.9833C3.74952 42.9833 25.6403 51.2301 24.7055 54.604C23.7708 57.9779 11.4212 59.29 11.4212 59.29C11.4212 59.29 25.8278 60.6022 25.8278 64.9125C25.8278 69.2227 0.192934 78.0332 0.755652 78.2201C0.764978 78.2215 0.774463 78.2215 0.783789 78.2201C1.63203 78.2201 16.5764 73.1248 23.0716 73.1248C24.7233 73.1248 25.8268 73.4547 26.0154 74.2815C26.9533 78.4049 15.7239 85.5274 15.7239 85.5274C15.7239 85.5274 22.2744 82.8383 26.1019 82.8383C27.3263 82.8383 28.2715 83.1139 28.6341 83.8405C30.1305 86.8396 17.782 105.395 17.782 105.395C17.782 105.395 31.9667 88.0662 36.0526 88.0662C36.2035 88.0631 36.3533 88.0919 36.4924 88.1507C39.8603 89.6508 35.9317 100.522 35.9317 100.522C35.9317 100.522 39.8499 92.0434 42.378 92.0434C42.6187 92.0433 42.8524 92.125 43.0407 92.2752C45.474 94.1542 41.165 116.829 41.165 116.829C41.165 116.829 49.5849 97.0333 53.4156 97.0333C53.58 97.0318 53.7422 97.0713 53.8876 97.1481C57.4432 99.0271 57.0691 133.322 57.0691 133.322C57.0691 133.322 60.9977 98.2724 66.0496 97.1481C66.2593 97.1012 66.4735 97.0774 66.6884 97.0771C71.3527 97.0771 74.0955 108.582 74.0955 108.582C74.0955 108.582 71.1016 94.3369 74.6571 91.5257C75.3866 90.9473 76.3786 90.7177 77.4926 90.7177C81.7995 90.7177 87.9414 94.149 87.9414 94.149C87.9414 94.149 76.5276 83.4657 79.7091 81.7788C80.2499 81.4927 81.1836 81.3737 82.3622 81.3737C88.1238 81.3737 99.7293 84.2152 99.7293 84.2152C99.7293 84.2152 86.6326 76.3432 87.9425 72.7824C89.2524 69.2217 101.601 68.2832 101.601 68.2832C101.601 68.2832 90.7488 64.7225 91.1229 60.9759C91.497 57.2294 110.581 49.5421 110.581 49.5421C110.581 49.5421 100.771 52.1143 94.5002 52.1143C91.8127 52.1143 89.7755 51.6414 89.4389 50.2927C88.3166 45.7935 114.324 31.5495 114.324 31.5495C114.324 31.5495 93.0205 41.4895 87.0077 41.4895C86.2116 41.4895 85.6843 41.3151 85.5092 40.9205C84.0128 37.5466 90.1871 29.4867 90.1871 29.4867C90.1871 29.4867 83.8159 32.6789 80.8179 32.6789C80.0394 32.6789 79.4892 32.4639 79.335 31.9242C78.5868 29.2998 95.4266 11.8688 95.4266 11.8688C95.4266 11.8688 76.2525 26.1086 72.0843 26.1086C71.8175 26.1086 71.6122 26.0502 71.4767 25.926C69.2321 23.8643 72.0384 13.7426 72.0384 13.7426C72.0384 13.7426 65.9006 24.5021 63.0651 24.5021C62.9339 24.5034 62.8037 24.4778 62.6827 24.4269C60.064 23.3016 59.1282 0.997642 59.1282 0.997642L59.1261 0.994507Z" fill="#E60012"/>
<path d="M57.7663 92.4642C57.2538 92.4624 56.7508 92.3254 56.3079 92.0671C55.865 91.8087 55.4979 91.438 55.2434 90.9923C53.3365 90.652 51.6775 89.9317 50.3092 88.8512C49.2182 87.989 48.7149 87.1977 48.6617 87.1111C48.4479 86.765 48.3294 86.3683 48.3182 85.9614C48.3071 85.5546 48.4036 85.152 48.5982 84.7946C48.414 84.4563 48.3175 84.0771 48.3175 83.6918C48.3175 83.3064 48.414 82.9272 48.5982 82.5889C48.414 82.2506 48.3175 81.8714 48.3175 81.486C48.3175 81.1007 48.414 80.7215 48.5982 80.3831C48.4138 80.0447 48.3172 79.6653 48.3172 79.2797C48.3172 78.8942 48.4138 78.5148 48.5982 78.1763C48.3838 77.7768 48.2907 77.3233 48.3303 76.8715C48.3699 76.4197 48.5405 75.9893 48.8212 75.6334C48.7889 75.553 48.7691 75.4966 48.7586 75.4674L48.6544 75.1438L48.7409 74.2753C48.6367 73.5184 48.0438 70.1654 45.6199 66.4888C39.5665 57.3098 38.1108 47.7279 41.7247 40.8601C44.5247 35.5362 50.0873 32.5391 57.3891 32.4149H57.9393C65.2556 32.5391 70.8224 35.5383 73.6224 40.8601C77.2363 47.7289 75.7795 57.3098 69.7272 66.4888C67.4346 69.9577 66.7854 73.1176 66.626 74.1375L66.7302 74.5102L66.7114 74.7899C66.6916 74.981 66.6568 75.1702 66.6072 75.3557C66.9935 75.7019 67.2516 76.1687 67.3398 76.6803C67.4279 77.1919 67.3409 77.7184 67.0928 78.1742C67.2771 78.5127 67.3737 78.8921 67.3737 79.2776C67.3737 79.6632 67.2771 80.0426 67.0928 80.381C67.2776 80.7192 67.3745 81.0984 67.3745 81.4839C67.3745 81.8694 67.2776 82.2487 67.0928 82.5868C67.2776 82.9249 67.3745 83.3042 67.3745 83.6897C67.3745 84.0752 67.2776 84.4544 67.0928 84.7926C67.2873 85.1499 67.3839 85.5525 67.3728 85.9593C67.3616 86.3662 67.2431 86.7629 67.0293 87.109C66.974 87.1987 66.4592 88.0067 65.339 88.8836C63.9343 89.9797 62.2305 90.6989 60.2714 91.0215C60.0148 91.4592 59.6489 91.8223 59.2097 92.0753C58.7704 92.3283 58.273 92.4623 57.7663 92.4642Z" fill="#231815"/>
<path d="M60.2443 89.56C60.2443 90.0506 60.0991 90.5301 59.827 90.938C59.5549 91.3459 59.1682 91.6638 58.7158 91.8515C58.2634 92.0392 57.7656 92.0883 57.2853 91.9926C56.805 91.8969 56.3638 91.6607 56.0175 91.3138C55.6713 90.967 55.4355 90.525 55.3399 90.0439C55.2444 89.5628 55.2934 89.0641 55.4808 88.6108C55.6682 88.1576 55.9856 87.7703 56.3928 87.4977C56.7999 87.2252 57.2786 87.0797 57.7683 87.0797C58.425 87.0797 59.0548 87.341 59.5191 87.8062C59.9834 88.2713 60.2443 88.9022 60.2443 89.56Z" fill="#040000"/>
<path d="M57.2797 90.6279V90.6185C51.4441 90.4097 49.2557 86.9544 49.1578 86.8031C49.0379 86.6107 48.957 86.3966 48.9197 86.173C48.8824 85.9493 48.8895 85.7205 48.9405 85.4996C48.9915 85.2787 49.0854 85.07 49.2169 84.8855C49.3484 84.7009 49.5149 84.5441 49.7069 84.424C49.8989 84.3039 50.1127 84.2229 50.3359 84.1856C50.5592 84.1482 50.7876 84.1553 51.0081 84.2064C51.2286 84.2575 51.437 84.3516 51.6212 84.4833C51.8054 84.615 51.9619 84.7818 52.0818 84.9742C52.136 85.0556 53.5751 87.1747 57.8382 87.1747H57.8538C62.1169 87.1747 63.556 85.0556 63.6154 84.9658C63.8588 84.584 64.2424 84.3135 64.6833 84.2127C65.1242 84.1119 65.5869 84.189 65.9715 84.4272C66.3603 84.6678 66.6378 85.0532 66.7433 85.4986C66.8488 85.944 66.7736 86.4131 66.5343 86.8031C66.4394 86.9565 64.1886 90.4943 58.1977 90.6248L57.2797 90.6279Z" fill="#040000"/>
<path d="M58.1935 90.7887H57.2796C57.2584 90.7889 57.2375 90.7846 57.2181 90.7762C51.3387 90.5434 49.115 87.037 49.0222 86.8877C48.8911 86.6773 48.8025 86.4431 48.7617 86.1985C48.7209 85.9539 48.7286 85.7036 48.7843 85.4619C48.84 85.2203 48.9427 84.992 49.0865 84.7901C49.2304 84.5882 49.4125 84.4166 49.6224 84.2852C49.8324 84.1538 50.0662 84.0652 50.3104 84.0243C50.5546 83.9834 50.8045 83.9911 51.0457 84.0469C51.2869 84.1027 51.5148 84.2056 51.7164 84.3497C51.9179 84.4937 52.0892 84.6762 52.2203 84.8865C52.2766 84.9711 53.6678 87.0129 57.8475 87.0129H57.8631C62.0419 87.0129 63.4341 84.9627 63.4903 84.8761C63.7571 84.46 64.1762 84.1654 64.6576 84.0557C65.1389 83.946 65.644 84.0299 66.0642 84.2894C66.4884 84.5527 66.7912 84.9736 66.9062 85.46C67.0212 85.9464 66.9392 86.4586 66.678 86.8845C66.5832 87.038 64.2938 90.6374 58.2372 90.7814C58.2231 90.7862 58.2084 90.7887 58.1935 90.7887ZM57.3348 90.4756H58.1601C58.1701 90.474 58.1803 90.474 58.1904 90.4756C64.0989 90.3472 66.306 86.8772 66.3977 86.729C66.5442 86.4917 66.6247 86.2195 66.631 85.9406C66.6373 85.6617 66.569 85.3861 66.4334 85.1425C66.2977 84.8988 66.0995 84.6959 65.8592 84.5548C65.619 84.4136 65.3455 84.3393 65.067 84.3395C64.8042 84.3376 64.5452 84.4029 64.3146 84.5291C64.0839 84.6553 63.8892 84.8383 63.7488 85.0609C63.6862 85.1569 62.2013 87.3449 57.8527 87.3449H57.8371C53.4937 87.3449 52.0088 85.1652 51.9484 85.0723C51.7289 84.7195 51.3785 84.4684 50.9743 84.3743C50.57 84.2803 50.1451 84.3509 49.7928 84.5707C49.4406 84.7906 49.19 85.1416 49.0961 85.5465C49.0021 85.9515 49.0727 86.3772 49.2921 86.7301C49.3807 86.8741 51.5315 90.2626 57.2837 90.4693C57.3007 90.4669 57.318 90.4672 57.3348 90.4703V90.4756Z" fill="#040000"/>
<path d="M65.6703 84.9178C65.413 84.7579 65.1031 84.7064 64.808 84.7747C64.513 84.8429 64.257 85.0254 64.0957 85.2821C64.0155 85.4042 62.4149 87.7519 57.8538 87.7519V87.7791L57.8381 87.7519C53.277 87.7519 51.6753 85.4042 51.5961 85.2821C51.4347 85.0231 51.1772 84.8389 50.8803 84.7701C50.5833 84.7013 50.2712 84.7535 50.0127 84.9152C49.7541 85.0768 49.5703 85.3348 49.5016 85.6323C49.4329 85.9297 49.485 86.2424 49.6464 86.5014C49.736 86.6465 51.9025 90.0506 57.8381 90.0506L57.8538 90.0193V90.0506C63.7936 90.0506 65.9559 86.6433 66.0444 86.5014C66.124 86.3729 66.1774 86.2299 66.2017 86.0807C66.2259 85.9314 66.2205 85.7789 66.1857 85.6317C66.151 85.4846 66.0876 85.3458 65.9991 85.2232C65.9107 85.1007 65.7989 84.9969 65.6703 84.9178Z" fill="#999899"/>
<path d="M57.8538 90.1498H57.8381C51.8556 90.1498 49.6558 86.6987 49.5652 86.5525C49.3943 86.272 49.3408 85.9353 49.4163 85.6156C49.4918 85.2958 49.6903 85.0188 49.9685 84.8447C50.2467 84.6706 50.5823 84.6135 50.9022 84.6859C51.2222 84.7582 51.5008 84.9541 51.6774 85.231C51.741 85.3291 53.3166 87.656 57.8381 87.656H57.8538C62.3753 87.656 63.9509 85.3291 64.0155 85.2299C64.1937 84.9564 64.472 84.7637 64.7904 84.6934C65.1089 84.6232 65.4422 84.6808 65.7186 84.854C65.9951 85.0272 66.1928 85.3022 66.2691 85.6198C66.3454 85.9374 66.2943 86.2723 66.1267 86.5525C66.0361 86.6987 63.8405 90.1498 57.8538 90.1498ZM50.6229 84.8426C50.4355 84.8427 50.2514 84.8928 50.0899 84.9879C49.9283 85.083 49.795 85.2196 49.7037 85.3836C49.6125 85.5476 49.5666 85.733 49.5708 85.9207C49.575 86.1084 49.6292 86.2916 49.7277 86.4513C49.8163 86.5943 51.9473 89.9369 57.7829 89.9577C57.7945 89.9452 57.8091 89.9359 57.8254 89.9308C57.8417 89.9257 57.859 89.9249 57.8757 89.9285C57.8944 89.9335 57.9113 89.9436 57.9246 89.9577C63.7519 89.9306 65.8756 86.5943 65.9631 86.4513C66.1087 86.2139 66.1547 85.9286 66.0911 85.6574C66.0275 85.3862 65.8594 85.1512 65.6235 85.0037C65.3877 84.8561 65.1031 84.8079 64.832 84.8697C64.5608 84.9314 64.325 85.0981 64.176 85.3333C64.1083 85.4377 62.4941 87.824 57.9236 87.847C57.9119 87.8597 57.8967 87.8684 57.8798 87.872C57.8638 87.8763 57.8469 87.8764 57.8308 87.8722C57.8147 87.868 57.8 87.8596 57.7881 87.848C53.203 87.8303 51.5847 85.4377 51.518 85.3343C51.4228 85.1829 51.2906 85.0584 51.134 84.9723C50.9774 84.8863 50.8015 84.8417 50.6229 84.8426Z" fill="#040000"/>
<path d="M57.2796 88.4231V88.4127C51.444 88.2039 49.2557 84.7496 49.1577 84.5972C48.925 84.209 48.8539 83.7448 48.9596 83.3046C49.0653 82.8643 49.3395 82.4833 49.7229 82.2436C50.1064 82.0039 50.5685 81.9247 51.0097 82.023C51.4509 82.1214 51.8359 82.3894 52.0818 82.7693C52.1359 82.8508 53.575 84.9699 57.8382 84.9699H57.8538C62.1169 84.9699 63.556 82.8508 63.6154 82.7599C63.8635 82.3832 64.249 82.1187 64.6894 82.0232C65.1297 81.9276 65.5899 82.0086 65.9714 82.2488C66.3529 82.489 66.6253 82.8693 66.7303 83.3083C66.8353 83.7472 66.7645 84.2099 66.5332 84.5972C66.4384 84.7507 64.1875 88.2884 58.1966 88.4189L57.2796 88.4231Z" fill="#040000"/>
<path d="M58.1935 88.5829H57.2796C57.2585 88.583 57.2375 88.5788 57.2181 88.5703C51.3419 88.3376 49.115 84.8311 49.0223 84.6818C48.7578 84.257 48.6726 83.7443 48.7854 83.2565C48.8983 82.7687 49.1999 82.3459 49.624 82.0809C50.0481 81.816 50.5599 81.7306 51.0468 81.8437C51.5337 81.9567 51.9559 82.2589 52.2204 82.6838C52.2756 82.7683 53.6647 84.8102 57.8475 84.8102H57.8632C62.0471 84.8102 63.4341 82.76 63.4903 82.6723C63.7569 82.2563 64.1759 81.9617 64.657 81.852C65.1382 81.7423 65.6431 81.8262 66.0632 82.0856C66.4878 82.3487 66.791 82.7698 66.9063 83.2564C67.0215 83.7431 66.9394 84.2557 66.678 84.6818C66.5832 84.8353 64.2938 88.4398 58.2373 88.5776C58.223 88.5817 58.2083 88.5835 58.1935 88.5829ZM57.3348 88.2634H58.1602H58.1914C64.1 88.135 66.3071 84.6651 66.3988 84.5169C66.5455 84.2796 66.6263 84.0073 66.6327 83.7282C66.6391 83.4491 66.5709 83.1734 66.4352 82.9296C66.2995 82.6858 66.1011 82.4827 65.8608 82.3415C65.6204 82.2003 65.3467 82.126 65.068 82.1263C64.8051 82.1247 64.5462 82.1901 64.3155 82.3165C64.0849 82.4429 63.8902 82.626 63.7498 82.8487C63.6873 82.9437 62.2076 85.1317 57.8538 85.1317H57.8382C53.4917 85.1317 52.0099 82.9521 51.9494 82.8591C51.8408 82.6844 51.6988 82.5329 51.5317 82.4131C51.3646 82.2933 51.1755 82.2077 50.9754 82.1612C50.7752 82.1146 50.5678 82.1079 50.3651 82.1416C50.1624 82.1753 49.9683 82.2487 49.7939 82.3576C49.6195 82.4664 49.4682 82.6086 49.3486 82.776C49.2291 82.9434 49.1436 83.1328 49.0971 83.3333C49.0506 83.5338 49.044 83.7416 49.0777 83.9446C49.1113 84.1477 49.1845 84.3421 49.2932 84.5169C49.3818 84.6609 51.5347 88.0494 57.2848 88.2572C57.3017 88.2566 57.3186 88.2587 57.3348 88.2634Z" fill="#040000"/>
<path d="M65.6703 82.7109C65.4129 82.5511 65.1028 82.4998 64.8078 82.5683C64.5128 82.6367 64.2568 82.8194 64.0957 83.0763C64.0155 83.1974 62.4149 85.5451 57.8537 85.5451V85.5733L57.8381 85.5451C53.277 85.5451 51.6753 83.1974 51.5961 83.0763C51.4347 82.8173 51.1772 82.6331 50.8803 82.5643C50.5833 82.4955 50.2712 82.5477 50.0127 82.7093C49.7541 82.871 49.5703 83.129 49.5016 83.4265C49.4329 83.7239 49.485 84.0365 49.6464 84.2955C49.736 84.4406 51.9025 87.8448 57.8381 87.8448L57.8537 87.8124V87.8448C63.7935 87.8448 65.9558 84.4375 66.0444 84.2955C66.1241 84.167 66.1777 84.024 66.202 83.8746C66.2264 83.7253 66.221 83.5726 66.1862 83.4253C66.1515 83.2781 66.088 83.1391 65.9994 83.0165C65.9109 82.8939 65.799 82.7901 65.6703 82.7109Z" fill="#999899"/>
<path d="M57.8538 87.944H57.8381C51.8577 87.944 49.6558 84.4929 49.5651 84.3457C49.3995 84.0653 49.3499 83.7312 49.4269 83.4147C49.504 83.0982 49.7016 82.8244 49.9775 82.6519C50.2533 82.4795 50.5856 82.422 50.9033 82.4917C51.221 82.5614 51.4988 82.7529 51.6774 83.0251C51.741 83.1222 53.3187 85.4491 57.8381 85.4491H57.8538C62.3732 85.4491 63.9509 83.1222 64.0155 83.0241C64.195 82.7538 64.4727 82.5642 64.7895 82.4957C65.1063 82.4272 65.4373 82.4852 65.7122 82.6572C65.987 82.8293 66.1841 83.1019 66.2615 83.4172C66.3389 83.7324 66.2906 84.0655 66.1267 84.3457C66.0361 84.4929 63.8373 87.944 57.8538 87.944ZM50.6228 82.6357C50.4355 82.6363 50.2518 82.6869 50.0904 82.7822C49.9291 82.8775 49.796 83.0141 49.7048 83.1781C49.6137 83.342 49.5677 83.5273 49.5718 83.7149C49.5758 83.9025 49.6296 84.0856 49.7277 84.2454C49.8163 84.3874 51.9494 87.731 57.7829 87.7519C57.7942 87.739 57.8088 87.7295 57.8252 87.7243C57.8415 87.7192 57.859 87.7186 57.8756 87.7227C57.8948 87.7267 57.912 87.737 57.9246 87.7519C63.7487 87.7248 65.8756 84.3874 65.9631 84.2454C66.1087 84.0081 66.1547 83.7227 66.0911 83.4515C66.0275 83.1804 65.8594 82.9454 65.6235 82.7978C65.3877 82.6503 65.1031 82.6021 64.832 82.6638C64.5608 82.7256 64.325 82.8922 64.176 83.1274C64.1082 83.2318 62.492 85.6182 57.9236 85.6411C57.9116 85.6534 57.8965 85.6621 57.8798 85.6662C57.8637 85.6704 57.8467 85.6703 57.8306 85.6659C57.8146 85.6615 57.7999 85.6529 57.7881 85.6411C53.203 85.6234 51.5847 83.2308 51.518 83.1285C51.4229 82.9768 51.2909 82.852 51.1342 82.7658C50.9776 82.6796 50.8016 82.6348 50.6228 82.6357Z" fill="#040000"/>
<path d="M57.2796 86.2173V86.2069C51.4441 85.9981 49.2557 82.5428 49.1578 82.3915C49.0379 82.1991 48.957 81.985 48.9197 81.7614C48.8824 81.5377 48.8895 81.3089 48.9405 81.088C48.9915 80.8671 49.0854 80.6584 49.2169 80.4738C49.3484 80.2893 49.5149 80.1325 49.7069 80.0124C49.8989 79.8923 50.1127 79.8113 50.3359 79.7739C50.5592 79.7366 50.7876 79.7437 51.0081 79.7948C51.2286 79.8458 51.437 79.9399 51.6212 80.0717C51.8054 80.2034 51.9619 80.3702 52.0818 80.5625C52.136 80.644 53.5751 82.7641 57.8382 82.7641H57.8538C62.1169 82.7641 63.556 80.644 63.6154 80.5542C63.8635 80.1774 64.249 79.9129 64.6894 79.8174C65.1298 79.7219 65.59 79.8029 65.9714 80.0431C66.3529 80.2833 66.6253 80.6636 66.7303 81.1025C66.8353 81.5415 66.7646 82.0041 66.5332 82.3915C66.4384 82.5449 64.1875 86.0827 58.1967 86.2132L57.2796 86.2173Z" fill="#040000"/>
<path d="M58.1935 86.376H57.2796C57.2586 86.3761 57.2377 86.3722 57.2181 86.3646C51.3408 86.1307 49.115 82.6253 49.0222 82.475C48.7717 82.0511 48.6967 81.5458 48.8132 81.0672C48.9297 80.5886 49.2284 80.1747 49.6456 79.9139C50.0628 79.653 50.5652 79.566 51.0456 79.6714C51.5259 79.7769 51.9461 80.0663 52.2162 80.478C52.2724 80.5626 53.6636 82.6044 57.8434 82.6044H57.859C62.0429 82.6044 63.4299 80.5542 63.4862 80.4665C63.6554 80.199 63.8897 79.979 64.1672 79.8273C64.4446 79.6755 64.7561 79.597 65.0722 79.599C65.4073 79.599 65.7364 79.6885 66.0254 79.8585C66.3144 80.0284 66.5529 80.2726 66.7162 80.5658C66.8794 80.859 66.9616 81.1905 66.9542 81.5262C66.9467 81.8618 66.85 82.1894 66.6739 82.475C66.579 82.6284 64.2927 86.2278 58.2331 86.3719C58.2202 86.3752 58.2068 86.3766 58.1935 86.376ZM57.3348 86.0629H58.1601C58.1702 86.0618 58.1803 86.0618 58.1904 86.0629C64.101 85.9345 66.306 82.4645 66.3977 82.3174C66.5445 82.0801 66.6252 81.8078 66.6317 81.5287C66.6381 81.2496 66.5699 80.9739 66.4342 80.73C66.2984 80.4862 66.1001 80.2832 65.8597 80.142C65.6194 80.0008 65.3457 79.9265 65.067 79.9268C64.8042 79.9252 64.5454 79.9906 64.3148 80.1168C64.0842 80.243 63.8894 80.4258 63.7488 80.6482C63.6862 80.7442 62.2065 82.9322 57.8527 82.9322H57.8371C53.4938 82.9322 52.0088 80.7526 51.9484 80.6596C51.8397 80.4849 51.6978 80.3334 51.5306 80.2136C51.3635 80.0938 51.1745 80.0082 50.9743 79.9616C50.7741 79.9151 50.5668 79.9084 50.3641 79.9421C50.1613 79.9758 49.9672 80.0492 49.7928 80.158C49.6184 80.2669 49.4671 80.4091 49.3476 80.5765C49.228 80.7439 49.1426 80.9333 49.0961 81.1338C49.0496 81.3343 49.0429 81.5421 49.0766 81.7451C49.1102 81.9482 49.1835 82.1426 49.2921 82.3174C49.3807 82.4614 51.5336 85.8499 57.2838 86.0566C57.3007 86.0542 57.318 86.0545 57.3348 86.0576V86.0629Z" fill="#040000"/>
<path d="M65.6703 80.502C65.4129 80.3422 65.1028 80.291 64.8078 80.3594C64.5128 80.4279 64.2568 80.6105 64.0957 80.8674C64.0155 80.9885 62.4149 83.3362 57.8537 83.3362V83.3644L57.8381 83.3362C53.277 83.3362 51.6753 80.9885 51.5961 80.8674C51.4347 80.6084 51.1772 80.4242 50.8803 80.3554C50.5833 80.2866 50.2712 80.3388 50.0127 80.5005C49.7541 80.6622 49.5703 80.9201 49.5016 81.2176C49.4329 81.5151 49.485 81.8277 49.6464 82.0867C49.736 82.2308 51.9025 85.636 57.8381 85.636L57.8537 85.6046V85.636C63.7935 85.636 65.9558 82.2287 66.0444 82.0867C66.1241 81.9582 66.1777 81.8151 66.202 81.6658C66.2264 81.5164 66.221 81.3637 66.1862 81.2165C66.1515 81.0692 66.088 80.9303 65.9994 80.8077C65.9109 80.6851 65.799 80.5812 65.6703 80.502Z" fill="#999899"/>
<path d="M57.8538 85.7372H57.8381C51.8556 85.7372 49.6558 82.2871 49.5651 82.1399C49.3995 81.8596 49.3499 81.5254 49.4269 81.2089C49.504 80.8924 49.7016 80.6187 49.9775 80.4462C50.2533 80.2737 50.5856 80.2162 50.9033 80.2859C51.221 80.3557 51.4988 80.5471 51.6774 80.8194C51.741 80.9165 53.3187 83.2433 57.8381 83.2433H57.8538C62.3732 83.2433 63.9509 80.9165 64.0155 80.8173C64.1937 80.5437 64.472 80.3511 64.7904 80.2808C65.1089 80.2105 65.4422 80.2682 65.7186 80.4414C65.9951 80.6146 66.1927 80.8895 66.2691 81.2071C66.3454 81.5247 66.2943 81.8596 66.1267 82.1399C66.0361 82.2871 63.8405 85.7372 57.8538 85.7372ZM50.6228 80.43C50.4354 80.43 50.2514 80.4802 50.0898 80.5753C49.9282 80.6704 49.7949 80.807 49.7037 80.971C49.6124 81.135 49.5666 81.3204 49.5708 81.5081C49.575 81.6958 49.6292 81.879 49.7277 82.0387C49.8163 82.1817 51.9473 85.5243 57.7829 85.5451C57.7945 85.5326 57.8092 85.5234 57.8255 85.5184C57.8418 85.5135 57.8591 85.513 57.8756 85.5169C57.8945 85.521 57.9116 85.5309 57.9246 85.5451C63.7519 85.519 65.8756 82.1817 65.9631 82.0387C66.1031 81.8015 66.1449 81.5189 66.0796 81.2512C66.0143 80.9836 65.8472 80.7521 65.6138 80.6063C65.3805 80.4604 65.0995 80.4118 64.8308 80.4707C64.5621 80.5297 64.3271 80.6915 64.176 80.9217C64.1083 81.0261 62.492 83.4114 57.9236 83.4354C57.9113 83.4472 57.8962 83.4558 57.8798 83.4605C57.8637 83.4644 57.8468 83.4642 57.8307 83.4598C57.8147 83.4554 57.8 83.447 57.7881 83.4354C53.203 83.4166 51.5847 81.025 51.518 80.9227C51.4229 80.7711 51.2909 80.6463 51.1342 80.56C50.9776 80.4738 50.8016 80.4291 50.6228 80.43Z" fill="#040000"/>
<path d="M57.2797 84.0106V84.0002C51.4441 83.7914 49.2557 80.3371 49.1578 80.1858C49.0379 79.9934 48.957 79.7793 48.9197 79.5557C48.8824 79.332 48.8895 79.1032 48.9405 78.8823C48.9915 78.6614 49.0854 78.4527 49.2169 78.2681C49.3484 78.0836 49.5149 77.9268 49.7069 77.8067C49.8989 77.6866 50.1127 77.6056 50.3359 77.5683C50.5592 77.5309 50.7876 77.538 51.0081 77.5891C51.2286 77.6402 51.437 77.7343 51.6212 77.866C51.8054 77.9977 51.9619 78.1645 52.0818 78.3568C52.136 78.4383 53.5751 80.5574 57.8382 80.5574H57.8538C62.1169 80.5574 63.556 78.4383 63.6154 78.3475C63.8616 77.9661 64.2479 77.6973 64.6905 77.5992C65.1332 77.5011 65.5966 77.5817 65.9804 77.8235C66.3641 78.0653 66.6373 78.4488 66.7408 78.8909C66.8443 79.3331 66.7697 79.7983 66.5332 80.1858C66.4384 80.3392 64.1875 83.877 58.1967 84.0064L57.2797 84.0106Z" fill="#040000"/>
<path d="M58.1935 84.1703H57.2796C57.2584 84.1705 57.2375 84.1662 57.2181 84.1578C51.3419 83.925 49.115 80.4185 49.0222 80.2693C48.7672 79.8452 48.6889 79.3378 48.8041 78.8564C48.9192 78.375 49.2187 77.9582 49.6378 77.696C50.057 77.4338 50.5622 77.3471 51.0446 77.4548C51.5269 77.5624 51.9477 77.8556 52.2162 78.2712C52.2724 78.3558 53.6636 80.3977 57.8433 80.3977H57.859C62.0429 80.3977 63.4299 78.3474 63.4861 78.2608C63.7524 77.8444 64.1713 77.5495 64.6525 77.4395C65.1338 77.3296 65.6389 77.4135 66.059 77.6731C66.4837 77.9362 66.7868 78.3572 66.9021 78.8439C67.0173 79.3305 66.9352 79.8431 66.6738 80.2693C66.579 80.4227 64.2927 84.0273 58.2331 84.1651C58.2202 84.1687 58.2068 84.1705 58.1935 84.1703ZM57.3348 83.8509H58.1601H58.1914C64.102 83.7225 66.307 80.2526 66.3987 80.1043C66.5452 79.867 66.6258 79.5949 66.632 79.3159C66.6383 79.037 66.5701 78.7615 66.4344 78.5178C66.2987 78.2742 66.1005 78.0713 65.8603 77.9301C65.62 77.7889 65.3465 77.7146 65.068 77.7148C64.8052 77.713 64.5462 77.7782 64.3156 77.9044C64.085 78.0306 63.8902 78.2136 63.7498 78.4362C63.6873 78.5312 62.2075 80.7202 57.8538 80.7202H57.8381C53.4948 80.7202 52.0098 78.5406 51.9494 78.4477C51.7301 78.0948 51.3798 77.8437 50.9757 77.7495C50.5716 77.6553 50.1466 77.7259 49.7944 77.9455C49.4421 78.1652 49.1915 78.5161 49.0975 78.9209C49.0035 79.3258 49.0739 79.7515 49.2932 80.1043C49.3817 80.2484 51.5357 83.6379 57.2848 83.8446C57.3017 83.8445 57.3185 83.8466 57.3348 83.8509Z" fill="#040000"/>
<path d="M65.6703 78.2994C65.413 78.1395 65.1031 78.088 64.808 78.1563C64.513 78.2245 64.257 78.4069 64.0957 78.6637C64.0155 78.7848 62.4149 81.1336 57.8538 81.1336V81.1607L57.8381 81.1336C53.277 81.1336 51.6753 78.7848 51.5961 78.6637C51.4347 78.4047 51.1772 78.2205 50.8803 78.1517C50.5833 78.0829 50.2712 78.1351 50.0127 78.2967C49.7541 78.4584 49.5703 78.7164 49.5016 79.0139C49.4329 79.3113 49.485 79.624 49.6464 79.883C49.736 80.0281 51.9025 83.4322 57.8381 83.4322L57.8538 83.4009V83.4322C63.7936 83.4322 65.9559 80.0249 66.0444 79.883C66.124 79.7545 66.1774 79.6115 66.2017 79.4623C66.2259 79.313 66.2205 79.1604 66.1857 79.0133C66.151 78.8662 66.0876 78.7274 65.9991 78.6048C65.9107 78.4823 65.7989 78.3785 65.6703 78.2994Z" fill="#999899"/>
<path d="M57.8538 83.5293H57.8381C51.8577 83.5293 49.6558 80.0782 49.5651 79.931C49.3995 79.6507 49.3499 79.3165 49.4269 79C49.504 78.6835 49.7016 78.4098 49.9775 78.2373C50.2533 78.0648 50.5856 78.0073 50.9033 78.077C51.221 78.1467 51.4988 78.3382 51.6774 78.6105C51.741 78.7086 53.3187 81.0354 57.8381 81.0354H57.8538C62.3732 81.0354 63.9509 78.7086 64.0155 78.6094C64.195 78.3391 64.4727 78.1496 64.7895 78.0811C65.1063 78.0126 65.4373 78.0705 65.7122 78.2425C65.987 78.4146 66.1841 78.6872 66.2615 79.0025C66.3389 79.3178 66.2906 79.6509 66.1267 79.931C66.0361 80.0845 63.8373 83.5293 57.8538 83.5293ZM50.6228 78.2211C50.4355 78.2217 50.2518 78.2722 50.0904 78.3675C49.9291 78.4628 49.796 78.5995 49.7048 78.7634C49.6137 78.9273 49.5677 79.1126 49.5718 79.3002C49.5758 79.4878 49.6296 79.6709 49.7277 79.8308C49.8163 79.9738 51.9494 83.3164 57.7829 83.3372C57.7943 83.3245 57.809 83.3151 57.8253 83.31C57.8416 83.3048 57.859 83.3042 57.8756 83.308C57.8946 83.3124 57.9117 83.3226 57.9246 83.3372C63.7498 83.3101 65.8756 79.9727 65.9631 79.8308C66.1087 79.5934 66.1547 79.308 66.0911 79.0369C66.0275 78.7657 65.8594 78.5307 65.6235 78.3831C65.3877 78.2356 65.1031 78.1874 64.832 78.2492C64.5608 78.3109 64.325 78.4776 64.176 78.7128C64.1082 78.8171 62.492 81.2035 57.9236 81.2265C57.9116 81.2388 57.8965 81.2474 57.8798 81.2515C57.8637 81.2559 57.8467 81.2559 57.8306 81.2515C57.8144 81.2471 57.7998 81.2385 57.7881 81.2265C53.203 81.2087 51.5847 78.8172 51.518 78.7148C51.423 78.5633 51.2909 78.4385 51.1342 78.3525C50.9775 78.2664 50.8015 78.2219 50.6228 78.2232V78.2211Z" fill="#040000"/>
<path d="M57.2796 81.8049V81.7945C51.4441 81.5857 49.2557 78.1314 49.1578 77.979C49.0379 77.7867 48.957 77.5726 48.9197 77.3489C48.8824 77.1253 48.8895 76.8964 48.9405 76.6755C48.9915 76.4546 49.0854 76.2459 49.2169 76.0614C49.3484 75.8768 49.5149 75.72 49.7069 75.5999C49.8989 75.4798 50.1127 75.3988 50.3359 75.3615C50.5592 75.3241 50.7876 75.3312 51.0081 75.3823C51.2286 75.4334 51.437 75.5275 51.6212 75.6592C51.8054 75.7909 51.9619 75.9577 52.0818 76.1501C52.136 76.2315 53.5751 78.3517 57.8382 78.3517H57.8538C62.1169 78.3517 63.556 76.2315 63.6154 76.1417C63.8635 75.7649 64.249 75.5005 64.6894 75.4049C65.1298 75.3094 65.59 75.3904 65.9714 75.6306C66.3529 75.8708 66.6253 76.2511 66.7303 76.69C66.8353 77.129 66.7646 77.5917 66.5332 77.979C66.4384 78.1324 64.1875 81.6702 58.1967 81.8007L57.2796 81.8049Z" fill="#040000"/>
<path d="M58.1935 81.9635H57.2796C57.2586 81.9636 57.2377 81.9597 57.2181 81.9521C51.3419 81.7193 49.115 78.2128 49.0223 78.0635C48.7578 77.6387 48.6726 77.126 48.7854 76.6382C48.8983 76.1505 49.1999 75.7276 49.624 75.4626C50.0481 75.1977 50.5599 75.1123 51.0468 75.2254C51.5337 75.3385 51.9559 75.6406 52.2204 76.0655C52.2766 76.15 53.6678 78.1919 57.8475 78.1919H57.8632C62.045 78.1919 63.434 76.1417 63.4903 76.054C63.7571 75.6379 64.1762 75.3433 64.6576 75.2336C65.1389 75.1239 65.644 75.2078 66.0642 75.4673C66.4886 75.7304 66.7915 76.1513 66.9066 76.6378C67.0217 77.1243 66.9395 77.6366 66.678 78.0625C66.5832 78.2159 64.2969 81.8153 58.2373 81.9594C58.223 81.9631 58.2082 81.9645 58.1935 81.9635ZM57.3348 81.6504H58.1601C58.1702 81.6493 58.1803 81.6493 58.1904 81.6504C64.101 81.5209 66.306 78.051 66.3977 77.9038C66.5445 77.6665 66.6252 77.3942 66.6316 77.1151C66.638 76.836 66.5698 76.5603 66.4341 76.3165C66.2984 76.0727 66.1001 75.8697 65.8597 75.7284C65.6193 75.5872 65.3456 75.5129 65.067 75.5133C64.8042 75.5117 64.5454 75.5771 64.3148 75.7032C64.0842 75.8294 63.8894 76.0123 63.7488 76.2346C63.6862 76.3306 62.2044 78.5187 57.8527 78.5187H57.8371C53.4938 78.5187 52.0088 76.339 51.9484 76.2471C51.7291 75.8943 51.3788 75.6431 50.9747 75.549C50.5705 75.4548 50.1456 75.5253 49.7934 75.745C49.4411 75.9647 49.1904 76.3156 49.0964 76.7204C49.0024 77.1253 49.0728 77.5509 49.2921 77.9038C49.3807 78.0479 51.5347 81.4374 57.2838 81.6441C57.301 81.6428 57.3184 81.645 57.3348 81.6504Z" fill="#040000"/>
<path d="M65.6703 76.0937C65.413 75.9338 65.1031 75.8823 64.808 75.9506C64.513 76.0188 64.257 76.2013 64.0957 76.458C64.0155 76.5791 62.4149 78.9268 57.8538 78.9268V78.955L57.8381 78.9268C53.277 78.9268 51.6753 76.5791 51.5961 76.458C51.4347 76.199 51.1772 76.0148 50.8803 75.946C50.5833 75.8772 50.2712 75.9294 50.0127 76.0911C49.7541 76.2527 49.5703 76.5107 49.5016 76.8082C49.4329 77.1056 49.485 77.4182 49.6464 77.6772C49.736 77.8224 51.9025 81.2265 57.8381 81.2265L57.8538 81.1952V81.2265C63.7936 81.2265 65.9559 77.8203 66.0444 77.6772C66.124 77.5488 66.1774 77.4058 66.2017 77.2566C66.2259 77.1073 66.2205 76.9547 66.1857 76.8076C66.151 76.6605 66.0876 76.5217 65.9991 76.3992C65.9107 76.2766 65.7989 76.1728 65.6703 76.0937Z" fill="#999899"/>
<path d="M57.8538 81.3247H57.8381C51.8525 81.3247 49.6558 77.8746 49.5651 77.7274C49.3995 77.447 49.3499 77.1129 49.4269 76.7964C49.504 76.4799 49.7016 76.2061 49.9775 76.0337C50.2533 75.8612 50.5856 75.8037 50.9033 75.8734C51.221 75.9431 51.4988 76.1346 51.6774 76.4068C51.741 76.5039 53.3208 78.8308 57.8381 78.8308H57.8538C62.3711 78.8308 63.9509 76.5039 64.0155 76.4058C64.195 76.1355 64.4727 75.946 64.7895 75.8775C65.1063 75.809 65.4373 75.8669 65.7122 76.0389C65.987 76.211 66.1841 76.4836 66.2615 76.7989C66.3389 77.1141 66.2906 77.4472 66.1267 77.7274C66.0361 77.8746 63.8425 81.3247 57.8538 81.3247ZM50.6239 76.0133C50.4364 76.0134 50.2522 76.0636 50.0906 76.1587C49.9289 76.2539 49.7955 76.3905 49.7041 76.5546C49.6128 76.7187 49.5668 76.9042 49.5709 77.092C49.5751 77.2798 49.6292 77.4631 49.7277 77.623C49.8163 77.765 51.9452 81.1086 57.7829 81.1284C57.7945 81.1159 57.8091 81.1067 57.8254 81.1017C57.8417 81.0968 57.8591 81.0962 57.8756 81.1002C57.8945 81.1043 57.9116 81.1141 57.9246 81.1284C63.7539 81.1023 65.8756 77.765 65.9631 77.623C66.1087 77.3856 66.1547 77.1003 66.0911 76.8291C66.0275 76.5579 65.8594 76.3229 65.6235 76.1753C65.3877 76.0278 65.1031 75.9796 64.832 76.0414C64.5608 76.1031 64.325 76.2698 64.176 76.505C64.1082 76.6094 62.4899 78.9957 57.9236 79.0187C57.9116 79.031 57.8965 79.0396 57.8798 79.0437C57.8637 79.0479 57.8467 79.0478 57.8306 79.0434C57.8146 79.039 57.7999 79.0305 57.7881 79.0187C53.203 78.9999 51.5857 76.6083 51.518 76.506C51.4231 76.3545 51.2912 76.2297 51.1347 76.1435C50.9783 76.0572 50.8025 76.0124 50.6239 76.0133Z" fill="#040000"/>
<path d="M58.1904 79.4268C51.1637 79.4268 49.7225 75.3389 49.6652 75.1646L49.6214 75.0351L49.6996 74.2585C49.6381 73.7616 49.1025 70.0401 46.4129 65.9616C40.5554 57.078 39.1184 47.8603 42.5666 41.3057C45.1957 36.3065 50.4645 33.489 57.4015 33.3721H57.9226C64.87 33.49 70.1387 36.3075 72.7689 41.3057C76.2182 47.8603 74.7791 57.078 68.9216 65.9616C66.3164 69.9106 65.7329 73.5257 65.6433 74.2084L65.76 74.6165L65.7527 74.7293C65.7548 74.771 65.3504 79.4268 58.1904 79.4268Z" fill="#231815"/>
<path d="M58.1904 79.9583C55.1361 79.9583 52.7081 79.2276 50.9741 77.7661C49.6194 76.6356 49.2026 75.4601 49.1619 75.3307L49.0827 75.0927L49.1651 74.2638C49.0827 73.6479 48.5138 70.1081 45.9711 66.2519C40.0042 57.2034 38.5557 47.7843 42.0967 41.0542C44.8207 35.8765 50.253 32.9578 57.3932 32.8367H57.9361C65.0826 32.9578 70.5191 35.8765 73.2431 41.0542C76.7861 47.7843 75.3356 57.2034 69.3697 66.2519C66.9469 69.9254 66.3186 73.2867 66.1893 74.1615L66.3008 74.5519L66.2862 74.7607C66.2883 74.8119 65.8496 79.9583 58.1904 79.9583ZM50.1665 74.9758L50.1738 74.9977C50.2259 75.1564 51.5483 78.8956 58.1977 78.8956C64.7815 78.8956 65.2202 74.8536 65.2358 74.6814V74.6688L65.1139 74.2429L65.1285 74.1323C65.2223 73.4287 65.8246 69.7124 68.4902 65.6694C74.2404 56.9497 75.668 47.9346 72.3115 41.5553C69.7761 36.7377 64.669 34.0204 57.9309 33.9046H57.4099C50.6771 34.0204 45.573 36.7377 43.0387 41.5553C39.6812 47.9367 41.1099 56.9518 46.859 65.6694C49.6319 69.8742 50.1759 73.7638 50.229 74.1939L50.2363 74.2523L50.1665 74.9758Z" fill="#231815"/>
<path d="M65.0003 74.2554C65.0003 74.2554 65.3869 70.1727 68.3953 65.6109C78.5805 50.1612 74.6196 34.2939 57.9278 34.0089H57.413C40.7201 34.2929 36.7592 50.1643 46.9443 65.6109C49.9528 70.1727 50.3394 74.2554 50.3394 74.2554L50.2686 74.9632C50.2686 74.9632 51.542 78.7901 58.1883 78.7901C64.8346 78.7901 65.1201 74.6803 65.1201 74.6803L65.0003 74.2554Z" fill="#FFF100"/>
<path d="M52.037 78.1522C52.0067 77.9601 49.1661 59.8746 48.7159 55.8743C48.4939 53.8972 48.8534 52.3658 49.7851 51.3208C50.5895 50.4189 51.8088 49.9429 53.3104 49.9429C54.9777 49.9429 56.4105 50.778 57.5485 52.0307C58.8959 50.6559 60.5913 49.9126 62.4347 49.9126C62.491 49.9126 64.2407 49.8698 65.512 51.2311C66.5176 52.3084 66.9209 53.9212 66.7114 56.0236V56.0591L62.9599 78.3787L61.9179 78.2023L65.6631 55.9004C65.8381 54.1258 65.5286 52.798 64.7429 51.9576C63.7967 50.943 62.4723 50.9753 62.4587 50.9753C60.7185 50.9753 59.3033 51.7374 58.2321 52.8731C59.6545 54.8618 60.46 57.5049 60.46 59.6303C60.46 60.7159 60.2516 61.6388 59.8462 62.3006C59.6315 62.6782 59.3188 62.9906 58.9413 63.2047C58.5637 63.4188 58.1354 63.5266 57.7017 63.5167C55.8634 63.5167 54.7213 61.8694 54.7213 59.2169C54.7495 57.0468 55.4165 54.9333 56.6388 53.1414C56.7107 53.037 56.7836 52.9326 56.8586 52.8387C55.8947 51.7384 54.6932 51.0025 53.3156 51.0025C52.1068 51.0025 51.1866 51.3469 50.5812 52.0265C49.8695 52.8241 49.5912 54.1143 49.7757 55.7522C50.2238 59.7295 53.2083 78.7597 53.2385 78.9518L52.037 78.1522ZM57.5297 53.7249C56.4159 55.3408 55.8055 57.2514 55.7759 59.2148C55.7759 60.7807 56.2803 62.4509 57.6954 62.4509C57.9469 62.4599 58.196 62.3986 58.4146 62.2738C58.6333 62.1489 58.8129 61.9656 58.9334 61.7442C59.2335 61.2494 59.3929 60.5176 59.3929 59.6272C59.3929 57.8149 58.7125 55.5027 57.5349 53.7302L57.5297 53.7249Z" fill="#231815"/>
<path d="M54.6546 41.9447C53.6584 44.6839 50.6353 46.9053 47.901 46.9053C45.1666 46.9053 43.7566 44.6839 44.7518 41.9447C45.747 39.2055 48.7711 36.9851 51.5055 36.9851C54.2399 36.9851 55.6498 39.2055 54.6546 41.9447Z" fill="white"/>
<path d="M57.7204 80.7713C56.4918 80.7746 55.2688 80.6041 54.0877 80.265C51.2742 79.4383 50.0841 77.9319 50.0351 77.8641C50.0095 77.831 49.9906 77.7933 49.9795 77.7529C49.9684 77.7126 49.9654 77.6704 49.9705 77.6289C49.981 77.545 50.0243 77.4687 50.0909 77.4168C50.1575 77.3649 50.242 77.3416 50.3257 77.3521C50.4094 77.3625 50.4856 77.4059 50.5374 77.4726C50.5541 77.4935 51.6712 78.8861 54.2659 79.6471C55.9246 80.1203 57.6632 80.2444 59.3721 80.0114C59.4513 80.0046 59.5303 80.0277 59.5934 80.0762C59.6565 80.1247 59.6992 80.1951 59.7132 80.2736C59.7272 80.352 59.7113 80.4329 59.6689 80.5002C59.6264 80.5676 59.5603 80.6167 59.4836 80.6377C58.9004 80.7297 58.3108 80.7744 57.7204 80.7713Z" fill="#E6E6E6"/>
<path d="M57.7204 82.9572C56.4917 82.9606 55.2687 82.7898 54.0877 82.4499C51.2742 81.6241 50.0841 80.1178 50.0351 80.0489C50.0095 80.0159 49.9906 79.9781 49.9795 79.9377C49.9684 79.8974 49.9654 79.8552 49.9705 79.8137C49.981 79.7298 50.0243 79.6535 50.0909 79.6016C50.1575 79.5497 50.242 79.5264 50.3257 79.5369C50.4094 79.5474 50.4856 79.5907 50.5374 79.6575C50.5541 79.6794 51.6712 81.0709 54.2659 81.8329C55.9247 82.3056 57.6631 82.4296 59.3721 82.1972C59.4533 82.1862 59.5357 82.2071 59.6019 82.2554C59.6682 82.3038 59.7132 82.376 59.7276 82.4568C59.742 82.5377 59.7247 82.621 59.6792 82.6894C59.6337 82.7577 59.5636 82.8058 59.4836 82.8236C58.9004 82.9159 58.3108 82.9606 57.7204 82.9572Z" fill="#E6E6E6"/>
<path d="M57.7204 85.1422C56.4917 85.1459 55.2687 84.9755 54.0877 84.6359C51.2741 83.8092 50.0841 82.3039 50.0351 82.235C49.9834 82.1682 49.9603 82.0837 49.9709 81.9999C49.9814 81.9161 50.0248 81.8399 50.0914 81.7882C50.158 81.7364 50.2424 81.7132 50.326 81.7238C50.4097 81.7344 50.4857 81.7778 50.5374 81.8445C50.5489 81.8581 51.6649 83.2559 54.2659 84.019C55.9246 84.4923 57.6632 84.6163 59.3721 84.3833C59.4513 84.3765 59.5303 84.3996 59.5934 84.4481C59.6565 84.4966 59.6992 84.567 59.7132 84.6455C59.7272 84.724 59.7113 84.8048 59.6689 84.8722C59.6264 84.9395 59.5603 84.9886 59.4836 85.0097C58.9004 85.1013 58.3107 85.1457 57.7204 85.1422Z" fill="#E6E6E6"/>
<path d="M57.7204 87.3282C56.4917 87.3316 55.2687 87.1608 54.0877 86.8209C51.2742 85.9951 50.0841 84.4888 50.0351 84.4199C50.0095 84.3869 49.9906 84.3491 49.9795 84.3087C49.9684 84.2683 49.9654 84.2262 49.9705 84.1847C49.981 84.1008 50.0243 84.0245 50.0909 83.9726C50.1575 83.9207 50.242 83.8974 50.3257 83.9079C50.4094 83.9183 50.4856 83.9617 50.5374 84.0284C50.5489 84.043 51.6649 85.4408 54.2659 86.2039C55.9246 86.6772 57.6632 86.8012 59.3721 86.5682C59.4533 86.5572 59.5357 86.5781 59.6019 86.6264C59.6682 86.6748 59.7132 86.747 59.7276 86.8278C59.742 86.9087 59.7247 86.992 59.6792 87.0604C59.6337 87.1287 59.5636 87.1768 59.4836 87.1946C58.9004 87.2869 58.3108 87.3316 57.7204 87.3282Z" fill="#E6E6E6"/>
<path d="M57.5526 89.514C56.3236 89.5173 55.1002 89.3465 53.9189 89.0067C51.1053 88.1799 49.9163 86.6746 49.8674 86.6057C49.8417 86.5726 49.8228 86.5349 49.8117 86.4945C49.8006 86.4541 49.7976 86.412 49.8027 86.3704C49.8079 86.3289 49.8212 86.2888 49.8419 86.2524C49.8625 86.216 49.8901 86.1841 49.9231 86.1584C49.9561 86.1327 49.9938 86.1137 50.0341 86.1026C50.0744 86.0915 50.1164 86.0885 50.1579 86.0936C50.1994 86.0988 50.2394 86.1121 50.2757 86.1328C50.3121 86.1535 50.344 86.1812 50.3696 86.2142C50.3811 86.2278 51.4971 87.6256 54.0981 88.3887C55.7568 88.8621 57.4954 88.9862 59.2043 88.753C59.2837 88.7458 59.3629 88.7687 59.4263 88.8171C59.4897 88.8655 59.5327 88.9359 59.5469 89.0145C59.561 89.0931 59.5452 89.1742 59.5026 89.2417C59.46 89.3093 59.3938 89.3584 59.3168 89.3793C58.7334 89.472 58.1434 89.5171 57.5526 89.514Z" fill="#E6E6E6"/>
</g>
<defs>
<clipPath id="clip0">
<rect width="113.581" height="132.328" fill="white" transform="translate(0.744202 0.976807)"/>
</clipPath>
</defs>
</svg>
