<svg width="34" height="34" viewBox="0 0 34 34" fill="none" xmlns="http://www.w3.org/2000/svg">
<path d="M14.7611 26.5168C15.2806 25.8709 16.081 25.4637 16.9656 25.4637C17.8503 25.4637 18.6366 25.8709 19.1562 26.5168C19.7038 26.3905 20.2234 26.222 20.7289 26.0113L18.7349 21.546C18.1873 21.7566 17.5835 21.869 16.9656 21.869C16.3197 21.869 15.7019 21.7426 15.1402 21.5179L13.1322 25.9973C13.6658 26.222 14.1994 26.4045 14.7611 26.5168ZM7.34696 14.2302C7.12229 15.0587 6.99591 15.9293 6.99591 16.8279C6.99591 17.8811 7.16441 18.8921 7.45929 19.8469C8.34393 19.9172 9.1724 20.4086 9.64982 21.2371C10.1132 22.0375 10.1413 22.9642 9.80428 23.7506C10.1834 24.1297 10.5906 24.4948 11.0259 24.8178L13.1603 20.0576C12.5003 19.2431 12.1072 18.2041 12.1072 17.0667C12.1072 14.4127 14.2836 12.2784 16.9656 12.2784C19.6476 12.2784 21.8241 14.4268 21.8241 17.0667C21.8241 18.2181 21.4169 19.2712 20.7289 20.0997L22.8351 24.8037C23.2845 24.4667 23.7057 24.1016 24.0989 23.6944C23.79 22.9221 23.8181 22.0094 24.2674 21.2371C24.7308 20.4367 25.5312 19.9452 26.4018 19.8469C26.7107 18.8921 26.8792 17.867 26.8792 16.8139C26.8792 15.9152 26.7528 15.0306 26.5282 14.2021C25.6295 14.1459 24.7589 13.6545 24.2815 12.7979C23.7759 11.9273 23.79 10.8882 24.2393 10.0598C22.9615 8.68366 21.2905 7.65861 19.4089 7.18118C18.9175 8.05178 18.0047 8.61345 16.9656 8.61345C15.9265 8.61345 15.0138 8.03774 14.5224 7.19522C12.6407 7.67265 10.9698 8.66962 9.69195 10.0457C10.1553 10.8882 10.1834 11.9414 9.66387 12.826C9.1724 13.6966 8.27372 14.1881 7.34696 14.2302ZM5.52151 13.6404C4.42625 12.7979 4.08924 11.2533 4.80538 10.0176C5.52151 8.78195 7.02399 8.29049 8.3018 8.82408C9.86045 7.18118 11.8965 5.97358 14.1713 5.42595C14.3679 4.04984 15.5474 2.9967 16.9656 2.9967C18.3839 2.9967 19.5634 4.04984 19.7459 5.42595C22.0348 5.97358 24.0568 7.16714 25.6154 8.82408C26.8932 8.29049 28.4098 8.78195 29.1119 10.0176C29.828 11.2533 29.491 12.7979 28.3957 13.6404C28.7187 14.7217 28.8872 15.8591 28.8872 17.0386C28.8872 18.2181 28.7187 19.3555 28.3957 20.4367C29.491 21.2792 29.828 22.8238 29.1119 24.0595C28.3957 25.2952 26.8932 25.7867 25.6154 25.2531C25.0538 25.8569 24.4219 26.3905 23.7338 26.8679L25.6154 31.0804H23.0036L21.6416 28.0334C21.0378 28.2861 20.4059 28.4967 19.76 28.6512C19.5634 30.0273 18.3839 31.0804 16.9656 31.0804C15.5474 31.0804 14.3679 30.0273 14.1853 28.6512C13.5113 28.4827 12.8654 28.2721 12.2476 28.0053L10.8715 31.0804H8.2316L10.1413 26.8258C9.48132 26.3624 8.86348 25.8288 8.31585 25.2531C7.02399 25.7867 5.52151 25.2952 4.80538 24.0595C4.08924 22.8238 4.42625 21.2792 5.52151 20.4367C5.19855 19.3555 5.03005 18.2181 5.03005 17.0386C5.03005 15.8591 5.19855 14.7217 5.52151 13.6404Z" fill="#0746A1"/>
</svg>
