<svg width="193" height="46" viewBox="0 0 193 46" fill="none" xmlns="http://www.w3.org/2000/svg">
<path d="M26.0974 15.636C24.9579 16.0633 23.6047 16.5797 22.0378 17.185L18.0316 18.7341C18.0316 17.0604 17.5687 16.2236 16.6428 16.2236C15.3252 16.2236 14.0076 16.9714 12.69 18.467C11.7642 19.571 11.3724 20.6393 11.5149 21.672C11.6217 22.3486 12.2983 22.6869 13.5447 22.6869C14.2213 22.6869 15.1116 22.58 16.2155 22.3664C17.7467 22.0459 19.0999 21.8856 20.2751 21.8856C23.2664 21.8856 25.0113 22.9183 25.5098 24.9838C25.6523 25.6247 25.7235 26.3013 25.7235 27.0136C25.7235 29.2926 24.8688 31.7498 23.1595 34.3849C20.9517 37.8392 17.8536 40.7414 13.8652 43.0917C11.7642 44.3381 9.69875 44.9613 7.66895 44.9613C5.81721 44.9613 4.00107 44.4449 2.22054 43.4122C3.11081 41.2756 4.53523 38.124 6.49381 33.9576C7.63334 34.741 8.8441 35.1328 10.1261 35.1328C10.6958 35.1328 11.2834 35.0437 11.8888 34.8657C12.9927 34.5808 14.0432 34.1713 15.0403 33.6371C16.4648 32.8537 17.177 32.0524 17.177 31.2334C17.177 30.3431 16.4469 29.898 14.9869 29.898C13.9898 29.898 12.5298 30.1117 10.6068 30.539C8.71947 30.9307 7.27724 31.1266 6.28014 31.1266C4.96255 31.1266 3.94765 30.8773 3.23544 30.3787C1.84663 29.4529 1.27687 28.0106 1.52614 26.0521C1.98908 22.0993 4.53523 17.5233 9.1646 12.3242C13.9008 6.98263 17.9782 4.18721 21.3968 3.93793C24.7086 3.72427 26.3645 6.21701 26.3645 11.4161C26.3645 12.6625 26.2755 14.0691 26.0974 15.636ZM31.1719 6.1814L40.306 4.47209C37.8489 13.802 36.0327 22.1705 34.8576 29.5775L39.9321 27.4409L43.6712 6.1814L52.8053 4.47209C49.1018 19.0724 46.6981 31.4471 45.5942 41.5961L37.0476 43.9464L38.116 38.0172C35.1247 39.3348 30.6021 41.3112 24.5483 43.9464L31.1719 6.1814ZM53.7668 6.12798C59.3576 4.45429 63.9336 3.61744 67.4946 3.61744C72.3021 3.61744 74.688 5.29113 74.6524 8.63852C74.6167 13.4459 71.5899 18.2712 65.5717 23.1142C66.0702 24.4674 68.1356 28.7229 71.7679 35.8806C69.9162 37.5899 67.1207 40.1004 63.3816 43.4122L57.6661 28.6694H57.6127C56.7581 33.3344 56.1171 37.6433 55.6898 41.5961L47.2501 43.9464C47.3213 43.1629 47.713 40.7948 48.4252 36.8421L53.7668 6.12798ZM60.4972 14.5677C60.1767 15.7784 59.8918 16.9892 59.6425 18.1999L58.8947 21.8322C60.1411 21.1912 61.3696 20.3544 62.5804 19.3217C63.9692 18.1109 64.8951 16.9536 65.358 15.8497C65.5361 15.5292 65.6251 15.2265 65.6251 14.9416C65.6251 14.1582 65.1087 13.7664 64.076 13.7664C63.257 13.7664 62.064 14.0335 60.4972 14.5677ZM75.6138 6.12798C81.1335 4.45429 85.656 3.61744 89.1815 3.61744C93.9889 3.61744 96.357 5.29113 96.2858 8.63852C96.1789 15.3689 90.5168 22.3308 79.2995 29.5241C78.5161 33.8686 77.9463 37.8926 77.5902 41.5961L69.0971 43.9464C69.2039 43.1629 69.6313 40.777 70.3791 36.7886L72.7294 24.1291C74.8304 12.4845 75.7919 6.48409 75.6138 6.12798ZM82.3442 14.6745C82.095 15.6716 81.8635 16.6687 81.6498 17.6658L81.0623 20.6037C84.374 18.9656 86.5107 17.2385 87.4721 15.4223C87.6146 15.1374 87.6858 14.906 87.6858 14.7279C87.6858 14.1225 87.2407 13.8199 86.3504 13.8199C85.4958 13.8199 84.1604 14.1047 82.3442 14.6745ZM95.2174 6.12798C100.808 4.45429 105.384 3.61744 108.945 3.61744C113.753 3.61744 116.139 5.29113 116.103 8.63852C116.067 13.4459 113.041 18.2712 107.022 23.1142C107.521 24.4674 109.586 28.7229 113.219 35.8806C111.367 37.5899 108.571 40.1004 104.832 43.4122L99.1168 28.6694H99.0634C98.2087 33.3344 97.5677 37.6433 97.1404 41.5961L88.7007 43.9464C88.7719 43.1629 89.1636 40.7948 89.8759 36.8421L95.2174 6.12798ZM101.948 14.5677C101.627 15.7784 101.342 16.9892 101.093 18.1999L100.345 21.8322C101.592 21.1912 102.82 20.3544 104.031 19.3217C105.42 18.1109 106.346 16.9536 106.809 15.8497C106.987 15.5292 107.076 15.2265 107.076 14.9416C107.076 14.1582 106.559 13.7664 105.527 13.7664C104.708 13.7664 103.515 14.0335 101.948 14.5677ZM118.4 6.1814L127.587 4.47209C123.884 18.7519 121.462 31.1266 120.323 41.5961L111.83 43.9464L118.4 6.1814ZM148.259 15.636C147.12 16.0633 145.767 16.5797 144.2 17.185L140.194 18.7341C140.194 17.0604 139.731 16.2236 138.805 16.2236C137.487 16.2236 136.17 16.9714 134.852 18.467C133.926 19.571 133.534 20.6393 133.677 21.672C133.784 22.3486 134.46 22.6869 135.707 22.6869C136.383 22.6869 137.273 22.58 138.377 22.3664C139.909 22.0459 141.262 21.8856 142.437 21.8856C145.428 21.8856 147.173 22.9183 147.672 24.9838C147.814 25.6247 147.885 26.3013 147.885 27.0136C147.885 29.2926 147.031 31.7498 145.321 34.3849C143.114 37.8392 140.015 40.7414 136.027 43.0917C133.926 44.3381 131.861 44.9613 129.831 44.9613C127.979 44.9613 126.163 44.4449 124.382 43.4122C125.273 41.2756 126.697 38.124 128.656 33.9576C129.795 34.741 131.006 35.1328 132.288 35.1328C132.858 35.1328 133.445 35.0437 134.051 34.8657C135.155 34.5808 136.205 34.1713 137.202 33.6371C138.627 32.8537 139.339 32.0524 139.339 31.2334C139.339 30.3431 138.609 29.898 137.149 29.898C136.152 29.898 134.692 30.1117 132.769 30.539C130.881 30.9307 129.439 31.1266 128.442 31.1266C127.124 31.1266 126.11 30.8773 125.397 30.3787C124.009 29.4529 123.439 28.0106 123.688 26.0521C124.151 22.0993 126.697 17.5233 131.327 12.3242C136.063 6.98263 140.14 4.18721 143.559 3.93793C146.87 3.72427 148.526 6.21701 148.526 11.4161C148.526 12.6625 148.437 14.0691 148.259 15.636ZM159.957 14.1403C159.673 15.1731 159.423 16.188 159.21 17.185L158.622 20.1229L167.169 18.3068L166.688 25.6782C162.628 26.3904 159.441 27.0136 157.126 27.5477C156.984 28.2599 156.859 28.9721 156.752 29.6843L156.379 31.7676L166.314 30.3253L165.619 40.2607C160.492 40.688 153.993 41.9166 146.123 43.9464L152.479 5.64724L170.267 3.08328L169.572 12.9652C166.082 13.2857 162.877 13.6774 159.957 14.1403ZM173.418 35.1862C174.665 35.0081 175.768 35.1862 176.73 35.7203C177.869 36.2901 178.439 37.1804 178.439 38.3911C178.439 40.0292 177.567 41.5248 175.822 42.878C174.469 43.9464 172.991 44.5873 171.388 44.801C170.106 44.9791 169.002 44.8366 168.077 44.3737C166.973 43.8039 166.421 42.9137 166.421 41.7029C166.421 40.0648 167.258 38.5514 168.931 37.1626C170.284 36.0586 171.78 35.3998 173.418 35.1862ZM179.454 1.96155L190.618 3.8311C187.662 9.13707 185.49 13.2857 184.101 16.277C182.214 20.3722 180.54 24.8057 179.08 29.5775L171.655 29.257L179.454 1.96155Z" fill="#FFE400"/>
<path d="M26.0974 15.636L26.4485 16.5723L27.0219 16.3573L27.091 15.7489L26.0974 15.636ZM22.0378 17.185L21.6774 16.2523L21.6772 16.2523L22.0378 17.185ZM18.0316 18.7341H17.0316V20.1929L18.3923 19.6668L18.0316 18.7341ZM12.69 18.467L11.9397 17.806L11.9317 17.8151L11.9238 17.8244L12.69 18.467ZM11.5149 21.672L10.5243 21.8086L10.5256 21.8183L10.5271 21.8279L11.5149 21.672ZM16.2155 22.3664L16.4055 23.3482L16.4129 23.3467L16.4203 23.3452L16.2155 22.3664ZM25.5098 24.9838L26.486 24.7668L26.484 24.758L26.4819 24.7491L25.5098 24.9838ZM23.1595 34.3849L22.3206 33.8407L22.3169 33.8464L23.1595 34.3849ZM13.8652 43.0917L13.3575 42.2302L13.355 42.2317L13.8652 43.0917ZM2.22054 43.4122L1.29747 43.0276L0.960132 43.8372L1.71883 44.2772L2.22054 43.4122ZM6.49381 33.9576L7.06034 33.1336L6.08984 32.4664L5.58881 33.5322L6.49381 33.9576ZM11.8888 34.8657L11.6389 33.8974L11.6227 33.9016L11.6066 33.9063L11.8888 34.8657ZM15.0403 33.6371L15.5126 34.5186L15.5223 34.5133L15.0403 33.6371ZM10.6068 30.539L10.8101 31.5182L10.8238 31.5152L10.6068 30.539ZM3.23544 30.3787L3.80891 29.5595L3.7996 29.553L3.79014 29.5467L3.23544 30.3787ZM1.52614 26.0521L2.51819 26.1783L2.51935 26.1684L1.52614 26.0521ZM9.1646 12.3242L9.91144 12.9892L9.91283 12.9876L9.1646 12.3242ZM21.3968 3.93793L21.3324 2.93997L21.3241 2.94058L21.3968 3.93793ZM25.7463 14.6997C24.6027 15.1285 23.2463 15.6461 21.6774 16.2523L22.3982 18.1178C23.963 17.5132 25.313 16.9981 26.4485 16.5723L25.7463 14.6997ZM21.6772 16.2523L17.671 17.8014L18.3923 19.6668L22.3984 18.1178L21.6772 16.2523ZM19.0316 18.7341C19.0316 17.8378 18.9133 17.0068 18.5594 16.3671C18.3742 16.0322 18.1154 15.7342 17.7665 15.524C17.416 15.3127 17.0298 15.2236 16.6428 15.2236V17.2236C16.683 17.2236 16.7068 17.2281 16.7183 17.231C16.7289 17.2338 16.733 17.2362 16.7343 17.237C16.7358 17.2379 16.7424 17.2419 16.7539 17.2545C16.766 17.2676 16.7856 17.2924 16.8094 17.3353C16.9184 17.5324 17.0316 17.9567 17.0316 18.7341H19.0316ZM16.6428 15.2236C14.9174 15.2236 13.3493 16.2059 11.9397 17.806L13.4404 19.1281C14.666 17.7369 15.733 17.2236 16.6428 17.2236V15.2236ZM11.9238 17.8244C10.8883 19.0591 10.3302 20.4018 10.5243 21.8086L12.5055 21.5353C12.4147 20.8767 12.64 20.0828 13.4562 19.1096L11.9238 17.8244ZM10.5271 21.8279C10.6367 22.5221 11.0632 23.0315 11.6553 23.3276C12.1944 23.5972 12.8549 23.6869 13.5447 23.6869V21.6869C12.9881 21.6869 12.6871 21.6074 12.5497 21.5387C12.4911 21.5094 12.4842 21.493 12.4934 21.5049C12.5051 21.52 12.505 21.5311 12.5027 21.516L10.5271 21.8279ZM13.5447 23.6869C14.313 23.6869 15.2742 23.5671 16.4055 23.3482L16.0255 21.3846C14.9489 21.593 14.1296 21.6869 13.5447 21.6869V23.6869ZM16.4203 23.3452C17.9049 23.0345 19.1871 22.8856 20.2751 22.8856V20.8856C19.0128 20.8856 17.5886 21.0573 16.0106 21.3876L16.4203 23.3452ZM20.2751 22.8856C21.671 22.8856 22.6561 23.1291 23.3179 23.5207C23.9457 23.8923 24.3485 24.4342 24.5377 25.2184L26.4819 24.7491C26.1727 23.4679 25.4536 22.4607 24.3366 21.7996C23.2534 21.1586 21.8704 20.8856 20.2751 20.8856V22.8856ZM24.5336 25.2007C24.659 25.7647 24.7235 26.3682 24.7235 27.0136H26.7235C26.7235 26.2345 26.6456 25.4848 26.486 24.7668L24.5336 25.2007ZM24.7235 27.0136C24.7235 29.0393 23.9632 31.3084 22.3206 33.8407L23.9985 34.9291C25.7745 32.1911 26.7235 29.5459 26.7235 27.0136H24.7235ZM22.3169 33.8464C20.2042 37.1518 17.2281 39.9493 13.3575 42.2302L14.3729 43.9532C18.4791 41.5335 21.6992 38.5265 24.0021 34.9235L22.3169 33.8464ZM13.355 42.2317C11.3769 43.4051 9.48581 43.9613 7.66895 43.9613V45.9613C9.9117 45.9613 12.1515 45.271 14.3754 43.9518L13.355 42.2317ZM7.66895 43.9613C6.01252 43.9613 4.36778 43.5016 2.72226 42.5472L1.71883 44.2772C3.63436 45.3882 5.62189 45.9613 7.66895 45.9613V43.9613ZM3.14362 43.7968C4.025 41.6815 5.44167 38.5464 7.3988 34.383L5.58881 33.5322C3.62879 37.7017 2.19662 40.8696 1.29747 43.0276L3.14362 43.7968ZM5.92728 34.7816C7.21973 35.6702 8.6257 36.1328 10.1261 36.1328V34.1328C9.0625 34.1328 8.04696 33.8119 7.06034 33.1336L5.92728 34.7816ZM10.1261 36.1328C10.801 36.1328 11.4837 36.0272 12.171 35.825L11.6066 33.9063C11.0832 34.0603 10.5907 34.1328 10.1261 34.1328V36.1328ZM12.1387 35.834C13.3193 35.5293 14.4445 35.0908 15.5126 34.5186L14.5681 32.7556C13.642 33.2518 12.6662 33.6323 11.6389 33.8974L12.1387 35.834ZM15.5223 34.5133C16.2882 34.0921 16.9298 33.6309 17.3902 33.113C17.8577 32.5871 18.177 31.9555 18.177 31.2334H16.177C16.177 31.3304 16.1401 31.5089 15.8954 31.7842C15.6436 32.0676 15.2169 32.3987 14.5584 32.7609L15.5223 34.5133ZM18.177 31.2334C18.177 30.4571 17.8275 29.7911 17.1501 29.3781C16.553 29.014 15.786 28.898 14.9869 28.898V30.898C15.6479 30.898 15.9759 31.0046 16.1088 31.0857C16.1366 31.1026 16.1505 31.1152 16.1562 31.121C16.1615 31.1264 16.1625 31.1286 16.1626 31.1288C16.1628 31.1292 16.1658 31.1344 16.1691 31.1485C16.1726 31.1633 16.177 31.1904 16.177 31.2334H18.177ZM14.9869 28.898C13.8765 28.898 12.3293 29.1318 10.3899 29.5628L10.8238 31.5152C12.7303 31.0915 14.1031 30.898 14.9869 30.898V28.898ZM10.4036 29.5599C8.53343 29.948 7.17216 30.1266 6.28014 30.1266V32.1266C7.38232 32.1266 8.9055 31.9134 10.81 31.5181L10.4036 29.5599ZM6.28014 30.1266C5.06837 30.1266 4.28675 29.894 3.80891 29.5595L2.66198 31.198C3.60856 31.8606 4.85674 32.1266 6.28014 32.1266V30.1266ZM3.79014 29.5467C3.25164 29.1877 2.90078 28.7522 2.69656 28.2352C2.48826 27.708 2.40909 27.0351 2.51814 26.1783L0.534141 25.9258C0.393916 27.0276 0.474992 28.0551 0.836458 28.9701C1.20201 29.8954 1.83044 30.6439 2.68074 31.2108L3.79014 29.5467ZM2.51935 26.1684C2.94638 22.5222 5.32813 18.1366 9.91144 12.9892L8.41775 11.6592C3.74233 16.9101 1.03177 21.6764 0.532927 25.9357L2.51935 26.1684ZM9.91283 12.9876C12.2485 10.3534 14.3913 8.38242 16.3403 7.04624C18.2937 5.70701 19.9981 5.04257 21.4695 4.93529L21.3241 2.94058C19.3769 3.08257 17.3333 3.94048 15.2093 5.39668C13.0809 6.85593 10.8169 8.95341 8.41636 11.6608L9.91283 12.9876ZM21.4612 4.93586C22.8071 4.84903 23.6845 5.28962 24.2896 6.20056C24.9546 7.20157 25.3645 8.88538 25.3645 11.4161H27.3645C27.3645 8.74777 26.9465 6.58564 25.9555 5.09391C24.9048 3.51212 23.2983 2.81318 21.3324 2.94001L21.4612 4.93586ZM25.3645 11.4161C25.3645 12.6164 25.2786 13.9844 25.1038 15.5231L27.091 15.7489C27.2723 14.1539 27.3645 12.7086 27.3645 11.4161H25.3645ZM31.1719 6.1814L30.988 5.19846L30.3067 5.32595L30.1869 6.00864L31.1719 6.1814ZM40.306 4.47209L41.273 4.72677L41.6755 3.19845L40.1221 3.48915L40.306 4.47209ZM34.8576 29.5775L33.8699 29.4208L33.5881 31.197L35.2456 30.4991L34.8576 29.5775ZM39.9321 27.4409L40.3201 28.3625L40.8225 28.151L40.917 27.6141L39.9321 27.4409ZM43.6712 6.1814L43.4873 5.19846L42.8063 5.32589L42.6863 6.00818L43.6712 6.1814ZM52.8053 4.47209L53.7746 4.71796L54.1593 3.20135L52.6214 3.48915L52.8053 4.47209ZM45.5942 41.5961L45.8593 42.5603L46.5148 42.38L46.5883 41.7042L45.5942 41.5961ZM37.0476 43.9464L36.0635 43.769L35.782 45.3315L37.3128 44.9106L37.0476 43.9464ZM38.116 38.0172L39.1001 38.1945L39.4335 36.3441L37.7129 37.1021L38.116 38.0172ZM24.5483 43.9464L23.5634 43.7736L23.2421 45.6056L24.9475 44.8633L24.5483 43.9464ZM31.3558 7.16433L40.4899 5.45503L40.1221 3.48915L30.988 5.19846L31.3558 7.16433ZM39.339 4.21742C36.8756 13.5711 35.0516 21.9731 33.8699 29.4208L35.8452 29.7342C37.0139 22.368 38.8221 14.033 41.273 4.72677L39.339 4.21742ZM35.2456 30.4991L40.3201 28.3625L39.544 26.5192L34.4695 28.6559L35.2456 30.4991ZM40.917 27.6141L44.6561 6.35462L42.6863 6.00818L38.9472 27.2677L40.917 27.6141ZM43.8551 7.16433L52.9892 5.45503L52.6214 3.48915L43.4873 5.19846L43.8551 7.16433ZM51.836 4.22622C48.1259 18.8527 45.7108 31.2763 44.6 41.4879L46.5883 41.7042C47.6854 31.6178 50.0777 19.2921 53.7746 4.71796L51.836 4.22622ZM45.329 40.6319L36.7825 42.9822L37.3128 44.9106L45.8593 42.5603L45.329 40.6319ZM38.0318 44.1237L39.1001 38.1945L37.1318 37.8399L36.0635 43.769L38.0318 44.1237ZM37.7129 37.1021C34.7236 38.4187 30.2027 40.3944 24.1492 43.0295L24.9475 44.8633C31.0015 42.228 35.5257 40.2509 38.5191 38.9324L37.7129 37.1021ZM25.5333 44.1191L32.1569 6.35415L30.1869 6.00864L23.5634 43.7736L25.5333 44.1191ZM53.7668 6.12798L53.48 5.16999L52.8875 5.34735L52.7816 5.95664L53.7668 6.12798ZM74.6524 8.63852L73.6524 8.62789L73.6524 8.63112L74.6524 8.63852ZM65.5717 23.1142L64.9447 22.3351L64.3849 22.7856L64.6333 23.4599L65.5717 23.1142ZM71.7679 35.8806L72.4462 36.6154L73.0019 36.1024L72.6597 35.428L71.7679 35.8806ZM63.3816 43.4122L62.4492 43.7737L62.9688 45.1137L64.0447 44.1608L63.3816 43.4122ZM57.6661 28.6694L58.5985 28.308L58.351 27.6694H57.6661V28.6694ZM57.6127 28.6694V27.6694H56.7793L56.6291 28.4892L57.6127 28.6694ZM55.6898 41.5961L55.958 42.5594L56.6111 42.3775L56.684 41.7035L55.6898 41.5961ZM47.2501 43.9464L46.2542 43.8558L46.123 45.2983L47.5183 44.9097L47.2501 43.9464ZM48.4252 36.8421L49.4094 37.0194L49.4104 37.0134L48.4252 36.8421ZM60.4972 14.5677L60.1745 13.6212L59.6675 13.794L59.5305 14.3118L60.4972 14.5677ZM58.8947 21.8322L57.9152 21.6306L57.4939 23.6771L59.352 22.7215L58.8947 21.8322ZM62.5804 19.3217L63.2294 20.0826L63.2375 20.0755L62.5804 19.3217ZM65.358 15.8497L64.4839 15.364L64.4571 15.4121L64.4358 15.4629L65.358 15.8497ZM54.0536 7.08597C59.6027 5.42478 64.0727 4.61744 67.4946 4.61744V2.61744C63.7945 2.61744 59.1126 3.48379 53.48 5.16999L54.0536 7.08597ZM67.4946 4.61744C69.814 4.61744 71.3682 5.02693 72.3154 5.69137C73.195 6.30843 73.6673 7.22712 73.6524 8.62789L75.6523 8.64916C75.673 6.70254 74.9702 5.11068 73.4639 4.05405C72.0252 3.04479 69.9827 2.61744 67.4946 2.61744V4.61744ZM73.6524 8.63112C73.6201 12.9952 70.8699 17.567 64.9447 22.3351L66.1986 23.8933C72.3098 18.9754 75.6134 13.8967 75.6523 8.64593L73.6524 8.63112ZM64.6333 23.4599C65.1575 24.8828 67.2593 29.2058 70.8762 36.3331L72.6597 35.428C69.0119 28.2399 66.9829 24.0521 66.51 22.7685L64.6333 23.4599ZM71.0896 35.1458C69.2457 36.8479 66.4565 39.3529 62.7186 42.6636L64.0447 44.1608C67.785 40.848 70.5866 38.3319 72.4462 36.6154L71.0896 35.1458ZM64.314 43.0507L58.5985 28.308L56.7338 29.0309L62.4492 43.7737L64.314 43.0507ZM57.6661 27.6694H57.6127V29.6694H57.6661V27.6694ZM56.6291 28.4892C55.7708 33.1739 55.1259 37.5074 54.6955 41.4886L56.684 41.7035C57.1082 37.7792 57.7453 33.495 58.5963 28.8497L56.6291 28.4892ZM55.4215 40.6327L46.9818 42.983L47.5183 44.9097L55.958 42.5594L55.4215 40.6327ZM48.246 44.0369C48.3122 43.3085 48.693 40.9951 49.4094 37.0194L47.4411 36.6647C46.733 40.5945 46.3304 43.0173 46.2542 43.8558L48.246 44.0369ZM49.4104 37.0134L54.752 6.29932L52.7816 5.95664L47.44 36.6707L49.4104 37.0134ZM59.5305 14.3118C59.2053 15.5403 58.9161 16.7691 58.6631 17.9983L60.622 18.4016C60.8675 17.2093 61.1481 16.0166 61.4639 14.8236L59.5305 14.3118ZM58.6631 17.9983L57.9152 21.6306L59.8742 22.0339L60.622 18.4016L58.6631 17.9983ZM59.352 22.7215C60.6755 22.0409 61.9676 21.1587 63.2293 20.0825L61.9314 18.5608C60.7716 19.5501 59.6066 20.3416 58.4374 20.9429L59.352 22.7215ZM63.2375 20.0755C64.6853 18.8133 65.7348 17.5369 66.2802 16.2364L64.4358 15.4629C64.0553 16.3702 63.2531 17.4086 61.9233 18.5679L63.2375 20.0755ZM66.2322 16.3353C66.4697 15.9078 66.6251 15.4384 66.6251 14.9416H64.6251C64.6251 15.0146 64.6025 15.1505 64.4839 15.364L66.2322 16.3353ZM66.6251 14.9416C66.6251 14.3101 66.4026 13.6886 65.8422 13.2635C65.334 12.878 64.6903 12.7664 64.076 12.7664V14.7664C64.4944 14.7664 64.6253 14.8508 64.6334 14.8569C64.6337 14.8571 64.6325 14.8562 64.6304 14.8541C64.6282 14.852 64.6256 14.8492 64.6229 14.8458C64.617 14.8384 64.6138 14.8321 64.6128 14.8297C64.6107 14.8251 64.6251 14.8544 64.6251 14.9416H66.6251ZM64.076 12.7664C63.0844 12.7664 61.7616 13.0801 60.1745 13.6212L60.8198 15.5142C62.3665 14.9869 63.4296 14.7664 64.076 14.7664V12.7664ZM75.6138 6.12798L75.3237 5.17101L74.1893 5.51497L74.7194 6.57519L75.6138 6.12798ZM96.2858 8.63852L95.286 8.61725L95.2859 8.62265L96.2858 8.63852ZM79.2995 29.5241L78.7597 28.6823L78.3928 28.9176L78.3154 29.3466L79.2995 29.5241ZM77.5902 41.5961L77.8569 42.5598L78.5198 42.3764L78.5856 41.6918L77.5902 41.5961ZM69.0971 43.9464L68.1063 43.8112L67.9012 45.3149L69.3638 44.9101L69.0971 43.9464ZM70.3791 36.7886L71.362 36.9729L71.3623 36.9712L70.3791 36.7886ZM72.7294 24.1291L73.7126 24.3116L73.7135 24.3067L72.7294 24.1291ZM82.3442 14.6745L82.0449 13.7204L81.51 13.8882L81.3741 14.432L82.3442 14.6745ZM81.6498 17.6658L80.6719 17.4562L80.6692 17.4697L81.6498 17.6658ZM81.0623 20.6037L80.0817 20.4075L79.6829 22.4016L81.5056 21.5L81.0623 20.6037ZM87.4721 15.4223L88.3559 15.8902L88.3614 15.8799L88.3666 15.8695L87.4721 15.4223ZM75.904 7.08495C81.3812 5.42412 85.7967 4.61744 89.1815 4.61744V2.61744C85.5153 2.61744 80.8857 3.48446 75.3237 5.17101L75.904 7.08495ZM89.1815 4.61744C91.5017 4.61744 93.0492 5.02728 93.9859 5.68934C94.8534 6.30242 95.3158 7.21615 95.286 8.61725L97.2855 8.65979C97.3269 6.71351 96.6409 5.11669 95.1403 4.05608C93.7089 3.04445 91.6687 2.61744 89.1815 2.61744V4.61744ZM95.2859 8.62265C95.1879 14.7982 89.9523 21.5048 78.7597 28.6823L79.8393 30.3659C91.0814 23.1567 97.17 15.9397 97.2856 8.65439L95.2859 8.62265ZM78.3154 29.3466C77.528 33.7134 76.954 37.765 76.5948 41.5004L78.5856 41.6918C78.9387 38.0202 79.5042 34.0238 80.2837 29.7016L78.3154 29.3466ZM77.3235 40.6323L68.8304 42.9826L69.3638 44.9101L77.8569 42.5598L77.3235 40.6323ZM70.0879 44.0815C70.1905 43.3292 70.6117 40.9744 71.362 36.9729L69.3962 36.6044C68.6509 40.5796 68.2174 42.9966 68.1063 43.8112L70.0879 44.0815ZM71.3623 36.9712L73.7126 24.3116L71.7462 23.9466L69.3959 36.6061L71.3623 36.9712ZM73.7135 24.3067C74.7643 18.4827 75.5313 14.0637 76.0137 11.0536C76.2546 9.55007 76.426 8.38852 76.5262 7.57568C76.576 7.17139 76.6101 6.83827 76.6254 6.58644C76.6329 6.46235 76.637 6.33873 76.6333 6.22737C76.6315 6.17203 76.6272 6.10274 76.616 6.02888C76.6075 5.97197 76.5841 5.83252 76.5083 5.68077L74.7194 6.57519C74.6547 6.4457 74.6403 6.33953 74.6384 6.32693C74.6339 6.29737 74.6341 6.2834 74.6344 6.29442C74.6351 6.31577 74.6349 6.36895 74.629 6.46575C74.6175 6.65572 74.5893 6.94077 74.5412 7.33104C74.4455 8.10732 74.2787 9.24042 74.0389 10.7371C73.5597 13.7274 72.7955 18.1309 71.7453 23.9515L73.7135 24.3067ZM81.3741 14.432C81.1221 15.4399 80.8881 16.448 80.672 17.4563L82.6276 17.8753C82.8389 16.8894 83.0678 15.9033 83.3144 14.917L81.3741 14.432ZM80.6692 17.4697L80.0817 20.4075L82.0428 20.7998L82.6304 17.8619L80.6692 17.4697ZM81.5056 21.5C84.874 19.8339 87.2447 17.9892 88.3559 15.8902L86.5884 14.9544C85.7766 16.4877 83.8741 18.0972 80.6189 19.7073L81.5056 21.5ZM88.3666 15.8695C88.5319 15.539 88.6858 15.1396 88.6858 14.7279H86.6858C86.6858 14.6887 86.6927 14.6887 86.6766 14.741C86.6613 14.7906 86.6315 14.8675 86.5777 14.9751L88.3666 15.8695ZM88.6858 14.7279C88.6858 14.1423 88.4482 13.583 87.9143 13.2199C87.4494 12.9038 86.8776 12.8199 86.3504 12.8199V14.8199C86.5195 14.8199 86.6371 14.8345 86.7136 14.8519C86.7903 14.8692 86.8057 14.8847 86.7896 14.8738C86.767 14.8584 86.7301 14.8233 86.7044 14.7708C86.6809 14.7229 86.6858 14.6994 86.6858 14.7279H88.6858ZM86.3504 12.8199C85.3307 12.8199 83.8688 13.1481 82.0449 13.7204L82.6436 15.6287C84.4519 15.0613 85.6608 14.8199 86.3504 14.8199V12.8199ZM95.2174 6.12798L94.9306 5.16999L94.3382 5.34735L94.2322 5.95664L95.2174 6.12798ZM116.103 8.63852L115.103 8.62789L115.103 8.63112L116.103 8.63852ZM107.022 23.1142L106.395 22.3351L105.836 22.7856L106.084 23.4599L107.022 23.1142ZM113.219 35.8806L113.897 36.6154L114.453 36.1024L114.11 35.428L113.219 35.8806ZM104.832 43.4122L103.9 43.7737L104.419 45.1137L105.495 44.1608L104.832 43.4122ZM99.1168 28.6694L100.049 28.308L99.8016 27.6694H99.1168V28.6694ZM99.0634 28.6694V27.6694H98.2299L98.0797 28.4892L99.0634 28.6694ZM97.1404 41.5961L97.4087 42.5594L98.0617 42.3775L98.1346 41.7035L97.1404 41.5961ZM88.7007 43.9464L87.7048 43.8558L87.5737 45.2983L88.969 44.9097L88.7007 43.9464ZM89.8759 36.8421L90.86 37.0194L90.8611 37.0134L89.8759 36.8421ZM101.948 14.5677L101.625 13.6212L101.118 13.794L100.981 14.3118L101.948 14.5677ZM100.345 21.8322L99.3659 21.6306L98.9445 23.6771L100.803 22.7215L100.345 21.8322ZM104.031 19.3217L104.68 20.0826L104.688 20.0755L104.031 19.3217ZM106.809 15.8497L105.935 15.364L105.908 15.4121L105.886 15.4629L106.809 15.8497ZM95.5042 7.08597C101.053 5.42478 105.523 4.61744 108.945 4.61744V2.61744C105.245 2.61744 100.563 3.48379 94.9306 5.16999L95.5042 7.08597ZM108.945 4.61744C111.265 4.61744 112.819 5.02693 113.766 5.69137C114.646 6.30843 115.118 7.22712 115.103 8.62789L117.103 8.64916C117.124 6.70254 116.421 5.11068 114.915 4.05405C113.476 3.04479 111.433 2.61744 108.945 2.61744V4.61744ZM115.103 8.63112C115.071 12.9952 112.321 17.567 106.395 22.3351L107.649 23.8933C113.76 18.9754 117.064 13.8967 117.103 8.64593L115.103 8.63112ZM106.084 23.4599C106.608 24.8828 108.71 29.2058 112.327 36.3331L114.11 35.428C110.463 28.2399 108.434 24.0521 107.961 22.7685L106.084 23.4599ZM112.54 35.1458C110.696 36.8479 107.907 39.3529 104.169 42.6636L105.495 44.1608C109.236 40.848 112.037 38.3319 113.897 36.6154L112.54 35.1458ZM105.765 43.0507L100.049 28.308L98.1844 29.0309L103.9 43.7737L105.765 43.0507ZM99.1168 27.6694H99.0634V29.6694H99.1168V27.6694ZM98.0797 28.4892C97.2215 33.1739 96.5766 37.5074 96.1462 41.4886L98.1346 41.7035C98.5589 37.7792 99.196 33.495 100.047 28.8497L98.0797 28.4892ZM96.8721 40.6327L88.4324 42.983L88.969 44.9097L97.4087 42.5594L96.8721 40.6327ZM89.6966 44.0369C89.7628 43.3085 90.1437 40.9951 90.86 37.0194L88.8917 36.6647C88.1836 40.5945 87.781 43.0173 87.7048 43.8558L89.6966 44.0369ZM90.8611 37.0134L96.2026 6.29932L94.2322 5.95664L88.8906 36.6707L90.8611 37.0134ZM100.981 14.3118C100.656 15.5403 100.367 16.7691 100.114 17.9983L102.073 18.4016C102.318 17.2093 102.599 16.0166 102.915 14.8236L100.981 14.3118ZM100.114 17.9983L99.3659 21.6306L101.325 22.0339L102.073 18.4016L100.114 17.9983ZM100.803 22.7215C102.126 22.0409 103.418 21.1587 104.68 20.0825L103.382 18.5608C102.222 19.5501 101.057 20.3416 99.888 20.9429L100.803 22.7215ZM104.688 20.0755C106.136 18.8133 107.185 17.5369 107.731 16.2364L105.886 15.4629C105.506 16.3702 104.704 17.4086 103.374 18.5679L104.688 20.0755ZM107.683 16.3353C107.92 15.9078 108.076 15.4384 108.076 14.9416H106.076C106.076 15.0146 106.053 15.1505 105.935 15.364L107.683 16.3353ZM108.076 14.9416C108.076 14.3101 107.853 13.6886 107.293 13.2635C106.785 12.878 106.141 12.7664 105.527 12.7664V14.7664C105.945 14.7664 106.076 14.8508 106.084 14.8569C106.084 14.8571 106.083 14.8562 106.081 14.8541C106.079 14.852 106.076 14.8492 106.074 14.8458C106.068 14.8384 106.064 14.8321 106.063 14.8297C106.061 14.8251 106.076 14.8544 106.076 14.9416H108.076ZM105.527 12.7664C104.535 12.7664 103.212 13.0801 101.625 13.6212L102.271 15.5142C103.817 14.9869 104.88 14.7664 105.527 14.7664V12.7664ZM118.4 6.1814L118.217 5.19827L117.534 5.32537L117.415 6.01L118.4 6.1814ZM127.587 4.47209L128.555 4.72314L128.95 3.20142L127.404 3.48896L127.587 4.47209ZM120.323 41.5961L120.59 42.5598L121.244 42.3789L121.317 41.7043L120.323 41.5961ZM111.83 43.9464L110.845 43.775L110.574 45.3315L112.096 44.9101L111.83 43.9464ZM118.583 7.16453L127.77 5.45522L127.404 3.48896L118.217 5.19827L118.583 7.16453ZM126.619 4.22105C122.908 18.5307 120.475 30.9554 119.329 41.4879L121.317 41.7043C122.45 31.2978 124.86 18.9731 128.555 4.72314L126.619 4.22105ZM120.056 40.6323L111.563 42.9826L112.096 44.9101L120.59 42.5598L120.056 40.6323ZM112.815 44.1178L119.385 6.3528L117.415 6.01L110.845 43.775L112.815 44.1178ZM148.259 15.636L148.61 16.5723L149.184 16.3573L149.253 15.7489L148.259 15.636ZM144.2 17.185L143.839 16.2523L143.839 16.2523L144.2 17.185ZM140.194 18.7341H139.194V20.1929L140.554 19.6668L140.194 18.7341ZM134.852 18.467L134.102 17.806L134.094 17.8151L134.086 17.8244L134.852 18.467ZM133.677 21.672L132.686 21.8086L132.688 21.8183L132.689 21.8279L133.677 21.672ZM138.377 22.3664L138.567 23.3482L138.575 23.3467L138.582 23.3452L138.377 22.3664ZM147.672 24.9838L148.648 24.7668L148.646 24.758L148.644 24.7491L147.672 24.9838ZM145.321 34.3849L144.482 33.8407L144.479 33.8464L145.321 34.3849ZM136.027 43.0917L135.519 42.2302L135.517 42.2317L136.027 43.0917ZM124.382 43.4122L123.459 43.0276L123.122 43.8372L123.881 44.2772L124.382 43.4122ZM128.656 33.9576L129.222 33.1336L128.252 32.4664L127.751 33.5322L128.656 33.9576ZM134.051 34.8657L133.801 33.8974L133.785 33.9016L133.769 33.9063L134.051 34.8657ZM137.202 33.6371L137.674 34.5186L137.684 34.5133L137.202 33.6371ZM132.769 30.539L132.972 31.5182L132.986 31.5152L132.769 30.539ZM125.397 30.3787L125.971 29.5595L125.962 29.553L125.952 29.5467L125.397 30.3787ZM123.688 26.0521L124.68 26.1783L124.681 26.1684L123.688 26.0521ZM131.327 12.3242L132.073 12.9892L132.075 12.9876L131.327 12.3242ZM143.559 3.93793L143.494 2.93997L143.486 2.94058L143.559 3.93793ZM147.908 14.6997C146.765 15.1285 145.408 15.6461 143.839 16.2523L144.56 18.1178C146.125 17.5132 147.475 16.9981 148.61 16.5723L147.908 14.6997ZM143.839 16.2523L139.833 17.8014L140.554 19.6668L144.56 18.1178L143.839 16.2523ZM141.194 18.7341C141.194 17.8378 141.075 17.0068 140.721 16.3671C140.536 16.0322 140.277 15.7342 139.928 15.524C139.578 15.3127 139.192 15.2236 138.805 15.2236V17.2236C138.845 17.2236 138.869 17.2281 138.88 17.231C138.891 17.2338 138.895 17.2362 138.896 17.237C138.898 17.2379 138.904 17.2419 138.916 17.2545C138.928 17.2676 138.948 17.2924 138.971 17.3353C139.08 17.5324 139.194 17.9567 139.194 18.7341H141.194ZM138.805 15.2236C137.079 15.2236 135.511 16.2059 134.102 17.806L135.602 19.1281C136.828 17.7369 137.895 17.2236 138.805 17.2236V15.2236ZM134.086 17.8244C133.05 19.0591 132.492 20.4018 132.686 21.8086L134.667 21.5353C134.577 20.8767 134.802 20.0828 135.618 19.1096L134.086 17.8244ZM132.689 21.8279C132.799 22.5221 133.225 23.0315 133.817 23.3276C134.356 23.5972 135.017 23.6869 135.707 23.6869V21.6869C135.15 21.6869 134.849 21.6074 134.712 21.5387C134.653 21.5094 134.646 21.493 134.655 21.5049C134.667 21.52 134.667 21.5311 134.665 21.516L132.689 21.8279ZM135.707 23.6869C136.475 23.6869 137.436 23.5671 138.567 23.3482L138.187 21.3846C137.111 21.593 136.291 21.6869 135.707 21.6869V23.6869ZM138.582 23.3452C140.067 23.0345 141.349 22.8856 142.437 22.8856V20.8856C141.175 20.8856 139.75 21.0573 138.173 21.3876L138.582 23.3452ZM142.437 22.8856C143.833 22.8856 144.818 23.1291 145.48 23.5207C146.108 23.8923 146.51 24.4342 146.7 25.2184L148.644 24.7491C148.335 23.4679 147.616 22.4607 146.498 21.7996C145.415 21.1586 144.032 20.8856 142.437 20.8856V22.8856ZM146.696 25.2007C146.821 25.7647 146.885 26.3682 146.885 27.0136H148.885C148.885 26.2345 148.807 25.4848 148.648 24.7668L146.696 25.2007ZM146.885 27.0136C146.885 29.0393 146.125 31.3084 144.482 33.8407L146.16 34.9291C147.936 32.1911 148.885 29.5459 148.885 27.0136H146.885ZM144.479 33.8464C142.366 37.1518 139.39 39.9493 135.519 42.2302L136.535 43.9532C140.641 41.5335 143.861 38.5265 146.164 34.9235L144.479 33.8464ZM135.517 42.2317C133.539 43.4051 131.648 43.9613 129.831 43.9613V45.9613C132.074 45.9613 134.313 45.271 136.537 43.9518L135.517 42.2317ZM129.831 43.9613C128.174 43.9613 126.53 43.5016 124.884 42.5472L123.881 44.2772C125.796 45.3882 127.784 45.9613 129.831 45.9613V43.9613ZM125.306 43.7968C126.187 41.6815 127.604 38.5464 129.561 34.383L127.751 33.5322C125.791 37.7017 124.359 40.8696 123.459 43.0276L125.306 43.7968ZM128.089 34.7816C129.382 35.6702 130.788 36.1328 132.288 36.1328V34.1328C131.224 34.1328 130.209 33.8119 129.222 33.1336L128.089 34.7816ZM132.288 36.1328C132.963 36.1328 133.646 36.0272 134.333 35.825L133.769 33.9063C133.245 34.0603 132.753 34.1328 132.288 34.1328V36.1328ZM134.301 35.834C135.481 35.5293 136.606 35.0908 137.674 34.5186L136.73 32.7556C135.804 33.2518 134.828 33.6323 133.801 33.8974L134.301 35.834ZM137.684 34.5133C138.45 34.0921 139.092 33.6309 139.552 33.113C140.02 32.5871 140.339 31.9555 140.339 31.2334H138.339C138.339 31.3304 138.302 31.5089 138.057 31.7842C137.805 32.0676 137.379 32.3987 136.72 32.7609L137.684 34.5133ZM140.339 31.2334C140.339 30.4571 139.989 29.7911 139.312 29.3781C138.715 29.014 137.948 28.898 137.149 28.898V30.898C137.81 30.898 138.138 31.0046 138.271 31.0857C138.299 31.1026 138.312 31.1152 138.318 31.121C138.323 31.1264 138.324 31.1286 138.325 31.1288C138.325 31.1292 138.328 31.1344 138.331 31.1485C138.334 31.1633 138.339 31.1904 138.339 31.2334H140.339ZM137.149 28.898C136.038 28.898 134.491 29.1318 132.552 29.5628L132.986 31.5152C134.892 31.0915 136.265 30.898 137.149 30.898V28.898ZM132.566 29.5599C130.695 29.948 129.334 30.1266 128.442 30.1266V32.1266C129.544 32.1266 131.067 31.9134 132.972 31.5181L132.566 29.5599ZM128.442 30.1266C127.23 30.1266 126.449 29.894 125.971 29.5595L124.824 31.198C125.77 31.8606 127.019 32.1266 128.442 32.1266V30.1266ZM125.952 29.5467C125.414 29.1877 125.063 28.7522 124.858 28.2352C124.65 27.708 124.571 27.0351 124.68 26.1783L122.696 25.9258C122.556 27.0276 122.637 28.0551 122.998 28.9701C123.364 29.8954 123.992 30.6439 124.843 31.2108L125.952 29.5467ZM124.681 26.1684C125.108 22.5222 127.49 18.1366 132.073 12.9892L130.58 11.6592C125.904 16.9101 123.194 21.6764 122.695 25.9357L124.681 26.1684ZM132.075 12.9876C134.41 10.3534 136.553 8.38242 138.502 7.04624C140.456 5.70701 142.16 5.04257 143.631 4.93529L143.486 2.94058C141.539 3.08257 139.495 3.94048 137.371 5.39668C135.243 6.85593 132.979 8.95341 130.578 11.6608L132.075 12.9876ZM143.623 4.93586C144.969 4.84903 145.846 5.28962 146.452 6.20056C147.116 7.20157 147.526 8.88538 147.526 11.4161H149.526C149.526 8.74777 149.108 6.58564 148.117 5.09391C147.067 3.51212 145.46 2.81318 143.494 2.94001L143.623 4.93586ZM147.526 11.4161C147.526 12.6164 147.441 13.9844 147.266 15.5231L149.253 15.7489C149.434 14.1539 149.526 12.7086 149.526 11.4161H147.526ZM159.957 14.1403L159.801 13.1527L159.165 13.2535L158.993 13.8744L159.957 14.1403ZM159.21 17.185L158.232 16.9755L158.229 16.9889L159.21 17.185ZM158.622 20.1229L157.641 19.9268L157.343 21.417L158.83 21.1011L158.622 20.1229ZM167.169 18.3068L168.166 18.3719L168.252 17.0541L166.961 17.3286L167.169 18.3068ZM166.688 25.6782L166.861 26.6631L167.635 26.5273L167.686 25.7432L166.688 25.6782ZM157.126 27.5477L156.901 26.5733L156.272 26.7185L156.146 27.3516L157.126 27.5477ZM156.752 29.6843L157.737 29.861L157.739 29.8469L157.741 29.8327L156.752 29.6843ZM156.379 31.7676L155.394 31.5909L155.149 32.9565L156.522 32.7572L156.379 31.7676ZM166.314 30.3253L167.311 30.3951L167.398 29.1575L166.17 29.3357L166.314 30.3253ZM165.619 40.2607L165.703 41.2572L166.557 41.186L166.617 40.3304L165.619 40.2607ZM146.123 43.9464L145.136 43.7826L144.885 45.2984L146.372 44.9147L146.123 43.9464ZM152.479 5.64724L152.337 4.65747L151.612 4.76184L151.493 5.48351L152.479 5.64724ZM170.267 3.08328L171.264 3.15338L171.351 1.91663L170.124 2.09351L170.267 3.08328ZM169.572 12.9652L169.664 13.961L170.51 13.8833L170.57 13.0353L169.572 12.9652ZM158.993 13.8744C158.704 14.9249 158.45 15.9586 158.232 16.9755L160.187 17.3946C160.397 16.4173 160.641 15.4213 160.921 14.4063L158.993 13.8744ZM158.229 16.9889L157.641 19.9268L159.603 20.319L160.19 17.3812L158.229 16.9889ZM158.83 21.1011L167.376 19.2849L166.961 17.3286L158.414 19.1448L158.83 21.1011ZM166.171 18.2417L165.69 25.6131L167.686 25.7432L168.166 18.3719L166.171 18.2417ZM166.515 24.6932C162.449 25.4066 159.241 26.0333 156.901 26.5733L157.351 28.5221C159.641 27.9938 162.808 27.3741 166.861 26.6631L166.515 24.6932ZM156.146 27.3516C156 28.0795 155.873 28.8077 155.764 29.536L157.741 29.8327C157.846 29.1366 157.968 28.4403 158.107 27.7438L156.146 27.3516ZM155.768 29.5077L155.394 31.5909L157.363 31.9442L157.737 29.861L155.768 29.5077ZM156.522 32.7572L166.458 31.315L166.17 29.3357L156.235 30.7779L156.522 32.7572ZM165.316 30.2556L164.622 40.1909L166.617 40.3304L167.311 30.3951L165.316 30.2556ZM165.536 39.2641C160.33 39.698 153.77 40.9412 145.873 42.978L146.372 44.9147C154.215 42.8919 160.653 41.678 165.703 41.2572L165.536 39.2641ZM147.109 44.1101L153.466 5.81097L151.493 5.48351L145.136 43.7826L147.109 44.1101ZM152.622 6.63701L170.409 4.07305L170.124 2.09351L152.337 4.65747L152.622 6.63701ZM169.269 3.01318L168.575 12.8951L170.57 13.0353L171.264 3.15338L169.269 3.01318ZM169.481 11.9694C165.973 12.2915 162.746 12.6858 159.801 13.1527L160.114 15.128C163.009 14.6691 166.192 14.2799 169.664 13.961L169.481 11.9694ZM173.418 35.1862L173.548 36.1778L173.56 36.1761L173.418 35.1862ZM176.73 35.7203L176.244 36.5945L176.263 36.605L176.283 36.6148L176.73 35.7203ZM175.822 42.878L175.209 42.0878L175.202 42.0932L175.822 42.878ZM171.388 44.801L171.256 43.8098L171.251 43.8105L171.388 44.801ZM168.077 44.3737L167.618 45.2624L167.629 45.2681L168.077 44.3737ZM168.931 37.1626L168.299 36.3877L168.293 36.393L168.931 37.1626ZM179.454 1.96155L179.619 0.975283L178.738 0.827709L178.493 1.68683L179.454 1.96155ZM190.618 3.8311L191.492 4.31774L192.182 3.07903L190.783 2.84484L190.618 3.8311ZM184.101 16.277L183.194 15.8559L183.193 15.8584L184.101 16.277ZM179.08 29.5775L179.037 30.5766L179.81 30.6099L180.036 29.8701L179.08 29.5775ZM171.655 29.257L170.694 28.9823L170.346 30.2014L171.612 30.2561L171.655 29.257ZM173.56 36.1761C174.623 36.0243 175.501 36.1813 176.244 36.5945L177.216 34.8462C176.036 34.191 174.707 33.992 173.277 34.1962L173.56 36.1761ZM176.283 36.6148C176.724 36.8356 177 37.0897 177.17 37.3544C177.337 37.6162 177.439 37.9483 177.439 38.3911H179.439C179.439 37.6232 179.256 36.9048 178.854 36.2763C178.454 35.6508 177.875 35.1748 177.177 34.8259L176.283 36.6148ZM177.439 38.3911C177.439 39.6205 176.801 40.8533 175.209 42.0878L176.435 43.6683C178.333 42.1964 179.439 40.4379 179.439 38.3911H177.439ZM175.202 42.0932C173.98 43.0578 172.669 43.6215 171.256 43.8098L171.521 45.7922C173.313 45.5532 174.957 44.8349 176.442 43.6629L175.202 42.0932ZM171.251 43.8105C170.119 43.9678 169.228 43.8315 168.524 43.4793L167.629 45.2681C168.777 45.8418 170.094 45.9904 171.526 45.7915L171.251 43.8105ZM168.535 43.4851C168.114 43.2676 167.849 43.0167 167.685 42.7517C167.521 42.4882 167.421 42.1517 167.421 41.7029H165.421C165.421 42.4649 165.596 43.1788 165.985 43.8056C166.372 44.4309 166.935 44.91 167.618 45.2623L168.535 43.4851ZM167.421 41.7029C167.421 40.4527 168.045 39.1974 169.57 37.9321L168.293 36.393C166.47 37.9054 165.421 39.6769 165.421 41.7029H167.421ZM169.563 37.9374C170.781 36.9441 172.105 36.366 173.547 36.1778L173.289 34.1946C171.456 34.4337 169.788 35.1732 168.299 36.3877L169.563 37.9374ZM179.289 2.94782L190.453 4.81737L190.783 2.84484L179.619 0.975283L179.289 2.94782ZM189.744 3.34446C186.785 8.65727 184.599 12.8311 183.194 15.8559L185.008 16.6981C186.382 13.7403 188.54 9.61687 191.492 4.31774L189.744 3.34446ZM183.193 15.8584C181.285 19.9985 179.596 24.4746 178.124 29.2849L180.036 29.8701C181.485 25.1368 183.143 20.7458 185.01 16.6955L183.193 15.8584ZM179.123 28.5784L171.699 28.2579L171.612 30.2561L179.037 30.5766L179.123 28.5784ZM172.617 29.5317L180.416 2.23627L178.493 1.68683L170.694 28.9823L172.617 29.5317Z" fill="black"/>
</svg>
